<?xml version="1.0" encoding="UTF-8" standalone="no"?>
<svg
   version="1.1"
   viewBox="0 0 362.34299 233.49345"
   fill="none"
   stroke="none"
   stroke-linecap="square"
   stroke-miterlimit="10"
   id="svg93"
   sodipodi:docname="parts.svg"
   width="362.34299"
   height="233.49345"
   inkscape:version="1.1.2 (0a00cf5339, 2022-02-04)"
   xmlns:inkscape="http://www.inkscape.org/namespaces/inkscape"
   xmlns:sodipodi="http://sodipodi.sourceforge.net/DTD/sodipodi-0.dtd"
   xmlns="http://www.w3.org/2000/svg"
   xmlns:svg="http://www.w3.org/2000/svg">
  <defs
     id="defs97" />
  <sodipodi:namedview
     id="namedview95"
     pagecolor="#ffffff"
     bordercolor="#999999"
     borderopacity="1"
     inkscape:pageshadow="0"
     inkscape:pageopacity="0"
     inkscape:pagecheckerboard="0"
     showgrid="false"
     inkscape:zoom="1.3166667"
     inkscape:cx="373.67089"
     inkscape:cy="163.67089"
     inkscape:window-width="1920"
     inkscape:window-height="962"
     inkscape:window-x="1920"
     inkscape:window-y="27"
     inkscape:window-maximized="1"
     inkscape:current-layer="svg93" />
  <clipPath
     id="p.0">
    <path
       d="M 0,0 H 800 V 600 H 0 Z"
       clip-rule="nonzero"
       id="path2" />
  </clipPath>
  <path
     fill="#000000"
     fill-opacity="0"
     d="M -26.733595,-15.405512 H 773.2664 V 584.59449 H -26.733595 Z"
     fill-rule="evenodd"
     id="path5" />
  <path
     fill="#000000"
     fill-opacity="0"
     d="M -17.951443,-4.864829 H 386.14303 V 245.49738 H -17.951443 Z"
     fill-rule="evenodd"
     id="path7" />
  <path
     fill="#cfe2f3"
     d="M 0.5,53.993438 H 135.14567 V 202.98511 l -22.4414,22.44139 H 0.500004 Z"
     fill-rule="evenodd"
     id="path9" />
  <path
     fill="#a5b4c2"
     d="m 112.70427,225.42651 4.48829,-17.95311 17.95312,-4.48828 z"
     fill-rule="evenodd"
     id="path11" />
  <path
     fill="#000000"
     fill-opacity="0"
     d="m 112.70427,225.42651 4.48829,-17.95311 17.95312,-4.48828 -22.44141,22.44139 H 0.500005 V 53.993438 H 135.14568 V 202.98511"
     fill-rule="evenodd"
     id="path13" />
  <path
     stroke="#000000"
     stroke-width="1"
     stroke-linejoin="round"
     stroke-linecap="butt"
     d="m 112.70427,225.42651 4.48829,-17.95311 17.95312,-4.48828 -22.44141,22.44139 H 0.500005 V 53.993438 H 135.14568 V 202.98511"
     fill-rule="evenodd"
     id="path15" />
  <path
     fill="#000000"
     d="M 14.811117,78.353438 V 66.900313 h 4.328125 q 1.140625,0 1.734375,0.109375 0.84375,0.140625 1.40625,0.53125 0.578125,0.390625 0.921875,1.109375 0.359375,0.703125 0.359375,1.5625 0,1.453125 -0.9375,2.46875 -0.921875,1.015625 -3.359375,1.015625 h -2.9375 v 4.65625 z m 1.515625,-6.015625 h 2.96875 q 1.46875,0 2.078125,-0.546875 0.625,-0.546875 0.625,-1.53125 0,-0.71875 -0.375,-1.234375 -0.359375,-0.515625 -0.953125,-0.671875 -0.375,-0.109375 -1.40625,-0.109375 h -2.9375 z m 9.421875,6.015625 V 66.900313 h 1.515625 v 11.453125 z m 4.164062,0 V 66.900313 h 1.5625 l 6.015621,8.984375 v -8.984375 h 1.453125 v 11.453125 h -1.5625 l -6.015621,-9 v 9 z m 10.851559,-3.4375 v -1.421875 h 4.3125 v 1.421875 z m 5.34375,-0.71875 q 0,-2.296875 1.28125,-3.40625 1.078125,-0.921875 2.609375,-0.921875 1.71875,0 2.796875,1.125 1.09375,1.109375 1.09375,3.09375 0,1.59375 -0.484375,2.515625 -0.484375,0.921875 -1.40625,1.4375 -0.90625,0.5 -2,0.5 -1.734375,0 -2.8125,-1.109375 -1.078125,-1.125 -1.078125,-3.234375 z m 1.453125,0 q 0,1.59375 0.6875,2.390625 0.703125,0.796875 1.75,0.796875 1.046875,0 1.734375,-0.796875 0.703125,-0.796875 0.703125,-2.4375 0,-1.53125 -0.703125,-2.328125 -0.6875,-0.796875 -1.734375,-0.796875 -1.046875,0 -1.75,0.796875 -0.6875,0.78125 -0.6875,2.375 z m 7.976563,4.15625 v -8.296875 h 1.265625 v 1.171875 q 0.90625,-1.359375 2.640625,-1.359375 0.75,0 1.375,0.265625 0.625,0.265625 0.9375,0.703125 0.3125,0.4375 0.4375,1.046875 0.07813,0.390625 0.07813,1.359375 v 5.109375 h -1.40625 v -5.046875 q 0,-0.859375 -0.171875,-1.28125 -0.15625,-0.4375 -0.578125,-0.6875 -0.40625,-0.25 -0.96875,-0.25 -0.90625,0 -1.5625,0.578125 -0.640625,0.5625 -0.640625,2.15625 v 4.53125 z m 8.867187,0 V 66.900313 h 1.40625 v 11.453125 z m 3.523438,3.203125 -0.15625,-1.328125 q 0.453125,0.125 0.796875,0.125 0.46875,0 0.75,-0.15625 0.28125,-0.15625 0.46875,-0.4375 0.125,-0.203125 0.421875,-1.046875 0.04687,-0.109375 0.125,-0.34375 l -3.140625,-8.3125 h 1.515625 l 1.71875,4.796875 q 0.34375,0.921875 0.609375,1.921875 0.234375,-0.96875 0.578125,-1.890625 l 1.765624,-4.828125 h 1.40625 l -3.156249,8.4375 q -0.5,1.375 -0.78125,1.890625 -0.375,0.6875 -0.859375,1.015625 -0.484375,0.328125 -1.15625,0.328125 -0.40625,0 -0.90625,-0.171875 z m 12.507814,-3.203125 v -8.296875 h 1.26562 v 1.171875 q 0.90625,-1.359375 2.64063,-1.359375 0.75,0 1.375,0.265625 0.625,0.265625 0.9375,0.703125 0.3125,0.4375 0.4375,1.046875 0.0781,0.390625 0.0781,1.359375 v 5.109375 h -1.40625 v -5.046875 q 0,-0.859375 -0.17187,-1.28125 -0.15625,-0.4375 -0.57813,-0.6875 -0.40625,-0.25 -0.96875,-0.25 -0.90625,0 -1.5625,0.578125 -0.64062,0.5625 -0.64062,2.15625 v 4.53125 z m 8.36719,-4.15625 q 0,-2.296875 1.28125,-3.40625 1.07812,-0.921875 2.60937,-0.921875 1.71875,0 2.79688,1.125 1.09375,1.109375 1.09375,3.09375 0,1.59375 -0.48438,2.515625 -0.48437,0.921875 -1.40625,1.4375 -0.90625,0.5 -2,0.5 -1.73437,0 -2.8125,-1.109375 -1.07812,-1.125 -1.07812,-3.234375 z m 1.45312,0 q 0,1.59375 0.6875,2.390625 0.70313,0.796875 1.75,0.796875 1.04688,0 1.73438,-0.796875 0.70312,-0.796875 0.70312,-2.4375 0,-1.53125 -0.70312,-2.328125 -0.6875,-0.796875 -1.73438,-0.796875 -1.04687,0 -1.75,0.796875 -0.6875,0.78125 -0.6875,2.375 z m 11.039055,2.890625 0.20313,1.25 q -0.59375,0.125 -1.0625,0.125 -0.765625,0 -1.187495,-0.234375 -0.42188,-0.25 -0.59375,-0.640625 -0.17188,-0.40625 -0.17188,-1.671875 v -4.765625 h -1.03125 v -1.09375 h 1.03125 v -2.0625 l 1.40625,-0.84375 v 2.90625 h 1.406245 v 1.09375 h -1.406245 v 4.84375 q 0,0.609375 0.0625,0.78125 0.0781,0.171875 0.249995,0.28125 0.17188,0.09375 0.48438,0.09375 0.23437,0 0.60937,-0.0625 z m 1.38282,-8.578125 v -1.609375 h 1.40625 v 1.609375 z m 0,9.84375 v -8.296875 h 1.40625 v 8.296875 z m 8.96093,-3.046875 1.39063,0.1875 q -0.23438,1.421875 -1.17188,2.234375 -0.92187,0.8125 -2.28125,0.8125 -1.70312,0 -2.75,-1.109375 -1.03125,-1.125 -1.03125,-3.203125 0,-1.34375 0.4375,-2.34375 0.45313,-1.015625 1.35938,-1.515625 0.92187,-0.5 1.98437,-0.5 1.35938,0 2.21875,0.6875 0.85938,0.671875 1.09375,1.9375 l -1.35937,0.203125 q -0.20313,-0.828125 -0.70313,-1.25 -0.48437,-0.421875 -1.1875,-0.421875 -1.0625,0 -1.73437,0.765625 -0.65625,0.75 -0.65625,2.40625 0,1.671875 0.64062,2.4375 0.64063,0.75 1.67188,0.75 0.82812,0 1.375,-0.5 0.5625,-0.515625 0.70312,-1.578125 z m 8.26563,0.375 1.45312,0.171875 q -0.34375,1.28125 -1.28125,1.984375 -0.92187,0.703125 -2.35937,0.703125 -1.82813,0 -2.89063,-1.125 -1.0625,-1.125 -1.0625,-3.140625 0,-2.09375 1.07813,-3.25 1.07812,-1.15625 2.79687,-1.15625 1.65625,0 2.70313,1.140625 1.0625,1.125 1.0625,3.171875 0,0.125 0,0.375 h -6.1875 q 0.0781,1.375 0.76562,2.109375 0.70313,0.71875 1.73438,0.71875 0.78125,0 1.32812,-0.40625 0.54688,-0.40625 0.85938,-1.296875 z m -4.60938,-2.28125 h 4.625 q -0.0937,-1.046875 -0.53125,-1.5625 -0.67187,-0.8125 -1.73437,-0.8125 -0.96875,0 -1.64063,0.65625 -0.65625,0.640625 -0.71875,1.71875 z"
     fill-rule="nonzero"
     id="path17" />
  <path
     fill="#d9ead3"
     d="M 10.516123,90.111548 H 122.89407 V 138.08006 H 10.516123 Z"
     fill-rule="evenodd"
     id="path19" />
  <path
     stroke="#000000"
     stroke-width="1"
     stroke-linejoin="round"
     stroke-linecap="butt"
     d="M 10.516123,90.111548 H 122.89407 V 138.08006 H 10.516123 Z"
     fill-rule="evenodd"
     id="path21" />
  <path
     fill="#000000"
     d="m 46.150405,119.9558 v -11.45312 h 4.328125 q 1.140625,0 1.734375,0.10937 0.84375,0.14063 1.40625,0.53125 0.578125,0.39063 0.921875,1.10938 0.359375,0.70312 0.359375,1.5625 0,1.45312 -0.9375,2.46874 -0.921875,1.01563 -3.359375,1.01563 h -2.9375 v 4.65625 z m 1.515625,-6.01563 h 2.96875 q 1.46875,0 2.078125,-0.54687 0.625,-0.54688 0.625,-1.53125 0,-0.71875 -0.375,-1.23437 -0.359375,-0.51563 -0.953125,-0.67188 -0.375,-0.10937 -1.40625,-0.10937 h -2.9375 z m 14.390625,4.98438 q -0.78125,0.67187 -1.5,0.95312 -0.71875,0.26563 -1.546875,0.26563 -1.375,0 -2.109375,-0.67188 -0.734375,-0.67187 -0.734375,-1.70312 0,-0.60938 0.28125,-1.10938 0.28125,-0.51562 0.71875,-0.8125 0.453125,-0.3125 1.015625,-0.46875 0.421875,-0.10937 1.25,-0.20312 1.703125,-0.20313 2.515625,-0.48438 0,-0.29687 0,-0.375 0,-0.85937 -0.390625,-1.20312 -0.546875,-0.48438 -1.609375,-0.48438 -0.984375,0 -1.46875,0.35938 -0.46875,0.34375 -0.6875,1.21875 l -1.375,-0.1875 q 0.1875,-0.875 0.609375,-1.42188 0.4375,-0.54687 1.25,-0.82812 0.8125,-0.29687 1.875,-0.29687 1.0625,0 1.71875,0.25 0.671875,0.25 0.984375,0.625 0.3125,0.37499 0.4375,0.95312 0.07813,0.35937 0.07813,1.29687 v 1.875 q 0,1.96875 0.07813,2.48438 0.09375,0.51562 0.359375,1 h -1.46876 q -0.21875,-0.4375 -0.28125,-1.03125 z m -0.109375,-3.14063 q -0.765625,0.3125 -2.296875,0.53125 -0.875,0.125 -1.234375,0.28125 -0.359375,0.15625 -0.5625,0.46875 -0.1875,0.29688 -0.1875,0.65625 0,0.5625 0.421875,0.9375 0.4375,0.375 1.25,0.375 0.8125,0 1.4375,-0.34375 0.640625,-0.35937 0.9375,-0.98437 0.234375,-0.46875 0.234375,-1.40625 z m 3.585937,4.17188 v -8.29687 h 1.265625 v 1.24999 q 0.484375,-0.87499 0.890625,-1.15624 0.40625,-0.28125 0.90625,-0.28125 0.703125,0 1.4375,0.45312 l -0.484375,1.29687 q -0.515625,-0.29687 -1.03125,-0.29687 -0.453125,0 -0.828125,0.28125 -0.359375,0.26562 -0.515625,0.76562 -0.234375,0.75 -0.234375,1.64063 v 4.34375 z m 8.406248,-1.26563 0.20313,1.25 q -0.59375,0.125 -1.062503,0.125 -0.765625,0 -1.1875,-0.23437 -0.421875,-0.25 -0.59375,-0.64063 -0.171875,-0.40625 -0.171875,-1.67187 v -4.76563 h -1.03125 v -1.09374 h 1.03125 v -2.0625 l 1.40625,-0.84375 v 2.90625 h 1.406248 v 1.09374 h -1.406248 v 4.84375 q 0,0.60938 0.0625,0.78125 0.07813,0.17188 0.25,0.28125 0.171875,0.0937 0.484378,0.0937 0.23437,0 0.60937,-0.0625 z m 3.85157,1.26563 4.40625,-11.45312 h 1.64063 l 4.6875,11.45312 h -1.73438 l -1.32812,-3.46875 h -4.79688 l -1.25,3.46875 z m 3.3125,-4.70313 h 3.89063 l -1.20313,-3.17187 q -0.54687,-1.45312 -0.8125,-2.375 -0.21875,1.09375 -0.60937,2.1875 z"
     fill-rule="nonzero"
     id="path23" />
  <path
     fill="#d9d2e9"
     d="M 10.516123,149.80709 H 122.89407 V 197.7756 H 10.516123 Z"
     fill-rule="evenodd"
     id="path25" />
  <path
     stroke="#000000"
     stroke-width="1"
     stroke-linejoin="round"
     stroke-linecap="butt"
     d="M 10.516123,149.80709 H 122.89407 V 197.7756 H 10.516123 Z"
     fill-rule="evenodd"
     id="path27" />
  <path
     fill="#000000"
     d="m 45.709005,179.65134 v -11.45313 h 4.328125 q 1.140625,0 1.734375,0.10938 0.84375,0.14062 1.40625,0.53125 0.578125,0.39062 0.921875,1.10937 0.359375,0.70313 0.359375,1.5625 0,1.45313 -0.9375,2.46875 -0.921875,1.01563 -3.359375,1.01563 h -2.9375 v 4.65625 z m 1.515625,-6.01563 h 2.96875 q 1.46875,0 2.078125,-0.54687 0.625,-0.54688 0.625,-1.53125 0,-0.71875 -0.375,-1.23438 -0.359375,-0.51562 -0.953125,-0.67187 -0.375,-0.10938 -1.40625,-0.10938 h -2.9375 z m 14.390625,4.98438 q -0.78125,0.67187 -1.5,0.95312 -0.71875,0.26563 -1.546875,0.26563 -1.375,0 -2.109375,-0.67188 -0.734375,-0.67187 -0.734375,-1.70312 0,-0.60938 0.28125,-1.10938 0.28125,-0.51562 0.71875,-0.8125 0.453125,-0.3125 1.015625,-0.46875 0.421875,-0.10937 1.25,-0.20312 1.703125,-0.20313 2.515625,-0.48438 0,-0.29687 0,-0.375 0,-0.85937 -0.390625,-1.20312 -0.546875,-0.48438 -1.609375,-0.48438 -0.984375,0 -1.46875,0.35938 -0.46875,0.34375 -0.6875,1.21875 l -1.375,-0.1875 q 0.1875,-0.875 0.609375,-1.42188 0.4375,-0.54687 1.25,-0.82812 0.8125,-0.29688 1.875,-0.29688 1.0625,0 1.71875,0.25 0.671875,0.25 0.984375,0.625 0.3125,0.375 0.4375,0.95313 0.07813,0.35937 0.07813,1.29687 v 1.875 q 0,1.96875 0.07813,2.48438 0.09375,0.51562 0.359375,1 h -1.46876 q -0.21875,-0.4375 -0.28125,-1.03125 z m -0.109375,-3.14063 q -0.765625,0.3125 -2.296875,0.53125 -0.875,0.125 -1.234375,0.28125 -0.359375,0.15625 -0.5625,0.46875 -0.1875,0.29688 -0.1875,0.65625 0,0.5625 0.421875,0.9375 0.4375,0.375 1.25,0.375 0.8125,0 1.4375,-0.34375 0.640625,-0.35937 0.9375,-0.98437 0.234375,-0.46875 0.234375,-1.40625 z m 3.585937,4.17188 v -8.29688 h 1.265625 v 1.25 q 0.484375,-0.875 0.890625,-1.15625 0.40625,-0.28125 0.90625,-0.28125 0.703125,0 1.4375,0.45313 l -0.484375,1.29687 q -0.515625,-0.29687 -1.03125,-0.29687 -0.453125,0 -0.828125,0.28125 -0.359375,0.26562 -0.515625,0.76562 -0.234375,0.75 -0.234375,1.64063 v 4.34375 z m 8.406248,-1.26563 0.20313,1.25 q -0.593753,0.125 -1.062503,0.125 -0.765625,0 -1.1875,-0.23437 -0.421875,-0.25 -0.59375,-0.64063 -0.171875,-0.40625 -0.171875,-1.67187 v -4.76563 h -1.03125 v -1.09375 h 1.03125 v -2.0625 l 1.40625,-0.84375 v 2.90625 h 1.406248 v 1.09375 h -1.406248 v 4.84375 q 0,0.60938 0.0625,0.78125 0.07813,0.17188 0.25,0.28125 0.171875,0.0937 0.484375,0.0937 0.234375,0 0.609373,-0.0625 z m 5.93751,1.26563 v -11.45313 h 4.29688 q 1.3125,0 2.10937,0.34375 0.79688,0.34375 1.23438,1.07813 0.45312,0.71875 0.45312,1.5 0,0.73437 -0.40625,1.39062 -0.39062,0.64063 -1.1875,1.04688 1.03125,0.29687 1.59375,1.03125 0.5625,0.73437 0.5625,1.73437 0,0.8125 -0.34375,1.5 -0.34375,0.6875 -0.84375,1.0625 -0.5,0.375 -1.25,0.57813 -0.75,0.1875 -1.84375,0.1875 z m 1.51563,-6.64063 h 2.48437 q 1,0 1.4375,-0.14062 0.57813,-0.17188 0.875,-0.5625 0.29688,-0.40625 0.29688,-1 0,-0.57813 -0.28125,-1 -0.26563,-0.4375 -0.78125,-0.59375 -0.5,-0.17188 -1.73438,-0.17188 h -2.29687 z m 0,5.28125 h 2.85937 q 0.73438,0 1.03125,-0.0469 0.51563,-0.0937 0.85938,-0.3125 0.35937,-0.21875 0.57812,-0.64063 0.23438,-0.42187 0.23438,-0.96875 0,-0.64062 -0.32813,-1.10937 -0.32812,-0.46875 -0.90625,-0.65625 -0.57812,-0.20313 -1.67187,-0.20313 h -2.65625 z"
     fill-rule="nonzero"
     id="path29" />
  <path
     fill="#cfe2f3"
     d="M 0.5,10.164041 H 135.14567 V 54.164045 H 0.5 Z"
     fill-rule="evenodd"
     id="path31" />
  <path
     stroke="#000000"
     stroke-width="1"
     stroke-linejoin="round"
     stroke-linecap="butt"
     d="M 0.5,10.164041 H 135.14567 V 54.164045 H 0.5 Z"
     fill-rule="evenodd"
     id="path33" />
  <path
     fill="#000000"
     d="m 44.87752,25.883418 2.1875,0.359375 q -0.421875,1.203125 -1.328125,1.84375 -0.90625,0.625 -2.28125,0.625 -2.15625,0 -3.203125,-1.421875 -0.8125,-1.125 -0.8125,-2.859375 0,-2.0625 1.078125,-3.21875 1.078125,-1.171875 2.71875,-1.171875 1.859375,0 2.921875,1.21875 1.078125,1.21875 1.03125,3.75 h -5.5 q 0.01563,0.96875 0.515625,1.515625 0.515625,0.546875 1.28125,0.546875 0.515625,0 0.859375,-0.28125 0.359375,-0.28125 0.53125,-0.90625 z m 0.125,-2.21875 q -0.01563,-0.953125 -0.484375,-1.453125 -0.46875,-0.5 -1.140625,-0.5 -0.71875,0 -1.1875,0.53125 -0.46875,0.515625 -0.46875,1.421875 z m 4.007812,4.859375 V 17.070918 h 7.84375 v 1.9375 h -5.53125 v 2.703125 h 4.78125 v 1.9375 h -4.78125 v 4.875 z m 9.226563,-4.265625 q 0,-1.09375 0.53125,-2.109375 0.546875,-1.03125 1.53125,-1.5625 1,-0.546875 2.21875,-0.546875 1.875,0 3.078125,1.21875 1.203125,1.21875 1.203125,3.09375 0,1.875 -1.21875,3.125 -1.203125,1.234375 -3.046875,1.234375 -1.140625,0 -2.1875,-0.515625 -1.03125,-0.515625 -1.578125,-1.515625 -0.53125,-1 -0.53125,-2.421875 z m 2.25,0.109375 q 0,1.234375 0.578125,1.890625 0.59375,0.65625 1.453125,0.65625 0.859375,0 1.4375,-0.65625 0.59375,-0.65625 0.59375,-1.90625 0,-1.21875 -0.59375,-1.875 -0.578125,-0.65625 -1.4375,-0.65625 -0.859375,0 -1.453125,0.65625 -0.578125,0.65625 -0.578125,1.890625 z m 10.132812,4.15625 h -2.1875 v -8.296875 h 2.03125 v 1.171875 q 0.53125,-0.828125 0.9375,-1.09375 0.421875,-0.265625 0.953125,-0.265625 0.75,0 1.453123,0.40625 l -0.687498,1.921875 q -0.546875,-0.359375 -1.03125,-0.359375 -0.453125,0 -0.78125,0.25 -0.3125,0.25 -0.5,0.921875 -0.1875,0.65625 -0.1875,2.78125 z m 3.960938,-8.296875 h 2.03125 v 1.125 q 1.07812,-1.3125 2.57812,-1.3125 0.79688,0 1.375,0.328125 0.59375,0.328125 0.96875,0.984375 0.54688,-0.65625 1.17188,-0.984375 0.64062,-0.328125 1.35937,-0.328125 0.92188,0 1.54688,0.375 0.64062,0.359375 0.95312,1.078125 0.21875,0.53125 0.21875,1.71875 v 5.3125 h -2.1875 v -4.75 q 0,-1.234375 -0.23437,-1.59375 -0.29688,-0.46875 -0.9375,-0.46875 -0.45313,0 -0.85938,0.28125 -0.40625,0.28125 -0.59375,0.828125 -0.17187,0.546875 -0.17187,1.71875 v 3.984375 h -2.20313 v -4.546875 q 0,-1.21875 -0.125,-1.5625 -0.10937,-0.359375 -0.35937,-0.53125 -0.23438,-0.171875 -0.65625,-0.171875 -0.51563,0 -0.92188,0.28125 -0.40625,0.265625 -0.57812,0.78125 -0.17188,0.515625 -0.17188,1.71875 v 4.03125 h -2.20312 z m 13.61719,5.921875 2.20312,-0.328125 q 0.14063,0.640625 0.5625,0.96875 0.4375,0.328125 1.21875,0.328125 0.84375,0 1.28125,-0.3125 0.28125,-0.21875 0.28125,-0.578125 0,-0.25 -0.15625,-0.421875 -0.15625,-0.15625 -0.73437,-0.28125 -2.65625,-0.59375 -3.35938,-1.078125 -0.98437,-0.671875 -0.98437,-1.859375 0,-1.078125 0.84375,-1.8125 0.85937,-0.734375 2.64062,-0.734375 1.70313,0 2.53125,0.5625 0.82813,0.546875 1.14063,1.625 l -2.0625,0.390625 q -0.14063,-0.484375 -0.51563,-0.734375 -0.35937,-0.265625 -1.04687,-0.265625 -0.875,0 -1.25,0.234375 -0.25,0.171875 -0.25,0.453125 0,0.234375 0.21875,0.390625 0.29687,0.21875 2.04687,0.625 1.76563,0.390625 2.45313,0.96875 0.6875,0.59375 0.6875,1.640625 0,1.140625 -0.95313,1.96875 -0.95312,0.8125 -2.8125,0.8125 -1.70312,0 -2.6875,-0.6875 -0.98437,-0.6875 -1.29687,-1.875 z"
     fill-rule="nonzero"
     id="path35" />
  <path
     fill="#000000"
     d="m 29.795492,39.227168 h 2.046875 v 1.21875 q 0.390625,-0.625 1.0625,-1.015625 0.6875,-0.390625 1.515625,-0.390625 1.453125,0 2.453125,1.140625 1.015621,1.125 1.015621,3.140625 0,2.078125 -1.015621,3.234375 -1.015625,1.15625 -2.46875,1.15625 -0.6875,0 -1.25,-0.265625 -0.546875,-0.28125 -1.171875,-0.953125 v 4.187504 h -2.1875 z m 2.171875,4 q 0,1.40625 0.546875,2.078125 0.5625,0.65625 1.359375,0.65625 0.765625,0 1.265625,-0.609375 0.515625,-0.609375 0.515625,-2.015625 0,-1.296875 -0.53125,-1.921875 -0.515625,-0.640625 -1.296875,-0.640625 -0.796875,0 -1.328125,0.625 -0.53125,0.609375 -0.53125,1.828125 z m 9.757809,4.296875 h -2.1875 v -8.296875 h 2.03125 v 1.171875 q 0.53125,-0.828125 0.9375,-1.09375 0.421875,-0.265625 0.953125,-0.265625 0.75,0 1.453125,0.40625 l -0.6875,1.921875 q -0.546875,-0.359375 -1.03125,-0.359375 -0.453125,0 -0.78125,0.25 -0.3125,0.25 -0.5,0.921875 -0.1875,0.65625 -0.1875,2.78125 z m 3.617187,-4.265625 q 0,-1.09375 0.53125,-2.109375 0.546875,-1.03125 1.53125,-1.5625 1,-0.546875 2.21875,-0.546875 1.875,0 3.078125,1.21875 1.203125,1.21875 1.203125,3.09375 0,1.875 -1.21875,3.125 -1.203125,1.234375 -3.046875,1.234375 -1.140625,0 -2.1875,-0.515625 -1.03125,-0.515625 -1.578125,-1.515625 -0.53125,-1 -0.53125,-2.421875 z m 2.25,0.109375 q 0,1.234375 0.578125,1.890625 0.59375,0.65625 1.453125,0.65625 0.859375,0 1.4375,-0.65625 0.59375,-0.65625 0.59375,-1.90625 0,-1.21875 -0.59375,-1.875 -0.578125,-0.65625 -1.4375,-0.65625 -0.859375,0 -1.453125,0.65625 -0.578125,0.65625 -0.578125,1.890625 z m 15.273438,-1.6875 -2.171875,0.390625 q -0.109375,-0.65625 -0.5,-0.984375 -0.375,-0.328125 -1,-0.328125 -0.8125,0 -1.3125,0.578125 -0.484375,0.5625 -0.484375,1.890625 0,1.46875 0.5,2.078125 0.5,0.609375 1.328125,0.609375 0.625,0 1.015625,-0.34375 0.40625,-0.359375 0.578125,-1.234375 l 2.15625,0.375 q -0.34375,1.484375 -1.296875,2.25 -0.953125,0.75 -2.546875,0.75 -1.828125,0 -2.90625,-1.140625 -1.078125,-1.15625 -1.078125,-3.1875 0,-2.0625 1.078125,-3.203125 1.09375,-1.140625 2.9375,-1.140625 1.515625,0 2.40625,0.65625 0.90625,0.640625 1.296875,1.984375 z m 6.460937,3.203125 2.1875,0.359375 q -0.421875,1.203125 -1.328125,1.84375 -0.90625,0.625 -2.28125,0.625 -2.15625,0 -3.203125,-1.421875 -0.8125,-1.125 -0.8125,-2.859375 0,-2.0625 1.078125,-3.21875 1.078125,-1.171875 2.71875,-1.171875 1.859375,0 2.921875,1.21875 1.078125,1.21875 1.03125,3.75 h -5.5 q 0.01563,0.96875 0.515625,1.515625 0.515625,0.546875 1.28125,0.546875 0.515625,0 0.859375,-0.28125 0.359375,-0.28125 0.53125,-0.90625 z m 0.125,-2.21875 q -0.01563,-0.953125 -0.484375,-1.453125 -0.46875,-0.5 -1.140625,-0.5 -0.71875,0 -1.1875,0.53125 -0.46875,0.515625 -0.46875,1.421875 z m 11.585937,4.859375 h -2.04687 v -1.21875 q -0.5,0.703125 -1.20313,1.0625 -0.6875,0.34375 -1.39062,0.34375 -1.42188,0 -2.45313,-1.15625 -1.015624,-1.15625 -1.015624,-3.21875 0,-2.109375 0.984374,-3.203125 1,-1.09375 2.51563,-1.09375 1.39062,0 2.40625,1.15625 v -4.125 h 2.20312 z m -5.85937,-4.328125 q 0,1.328125 0.35937,1.921875 0.53125,0.859375 1.48438,0.859375 0.76562,0 1.29687,-0.640625 0.53125,-0.65625 0.53125,-1.9375 0,-1.421875 -0.51562,-2.046875 -0.51563,-0.640625 -1.32813,-0.640625 -0.78125,0 -1.3125,0.625 -0.51562,0.625 -0.51562,1.859375 z m 13.47656,4.328125 v -1.25 q -0.45313,0.671875 -1.1875,1.0625 -0.73438,0.375 -1.5625,0.375 -0.82813,0 -1.5,-0.359375 -0.65625,-0.375 -0.95313,-1.03125 -0.29687,-0.671875 -0.29687,-1.84375 v -5.25 h 2.1875 v 3.8125 q 0,1.75 0.125,2.140625 0.125,0.390625 0.4375,0.625 0.32812,0.234375 0.8125,0.234375 0.5625,0 1,-0.3125 0.45312,-0.3125 0.60937,-0.765625 0.17188,-0.453125 0.17188,-2.234375 v -3.5 h 2.20312 v 8.296875 z m 6.41406,0 h -2.1875 v -8.296875 h 2.03125 v 1.171875 q 0.53125,-0.828125 0.9375,-1.09375 0.42188,-0.265625 0.95313,-0.265625 0.75,0 1.45312,0.40625 l -0.6875,1.921875 q -0.54687,-0.359375 -1.03125,-0.359375 -0.45312,0 -0.78125,0.25 -0.3125,0.25 -0.5,0.921875 -0.1875,0.65625 -0.1875,2.78125 z m 8.929695,-2.640625 2.1875,0.359375 q -0.42188,1.203125 -1.32813,1.84375 -0.90625,0.625 -2.28125,0.625 -2.15625,0 -3.203125,-1.421875 -0.8125,-1.125 -0.8125,-2.859375 0,-2.0625 1.07812,-3.21875 1.078135,-1.171875 2.718755,-1.171875 1.85938,0 2.92188,1.21875 1.07812,1.21875 1.03125,3.75 h -5.5 q 0.0156,0.96875 0.51562,1.515625 0.51563,0.546875 1.28125,0.546875 0.51563,0 0.85938,-0.28125 0.35937,-0.28125 0.53125,-0.90625 z m 0.125,-2.21875 q -0.0156,-0.953125 -0.48438,-1.453125 -0.46875,-0.5 -1.14062,-0.5 -0.71875,0 -1.1875,0.53125 -0.46875,0.515625 -0.46875,1.421875 z"
     fill-rule="nonzero"
     id="path37" />
  <path
     fill="#d9ead3"
     d="m 227.21391,45.476378 h 134.61418 v 48.39876 l -9.67999,9.679982 H 227.21392 Z"
     fill-rule="evenodd"
     id="path39" />
  <path
     fill="#adbba8"
     d="m 352.14809,103.55512 1.936,-7.743992 7.74398,-1.936 z"
     fill-rule="evenodd"
     id="path41" />
  <path
     fill="#000000"
     fill-opacity="0"
     d="m 352.14809,103.55512 1.936,-7.743992 7.74398,-1.936 -9.67998,9.679992 H 227.21391 V 45.476375 h 134.61418 v 48.398753"
     fill-rule="evenodd"
     id="path43" />
  <path
     stroke="#000000"
     stroke-width="1"
     stroke-linejoin="round"
     stroke-linecap="butt"
     d="m 352.14809,103.55512 1.936,-7.743992 7.74398,-1.936 -9.67998,9.679992 H 227.21391 V 45.476375 h 134.61418 v 48.398753"
     fill-rule="evenodd"
     id="path45" />
  <path
     fill="#000000"
     d="M 264.61867,69.836378 V 58.383253 h 4.32812 q 1.14063,0 1.73438,0.109375 0.84375,0.140625 1.40625,0.53125 0.57812,0.390625 0.92187,1.109375 0.35938,0.703125 0.35938,1.5625 0,1.453125 -0.9375,2.46875 -0.92188,1.015625 -3.35938,1.015625 h -2.9375 v 4.65625 z m 1.51562,-6.015625 h 2.96875 q 1.46875,0 2.07813,-0.546875 0.625,-0.546875 0.625,-1.53125 0,-0.71875 -0.375,-1.234375 -0.35938,-0.515625 -0.95313,-0.671875 -0.375,-0.109375 -1.40625,-0.109375 h -2.9375 z m 8.95313,6.015625 V 58.383253 h 1.40625 v 11.453125 z m 8.99219,-1.03125 q -0.78125,0.671875 -1.5,0.953125 -0.71875,0.265625 -1.54688,0.265625 -1.375,0 -2.10937,-0.671875 -0.73438,-0.671875 -0.73438,-1.703125 0,-0.609375 0.28125,-1.109375 0.28125,-0.515625 0.71875,-0.8125 0.45313,-0.3125 1.01563,-0.46875 0.42187,-0.109375 1.25,-0.203125 1.70312,-0.203125 2.51562,-0.484375 0,-0.296875 0,-0.375 0,-0.859375 -0.39062,-1.203125 -0.54688,-0.484375 -1.60938,-0.484375 -0.98437,0 -1.46875,0.359375 -0.46875,0.34375 -0.6875,1.21875 l -1.375,-0.1875 q 0.1875,-0.875 0.60938,-1.421875 0.4375,-0.546875 1.25,-0.828125 0.8125,-0.296875 1.875,-0.296875 1.0625,0 1.71875,0.25 0.67187,0.25 0.98437,0.625 0.3125,0.375 0.4375,0.953125 0.0781,0.359375 0.0781,1.296875 v 1.875 q 0,1.96875 0.0781,2.484375 0.0937,0.515625 0.35938,1 h -1.46875 q -0.21875,-0.4375 -0.28125,-1.03125 z m -0.10938,-3.140625 q -0.76562,0.3125 -2.29687,0.53125 -0.875,0.125 -1.23438,0.28125 -0.35937,0.15625 -0.5625,0.46875 -0.1875,0.296875 -0.1875,0.65625 0,0.5625 0.42188,0.9375 0.4375,0.375 1.25,0.375 0.8125,0 1.4375,-0.34375 0.64062,-0.359375 0.9375,-0.984375 0.23437,-0.46875 0.23437,-1.40625 z m 3.60156,4.171875 v -8.296875 h 1.26563 v 1.171875 q 0.90625,-1.359375 2.64058,-1.359375 0.75,0 1.375,0.265625 0.625,0.265625 0.9375,0.703125 0.3125,0.4375 0.4375,1.046875 0.0781,0.390625 0.0781,1.359375 v 5.109375 h -1.40625 v -5.046875 q 0,-0.859375 -0.17187,-1.28125 -0.15625,-0.4375 -0.57813,-0.6875 -0.40625,-0.25 -0.96872,-0.25 -0.90625,0 -1.5625,0.578125 -0.64063,0.5625 -0.64063,2.15625 v 4.53125 z m 8.89841,0 v -8.296875 h 1.26563 v 1.171875 q 0.90625,-1.359375 2.64062,-1.359375 0.75,0 1.375,0.265625 0.625,0.265625 0.9375,0.703125 0.3125,0.4375 0.4375,1.046875 0.0781,0.390625 0.0781,1.359375 v 5.109375 h -1.40625 v -5.046875 q 0,-0.859375 -0.17188,-1.28125 -0.15625,-0.4375 -0.57812,-0.6875 -0.40625,-0.25 -0.96875,-0.25 -0.90625,0 -1.5625,0.578125 -0.64063,0.5625 -0.64063,2.15625 v 4.53125 z m 8.89844,-9.84375 v -1.609375 h 1.40625 v 1.609375 z m 0,9.84375 v -8.296875 h 1.40625 v 8.296875 z m 3.55469,0 v -8.296875 h 1.26562 v 1.171875 q 0.90625,-1.359375 2.64063,-1.359375 0.75,0 1.375,0.265625 0.625,0.265625 0.9375,0.703125 0.3125,0.4375 0.4375,1.046875 0.0781,0.390625 0.0781,1.359375 v 5.109375 h -1.40625 v -5.046875 q 0,-0.859375 -0.17187,-1.28125 -0.15625,-0.4375 -0.57813,-0.6875 -0.40625,-0.25 -0.96875,-0.25 -0.90625,0 -1.5625,0.578125 -0.64062,0.5625 -0.64062,2.15625 v 4.53125 z m 8.63281,0.6875 1.375,0.203125 q 0.0781,0.640625 0.46875,0.921875 0.53125,0.390625 1.4375,0.390625 0.96875,0 1.5,-0.390625 0.53125,-0.390625 0.71875,-1.09375 0.10937,-0.421875 0.10937,-1.8125 -0.92187,1.09375 -2.29687,1.09375 -1.71875,0 -2.65625,-1.234375 -0.9375,-1.234375 -0.9375,-2.96875 0,-1.1875 0.42187,-2.1875 0.4375,-1 1.25,-1.546875 0.82813,-0.546875 1.92188,-0.546875 1.46875,0 2.42187,1.1875 v -1 h 1.29688 v 7.171875 q 0,1.9375 -0.39063,2.75 -0.39062,0.8125 -1.25,1.28125 -0.85937,0.46875 -2.10937,0.46875 -1.48438,0 -2.40625,-0.671875 -0.90625,-0.671875 -0.875,-2.015625 z m 1.17187,-4.984375 q 0,1.625 0.64063,2.375 0.65625,0.75 1.625,0.75 0.96875,0 1.625,-0.734375 0.65625,-0.75 0.65625,-2.34375 0,-1.53125 -0.67188,-2.296875 -0.67187,-0.78125 -1.625,-0.78125 -0.9375,0 -1.59375,0.765625 -0.65625,0.765625 -0.65625,2.265625 z"
     fill-rule="nonzero"
     id="path47" />
  <path
     fill="#000000"
     d="m 269.32961,88.836378 v -8.296875 h 1.26562 v 1.25 q 0.48438,-0.875 0.89063,-1.15625 0.40625,-0.28125 0.90625,-0.28125 0.70312,0 1.4375,0.453125 l -0.48438,1.296875 q -0.51562,-0.296875 -1.03125,-0.296875 -0.45312,0 -0.82812,0.28125 -0.35938,0.265625 -0.51563,0.765625 -0.23437,0.75 -0.23437,1.640625 v 4.34375 z m 11.01562,-2.67188 1.45313,0.17188 q -0.34375,1.28125 -1.28125,1.98437 -0.92188,0.70313 -2.35938,0.70313 -1.82812,0 -2.89062,-1.125 -1.0625,-1.125 -1.0625,-3.14063 0,-2.093745 1.07812,-3.249995 1.07813,-1.15625 2.79688,-1.15625 1.65625,0 2.70312,1.140625 1.0625,1.125 1.0625,3.17187 0,0.125 0,0.375 h -6.1875 q 0.0781,1.375 0.76563,2.10938 0.70312,0.71875 1.73437,0.71875 0.78125,0 1.32813,-0.40625 0.54687,-0.40625 0.85937,-1.29688 z m -4.60937,-2.281245 h 4.625 q -0.0937,-1.046875 -0.53125,-1.5625 -0.67188,-0.8125 -1.73438,-0.8125 -0.96875,0 -1.64062,0.65625 -0.65625,0.640625 -0.71875,1.71875 z m 7.80468,4.953125 V 77.383253 h 1.40625 v 11.453125 z m 9.25779,-2.67188 1.45312,0.17188 q -0.34375,1.28125 -1.28125,1.98437 -0.92187,0.70313 -2.35934,0.70313 -1.82813,0 -2.89063,-1.125 -1.0625,-1.125 -1.0625,-3.14063 0,-2.093745 1.07813,-3.249995 1.07812,-1.15625 2.79687,-1.15625 1.65622,0 2.7031,1.140625 1.0625,1.125 1.0625,3.17187 0,0.125 0,0.375 h -6.18747 q 0.0781,1.375 0.76562,2.10938 0.70313,0.71875 1.73438,0.71875 0.78122,0 1.32809,-0.40625 0.54688,-0.40625 0.85938,-1.29688 z m -4.60935,-2.281245 h 4.62497 q -0.0937,-1.046875 -0.53125,-1.5625 -0.67187,-0.8125 -1.73434,-0.8125 -0.96875,0 -1.64063,0.65625 -0.65625,0.640625 -0.71875,1.71875 z m 13.24216,3.921875 q -0.78125,0.67187 -1.5,0.95312 -0.71875,0.26563 -1.54687,0.26563 -1.375,0 -2.10938,-0.67188 -0.73437,-0.67187 -0.73437,-1.70312 0,-0.60938 0.28125,-1.10938 0.28125,-0.51562 0.71875,-0.8125 0.45312,-0.312495 1.01562,-0.468745 0.42188,-0.109375 1.25,-0.203125 1.70313,-0.203125 2.51563,-0.484375 0,-0.296875 0,-0.375 0,-0.859375 -0.39063,-1.203125 -0.54687,-0.484375 -1.60937,-0.484375 -0.98438,0 -1.46875,0.359375 -0.46875,0.34375 -0.6875,1.21875 l -1.375,-0.1875 q 0.1875,-0.875 0.60937,-1.421875 0.4375,-0.546875 1.25,-0.828125 0.8125,-0.296875 1.875,-0.296875 1.0625,0 1.71875,0.25 0.67188,0.25 0.98438,0.625 0.3125,0.375 0.4375,0.953125 0.0781,0.359375 0.0781,1.296875 v 1.874995 q 0,1.96875 0.0781,2.48438 0.0937,0.51562 0.35937,1 h -1.46875 q -0.21875,-0.4375 -0.28125,-1.03125 z m -0.10937,-3.14063 q -0.76563,0.3125 -2.29688,0.53125 -0.875,0.125 -1.23437,0.28125 -0.35938,0.15625 -0.5625,0.46875 -0.1875,0.29688 -0.1875,0.65625 0,0.5625 0.42187,0.9375 0.4375,0.375 1.25,0.375 0.8125,0 1.4375,-0.34375 0.64063,-0.35937 0.9375,-0.98437 0.23438,-0.46875 0.23438,-1.40625 z m 3.03906,1.6875 1.39062,-0.21875 q 0.10938,0.84375 0.64063,1.29688 0.54687,0.4375 1.5,0.4375 0.96875,0 1.4375,-0.39063 0.46875,-0.40625 0.46875,-0.9375 0,-0.46875 -0.40625,-0.75 -0.29688,-0.1875 -1.4375,-0.46875 -1.54688,-0.39062 -2.15625,-0.67187 -0.59375,-0.296875 -0.90625,-0.796875 -0.29688,-0.5 -0.29688,-1.109375 0,-0.5625 0.25,-1.03125 0.25,-0.46875 0.6875,-0.78125 0.32813,-0.25 0.89063,-0.40625 0.57812,-0.171875 1.21875,-0.171875 0.98437,0 1.71875,0.28125 0.73437,0.28125 1.07812,0.765625 0.35938,0.46875 0.5,1.28125 l -1.375,0.1875 q -0.0937,-0.640625 -0.54687,-1 -0.45313,-0.359375 -1.26563,-0.359375 -0.96875,0 -1.39062,0.328125 -0.40625,0.3125 -0.40625,0.734375 0,0.28125 0.17187,0.5 0.17188,0.21875 0.53125,0.375 0.21875,0.07813 1.25,0.359375 1.48438,0.390625 2.07813,0.65625 0.59375,0.25 0.92187,0.73437 0.34375,0.48438 0.34375,1.20313 0,0.70312 -0.42187,1.32812 -0.40625,0.60938 -1.1875,0.95313 -0.76563,0.34375 -1.73438,0.34375 -1.625,0 -2.46875,-0.67188 -0.84375,-0.67187 -1.07812,-2 z m 14.23437,-0.1875 1.45313,0.17188 q -0.34375,1.28125 -1.28125,1.98437 -0.92188,0.70313 -2.35938,0.70313 -1.82812,0 -2.89062,-1.125 -1.0625,-1.125 -1.0625,-3.14063 0,-2.093745 1.07812,-3.249995 1.07813,-1.15625 2.79688,-1.15625 1.65625,0 2.70312,1.140625 1.0625,1.125 1.0625,3.17187 0,0.125 0,0.375 h -6.1875 q 0.0781,1.375 0.76563,2.10938 0.70312,0.71875 1.73437,0.71875 0.78125,0 1.32813,-0.40625 0.54687,-0.40625 0.85937,-1.29688 z m -4.60937,-2.281245 h 4.625 q -0.0937,-1.046875 -0.53125,-1.5625 -0.67188,-0.8125 -1.73438,-0.8125 -0.96875,0 -1.64062,0.65625 -0.65625,0.640625 -0.71875,1.71875 z"
     fill-rule="nonzero"
     id="path49" />
  <path
     fill="#d9ead3"
     d="M 227.21391,0.5 H 361.82809 V 48.468506 H 227.21391 Z"
     fill-rule="evenodd"
     id="path51" />
  <path
     stroke="#000000"
     stroke-width="1"
     stroke-linejoin="round"
     stroke-linecap="butt"
     d="M 227.21391,0.5 H 361.82809 V 48.468506 H 227.21391 Z"
     fill-rule="evenodd"
     id="path53" />
  <path
     fill="#000000"
     d="m 246.23146,16.565502 q 0,-1.453125 0.4375,-2.4375 0.32812,-0.734375 0.89062,-1.3125 0.5625,-0.578125 1.23438,-0.859375 0.89062,-0.375 2.04687,-0.375 2.10938,0 3.375,1.3125 1.26563,1.296875 1.26563,3.640625 0,2.296873 -1.25,3.609373 -1.25,1.296875 -3.35938,1.296875 -2.125,0 -3.39062,-1.296875 -1.25,-1.296875 -1.25,-3.578123 z m 1.98437,-0.0625 q 0,1.624998 0.75,2.468748 0.75,0.828125 1.90625,0.828125 1.14063,0 1.875,-0.828125 0.75,-0.828125 0.75,-2.484373 0,-1.640625 -0.71875,-2.453125 -0.71875,-0.8125 -1.90625,-0.8125 -1.20312,0 -1.9375,0.828125 -0.71875,0.8125 -0.71875,2.453125 z m 14.88267,1.281248 1.85937,0.578125 q -0.42187,1.5625 -1.42187,2.328125 -1,0.75 -2.53125,0.75 -1.90625,0 -3.14063,-1.296875 -1.21875,-1.296875 -1.21875,-3.546875 0,-2.374998 1.23438,-3.687498 1.23437,-1.328125 3.23437,-1.328125 1.75,0 2.84375,1.03125 0.65625,0.609375 0.98438,1.765625 l -1.90625,0.453125 q -0.17188,-0.75 -0.71875,-1.171875 -0.53125,-0.4375 -1.29688,-0.4375 -1.0625,0 -1.73437,0.765625 -0.65625,0.765625 -0.65625,2.46875 0,1.812498 0.65625,2.578123 0.65625,0.765625 1.6875,0.765625 0.78125,0 1.32812,-0.484375 0.54688,-0.484375 0.79688,-1.53125 z m 3.51578,-6.046873 h 3.51562 q 1.1875,0 1.8125,0.1875 0.84375,0.25 1.4375,0.890625 0.60938,0.625 0.92188,1.546875 0.3125,0.90625 0.3125,2.249998 0,1.171875 -0.29688,2.015625 -0.35937,1.046875 -1.03125,1.6875 -0.5,0.5 -1.34375,0.765625 -0.64062,0.203125 -1.70312,0.203125 h -3.625 z m 1.92187,1.625 v 6.312498 h 1.4375 q 0.8125,0 1.17188,-0.09375 0.46875,-0.109375 0.76562,-0.390625 0.3125,-0.28125 0.5,-0.921875 0.20313,-0.640625 0.20313,-1.749998 0,-1.109375 -0.20313,-1.6875 -0.1875,-0.59375 -0.54687,-0.921875 -0.34375,-0.34375 -0.875,-0.453125 -0.40625,-0.09375 -1.59375,-0.09375 z m 7.21891,4.812498 1.875,-0.171875 q 0.17188,0.9375 0.6875,1.390625 0.51563,0.4375 1.39063,0.4375 0.9375,0 1.40625,-0.390625 0.46875,-0.40625 0.46875,-0.921875 0,-0.34375 -0.20313,-0.578125 -0.1875,-0.234375 -0.6875,-0.421875 -0.34375,-0.109375 -1.54687,-0.40625 -1.54688,-0.390625 -2.17188,-0.953123 -0.875,-0.78125 -0.875,-1.921875 0,-0.71875 0.40625,-1.359375 0.42188,-0.640625 1.1875,-0.96875 0.78125,-0.328125 1.89063,-0.328125 1.79687,0 2.70312,0.796875 0.90625,0.78125 0.95313,2.09375 l -1.92188,0.07813 q -0.125,-0.734375 -0.53125,-1.046875 -0.40625,-0.328125 -1.23437,-0.328125 -0.82813,0 -1.3125,0.34375 -0.29688,0.21875 -0.29688,0.59375 0,0.34375 0.28125,0.578125 0.35938,0.3125 1.76563,0.640625 1.40625,0.328125 2.07812,0.6875 0.6875,0.359375 1.0625,0.968748 0.375,0.609375 0.375,1.515625 0,0.828125 -0.45312,1.546875 -0.45313,0.703125 -1.29688,1.0625 -0.82812,0.34375 -2.0625,0.34375 -1.8125,0 -2.78125,-0.828125 -0.96875,-0.84375 -1.15625,-2.453125 z m 13.01461,-3.796873 h 1.70313 v 1.015625 q 0.32812,-0.53125 0.89062,-0.84375 0.57813,-0.328125 1.26563,-0.328125 1.20312,0 2.03125,0.9375 0.84375,0.9375 0.84375,2.624998 0,1.734375 -0.84375,2.703125 -0.84375,0.953125 -2.04688,0.953125 -0.57812,0 -1.04687,-0.21875 -0.45313,-0.234375 -0.96875,-0.796875 v 3.484375 h -1.82813 z m 1.8125,3.328123 q 0,1.171875 0.45313,1.734375 0.46875,0.546875 1.125,0.546875 0.64062,0 1.0625,-0.5 0.42187,-0.515625 0.42187,-1.6875 0,-1.078125 -0.4375,-1.609373 -0.4375,-0.53125 -1.07812,-0.53125 -0.67188,0 -1.10938,0.515625 -0.4375,0.515623 -0.4375,1.531248 z m 6.37573,3.578125 v -9.546873 h 1.82813 v 9.546873 z m 5.078,-4.796873 -1.67187,-0.3125 q 0.28125,-1 0.96875,-1.46875 0.6875,-0.484375 2.03125,-0.484375 1.21875,0 1.8125,0.296875 0.60937,0.28125 0.84375,0.734375 0.25,0.4375 0.25,1.624998 l -0.0156,2.140625 q 0,0.90625 0.0781,1.34375 0.0937,0.421875 0.34375,0.921875 h -1.8125 q -0.0781,-0.1875 -0.17188,-0.546875 -0.0469,-0.15625 -0.0781,-0.203125 -0.46875,0.453125 -1,0.6875 -0.53125,0.21875 -1.14063,0.21875 -1.0625,0 -1.6875,-0.578125 -0.60937,-0.578125 -0.60937,-1.46875 0,-0.578125 0.28125,-1.03125 0.28125,-0.46875 0.78125,-0.703125 0.51562,-0.25 1.46875,-0.4375 1.28125,-0.234375 1.76562,-0.453125 V 16.59675 q 0,-0.531248 -0.26562,-0.749998 -0.25,-0.234375 -0.96875,-0.234375 -0.48438,0 -0.76563,0.203125 -0.26562,0.1875 -0.4375,0.671875 z m 2.4375,1.484373 q -0.34375,0.109375 -1.10937,0.28125 -0.76563,0.15625 -1,0.3125 -0.35938,0.25 -0.35938,0.640625 0,0.390625 0.28125,0.671875 0.29688,0.28125 0.73438,0.28125 0.5,0 0.95312,-0.328125 0.32813,-0.25 0.4375,-0.609375 0.0625,-0.234375 0.0625,-0.890625 z m 9.89685,3.3125 h -1.82812 V 17.753 q 0,-1.109375 -0.125,-1.437498 -0.10938,-0.328125 -0.375,-0.515625 -0.26563,-0.1875 -0.64063,-0.1875 -0.46875,0 -0.85937,0.265625 -0.375,0.265625 -0.51563,0.703125 -0.14062,0.421873 -0.14062,1.578123 v 3.125 h -1.82813 v -6.906248 h 1.70313 v 1.015625 q 0.90625,-1.171875 2.28125,-1.171875 0.60937,0 1.10937,0.21875 0.5,0.21875 0.75,0.5625 0.26563,0.328125 0.35938,0.765625 0.10937,0.421875 0.10937,1.218748 z m 8.14136,0 h -1.82812 V 17.753 q 0,-1.109375 -0.125,-1.437498 -0.10938,-0.328125 -0.375,-0.515625 -0.26563,-0.1875 -0.64063,-0.1875 -0.46875,0 -0.85937,0.265625 -0.375,0.265625 -0.51563,0.703125 -0.14062,0.421873 -0.14062,1.578123 v 3.125 h -1.82813 v -6.906248 h 1.70313 v 1.015625 q 0.90625,-1.171875 2.28125,-1.171875 0.60937,0 1.10937,0.21875 0.5,0.21875 0.75,0.5625 0.26563,0.328125 0.35938,0.765625 0.10937,0.421875 0.10937,1.218748 z m 1.84448,-7.843748 v -1.703125 h 1.82813 v 1.703125 z m 0,7.843748 v -6.906248 h 1.82813 v 6.906248 z m 9.99985,0 h -1.82812 V 17.753 q 0,-1.109375 -0.125,-1.437498 -0.10938,-0.328125 -0.375,-0.515625 -0.26563,-0.1875 -0.64063,-0.1875 -0.46875,0 -0.85937,0.265625 -0.375,0.265625 -0.51563,0.703125 -0.14062,0.421873 -0.14062,1.578123 v 3.125 h -1.82813 v -6.906248 h 1.70313 v 1.015625 q 0.90625,-1.171875 2.28125,-1.171875 0.60937,0 1.10937,0.21875 0.5,0.21875 0.75,0.5625 0.26563,0.328125 0.35938,0.765625 0.10937,0.421875 0.10937,1.218748 z m 1.67261,0.453125 2.09375,0.25 q 0.0469,0.375 0.25,0.5 0.25,0.203125 0.8125,0.203125 0.71875,0 1.07812,-0.21875 0.23438,-0.140625 0.35938,-0.453125 0.0781,-0.234375 0.0781,-0.84375 V 20.15925 q -0.8125,1.125 -2.0625,1.125 -1.39062,0 -2.20312,-1.171875 -0.64063,-0.9375 -0.64063,-2.328125 0,-1.734373 0.82813,-2.640623 0.84375,-0.921875 2.09375,-0.921875 1.28125,0 2.10937,1.125 v -0.96875 h 1.70313 v 6.203123 q 0,1.21875 -0.20313,1.8125 -0.1875,0.609375 -0.5625,0.953125 -0.35937,0.359375 -0.96875,0.546875 -0.60937,0.203125 -1.53125,0.203125 -1.76562,0 -2.5,-0.609375 -0.73437,-0.609375 -0.73437,-1.53125 0,-0.09375 0,-0.21875 z m 1.64062,-4.046875 q 0,1.09375 0.42188,1.609375 0.4375,0.5 1.04687,0.5 0.67188,0 1.14063,-0.515625 0.46875,-0.53125 0.46875,-1.546875 0,-1.078125 -0.45313,-1.593748 -0.4375,-0.53125 -1.10937,-0.53125 -0.65625,0 -1.09375,0.515625 -0.42188,0.515623 -0.42188,1.562498 z"
     fill-rule="nonzero"
     id="path55" />
  <path
     fill="#000000"
     d="m 269.86754,30.378 h 1.70313 v 1.015625 q 0.32812,-0.53125 0.89062,-0.84375 0.57813,-0.328125 1.26563,-0.328125 1.20312,0 2.03125,0.9375 0.84375,0.9375 0.84375,2.625 0,1.734375 -0.84375,2.703125 -0.84375,0.953125 -2.04688,0.953125 -0.57812,0 -1.04687,-0.21875 -0.45313,-0.234375 -0.96875,-0.796875 v 3.484375 h -1.82813 z m 1.8125,3.328125 q 0,1.171875 0.45313,1.734375 0.46875,0.546875 1.125,0.546875 0.64062,0 1.0625,-0.5 0.42187,-0.515625 0.42187,-1.6875 0,-1.078125 -0.4375,-1.609375 -0.4375,-0.53125 -1.07812,-0.53125 -0.67188,0 -1.10938,0.515625 -0.4375,0.515625 -0.4375,1.53125 z m 8.12573,3.578125 h -1.82812 V 30.378 h 1.70312 v 0.984375 q 0.4375,-0.703125 0.78125,-0.921875 0.34375,-0.21875 0.79688,-0.21875 0.625,0 1.20312,0.34375 l -0.5625,1.59375 q -0.46875,-0.296875 -0.85937,-0.296875 -0.39063,0 -0.65625,0.21875 -0.26563,0.203125 -0.42188,0.765625 -0.15625,0.546875 -0.15625,2.296875 z m 3.01492,-3.546875 q 0,-0.921875 0.45313,-1.765625 0.45312,-0.859375 1.26562,-1.296875 0.82813,-0.453125 1.84375,-0.453125 1.5625,0 2.5625,1.015625 1.01563,1.015625 1.01563,2.578125 0,1.5625 -1.01563,2.59375 -1.01562,1.03125 -2.54687,1.03125 -0.95313,0 -1.8125,-0.421875 -0.85938,-0.4375 -1.3125,-1.265625 -0.45313,-0.828125 -0.45313,-2.015625 z m 1.875,0.09375 q 0,1.03125 0.48438,1.578125 0.5,0.546875 1.20312,0.546875 0.71875,0 1.20313,-0.546875 0.48437,-0.546875 0.48437,-1.59375 0,-1.015625 -0.48437,-1.5625 -0.48438,-0.546875 -1.20313,-0.546875 -0.70312,0 -1.20312,0.546875 -0.48438,0.546875 -0.48438,1.578125 z m 12.71949,-1.421875 -1.79687,0.328125 q -0.0937,-0.53125 -0.42188,-0.796875 -0.32812,-0.28125 -0.82812,-0.28125 -0.6875,0 -1.09375,0.46875 -0.40625,0.46875 -0.40625,1.578125 0,1.234375 0.40625,1.75 0.42187,0.5 1.10937,0.5 0.53125,0 0.85938,-0.296875 0.32812,-0.296875 0.46875,-1.03125 l 1.79687,0.3125 q -0.28125,1.234375 -1.07812,1.875 -0.79688,0.625 -2.125,0.625 -1.51563,0 -2.42188,-0.953125 -0.90625,-0.953125 -0.90625,-2.65625 0,-1.703125 0.90625,-2.65625 0.90625,-0.953125 2.45313,-0.953125 1.26562,0 2,0.546875 0.75,0.53125 1.07812,1.640625 z m 5.38122,2.671875 1.82813,0.3125 q -0.34375,1 -1.10938,1.53125 -0.76562,0.515625 -1.89062,0.515625 -1.8125,0 -2.67188,-1.171875 -0.6875,-0.953125 -0.6875,-2.390625 0,-1.71875 0.89063,-2.6875 0.90625,-0.96875 2.28125,-0.96875 1.54687,0 2.4375,1.015625 0.89062,1.015625 0.84375,3.125 h -4.57813 q 0.0156,0.8125 0.4375,1.265625 0.42188,0.453125 1.0625,0.453125 0.42188,0 0.71875,-0.234375 0.29688,-0.234375 0.4375,-0.765625 z m 0.10938,-1.84375 q -0.0156,-0.796875 -0.40625,-1.203125 -0.39063,-0.421875 -0.95313,-0.421875 -0.59375,0 -0.98437,0.4375 -0.39063,0.4375 -0.39063,1.1875 z m 2.66247,2.078125 1.82813,-0.28125 q 0.125,0.53125 0.48437,0.8125 0.35938,0.265625 1,0.265625 0.70313,0 1.0625,-0.25 0.25,-0.1875 0.25,-0.484375 0,-0.21875 -0.14062,-0.359375 -0.125,-0.125 -0.60938,-0.234375 -2.20312,-0.484375 -2.79687,-0.890625 -0.82813,-0.5625 -0.82813,-1.5625 0,-0.890625 0.70313,-1.5 0.71875,-0.609375 2.20312,-0.609375 1.42188,0 2.10938,0.46875 0.70312,0.453125 0.95312,1.359375 l -1.71875,0.3125 q -0.10937,-0.40625 -0.42187,-0.609375 -0.3125,-0.21875 -0.89063,-0.21875 -0.71875,0 -1.03125,0.203125 -0.20312,0.140625 -0.20312,0.359375 0,0.203125 0.1875,0.34375 0.23437,0.171875 1.6875,0.515625 1.46875,0.328125 2.0625,0.8125 0.5625,0.484375 0.5625,1.359375 0,0.953125 -0.79688,1.640625 -0.78125,0.671875 -2.34375,0.671875 -1.40625,0 -2.23437,-0.5625 -0.82813,-0.578125 -1.07813,-1.5625 z m 7.41248,0 1.82812,-0.28125 q 0.125,0.53125 0.48438,0.8125 0.35937,0.265625 1,0.265625 0.70312,0 1.0625,-0.25 0.25,-0.1875 0.25,-0.484375 0,-0.21875 -0.14063,-0.359375 -0.125,-0.125 -0.60937,-0.234375 -2.20313,-0.484375 -2.79688,-0.890625 -0.82812,-0.5625 -0.82812,-1.5625 0,-0.890625 0.70312,-1.5 0.71875,-0.609375 2.20313,-0.609375 1.42187,0 2.10937,0.46875 0.70313,0.453125 0.95313,1.359375 l -1.71875,0.3125 q -0.10938,-0.40625 -0.42188,-0.609375 -0.3125,-0.21875 -0.89062,-0.21875 -0.71875,0 -1.03125,0.203125 -0.20313,0.140625 -0.20313,0.359375 0,0.203125 0.1875,0.34375 0.23438,0.171875 1.6875,0.515625 1.46875,0.328125 2.0625,0.8125 0.5625,0.484375 0.5625,1.359375 0,0.953125 -0.79687,1.640625 -0.78125,0.671875 -2.34375,0.671875 -1.40625,0 -2.23438,-0.5625 -0.82812,-0.578125 -1.07812,-1.5625 z"
     fill-rule="nonzero"
     id="path57" />
  <path
     fill="#d9d2e9"
     d="M 227.19731,174.91469 H 361.843 v 48.39876 l -9.67998,9.67999 H 227.19731 Z"
     fill-rule="evenodd"
     id="path59" />
  <path
     fill="#ada7ba"
     d="m 352.163,232.99345 1.936,-7.74399 7.74399,-1.936 z"
     fill-rule="evenodd"
     id="path61" />
  <path
     fill="#000000"
     fill-opacity="0"
     d="m 352.163,232.99345 1.936,-7.74399 7.74399,-1.936 -9.67999,9.67999 H 227.1973 V 174.9147 H 361.843 v 48.39876"
     fill-rule="evenodd"
     id="path63" />
  <path
     stroke="#000000"
     stroke-width="1"
     stroke-linejoin="round"
     stroke-linecap="butt"
     d="m 352.163,232.99345 1.936,-7.74399 7.74399,-1.936 -9.67999,9.67999 H 227.1973 V 174.9147 H 361.843 v 48.39876"
     fill-rule="evenodd"
     id="path65" />
  <path
     fill="#000000"
     d="m 264.61781,199.27469 v -11.45312 h 4.32812 q 1.14063,0 1.73438,0.10937 0.84375,0.14063 1.40625,0.53125 0.57812,0.39063 0.92187,1.10938 0.35938,0.70312 0.35938,1.5625 0,1.45312 -0.9375,2.46875 -0.92188,1.01562 -3.35938,1.01562 h -2.9375 v 4.65625 z m 1.51562,-6.01562 h 2.96875 q 1.46875,0 2.07813,-0.54688 0.625,-0.54687 0.625,-1.53125 0,-0.71875 -0.375,-1.23437 -0.35938,-0.51563 -0.95313,-0.67188 -0.375,-0.10937 -1.40625,-0.10937 h -2.9375 z m 8.95313,6.01562 v -11.45312 h 1.40625 v 11.45312 z m 8.99219,-1.03125 q -0.78125,0.67188 -1.5,0.95313 -0.71875,0.26562 -1.54688,0.26562 -1.375,0 -2.10937,-0.67187 -0.73438,-0.67188 -0.73438,-1.70313 0,-0.60937 0.28125,-1.10937 0.28125,-0.51563 0.71875,-0.8125 0.45313,-0.3125 1.01563,-0.46875 0.42187,-0.10938 1.25,-0.20313 1.70312,-0.20312 2.51562,-0.48437 0,-0.29688 0,-0.375 0,-0.85938 -0.39062,-1.20313 -0.54688,-0.48437 -1.60938,-0.48437 -0.98437,0 -1.46875,0.35937 -0.46875,0.34375 -0.6875,1.21875 l -1.375,-0.1875 q 0.1875,-0.875 0.60938,-1.42187 0.4375,-0.54688 1.25,-0.82813 0.8125,-0.29687 1.875,-0.29687 1.0625,0 1.71875,0.25 0.67187,0.25 0.98437,0.625 0.3125,0.375 0.4375,0.95312 0.0781,0.35938 0.0781,1.29688 v 1.875 q 0,1.96875 0.0781,2.48437 0.0937,0.51563 0.35938,1 h -1.46875 q -0.21875,-0.4375 -0.28125,-1.03125 z m -0.10938,-3.14062 q -0.76562,0.3125 -2.29687,0.53125 -0.875,0.125 -1.23438,0.28125 -0.35937,0.15625 -0.5625,0.46875 -0.1875,0.29687 -0.1875,0.65625 0,0.5625 0.42188,0.9375 0.4375,0.375 1.25,0.375 0.8125,0 1.4375,-0.34375 0.64062,-0.35938 0.9375,-0.98438 0.23437,-0.46875 0.23437,-1.40625 z m 3.60156,4.17187 v -8.29687 h 1.26563 v 1.17187 q 0.90625,-1.35937 2.64062,-1.35937 0.75,0 1.375,0.26562 0.625,0.26563 0.9375,0.70313 0.3125,0.4375 0.4375,1.04687 0.0781,0.39063 0.0781,1.35938 v 5.10937 h -1.40625 v -5.04687 q 0,-0.85938 -0.17188,-1.28125 -0.15625,-0.4375 -0.57812,-0.6875 -0.40625,-0.25 -0.96875,-0.25 -0.90625,0 -1.5625,0.57812 -0.64063,0.5625 -0.64063,2.15625 v 4.53125 z m 8.89844,0 v -8.29687 h 1.26563 v 1.17187 q 0.90625,-1.35937 2.64062,-1.35937 0.75,0 1.375,0.26562 0.625,0.26563 0.9375,0.70313 0.3125,0.4375 0.4375,1.04687 0.0781,0.39063 0.0781,1.35938 v 5.10937 h -1.40625 v -5.04687 q 0,-0.85938 -0.17188,-1.28125 -0.15625,-0.4375 -0.57812,-0.6875 -0.40625,-0.25 -0.96875,-0.25 -0.90625,0 -1.5625,0.57812 -0.64063,0.5625 -0.64063,2.15625 v 4.53125 z m 8.89844,-9.84375 v -1.60937 h 1.40625 v 1.60937 z m 0,9.84375 v -8.29687 h 1.40625 v 8.29687 z m 3.55469,0 v -8.29687 h 1.26562 v 1.17187 q 0.90625,-1.35937 2.64063,-1.35937 0.75,0 1.375,0.26562 0.625,0.26563 0.9375,0.70313 0.3125,0.4375 0.4375,1.04687 0.0781,0.39063 0.0781,1.35938 v 5.10937 h -1.40625 v -5.04687 q 0,-0.85938 -0.17187,-1.28125 -0.15625,-0.4375 -0.57813,-0.6875 -0.40625,-0.25 -0.96875,-0.25 -0.90625,0 -1.5625,0.57812 -0.64062,0.5625 -0.64062,2.15625 v 4.53125 z m 8.63281,0.6875 1.375,0.20313 q 0.0781,0.64062 0.46875,0.92187 0.53125,0.39063 1.4375,0.39063 0.96875,0 1.5,-0.39063 0.53125,-0.39062 0.71875,-1.09375 0.10937,-0.42187 0.10937,-1.8125 -0.92187,1.09375 -2.29687,1.09375 -1.71875,0 -2.65625,-1.23437 -0.9375,-1.23438 -0.9375,-2.96875 0,-1.1875 0.42187,-2.1875 0.4375,-1 1.25,-1.54688 0.82813,-0.54687 1.92188,-0.54687 1.46875,0 2.42187,1.1875 v -1 h 1.29688 v 7.17187 q 0,1.9375 -0.39063,2.75 -0.39062,0.8125 -1.25,1.28125 -0.85937,0.46875 -2.10937,0.46875 -1.48438,0 -2.40625,-0.67187 -0.90625,-0.67188 -0.875,-2.01563 z m 1.17187,-4.98437 q 0,1.625 0.64063,2.375 0.65625,0.75 1.625,0.75 0.96875,0 1.625,-0.73438 0.65625,-0.75 0.65625,-2.34375 0,-1.53125 -0.67188,-2.29687 -0.67187,-0.78125 -1.625,-0.78125 -0.9375,0 -1.59375,0.76562 -0.65625,0.76563 -0.65625,2.26563 z"
     fill-rule="nonzero"
     id="path67" />
  <path
     fill="#000000"
     d="m 269.32875,218.27469 v -8.29687 h 1.26563 v 1.25 q 0.48437,-0.875 0.89062,-1.15625 0.40625,-0.28125 0.90625,-0.28125 0.70313,0 1.4375,0.45312 l -0.48437,1.29688 q -0.51563,-0.29688 -1.03125,-0.29688 -0.45313,0 -0.82813,0.28125 -0.35937,0.26563 -0.51562,0.76563 -0.23438,0.75 -0.23438,1.64062 v 4.34375 z m 11.01563,-2.67187 1.45312,0.17187 q -0.34375,1.28125 -1.28125,1.98438 -0.92187,0.70312 -2.35937,0.70312 -1.82813,0 -2.89063,-1.125 -1.0625,-1.125 -1.0625,-3.14062 0,-2.09375 1.07813,-3.25 1.07812,-1.15625 2.79687,-1.15625 1.65625,0 2.70313,1.14062 1.0625,1.125 1.0625,3.17188 0,0.125 0,0.375 h -6.1875 q 0.0781,1.375 0.76562,2.10937 0.70313,0.71875 1.73438,0.71875 0.78125,0 1.32812,-0.40625 0.54688,-0.40625 0.85938,-1.29687 z m -4.60938,-2.28125 h 4.625 q -0.0937,-1.04688 -0.53125,-1.5625 -0.67187,-0.8125 -1.73437,-0.8125 -0.96875,0 -1.64063,0.65625 -0.65625,0.64062 -0.71875,1.71875 z m 7.80469,4.95312 v -11.45312 h 1.40625 v 11.45312 z m 9.25781,-2.67187 1.45313,0.17187 q -0.34375,1.28125 -1.28125,1.98438 -0.92188,0.70312 -2.35938,0.70312 -1.82812,0 -2.89062,-1.125 -1.0625,-1.125 -1.0625,-3.14062 0,-2.09375 1.07812,-3.25 1.07813,-1.15625 2.79688,-1.15625 1.65625,0 2.70312,1.14062 1.0625,1.125 1.0625,3.17188 0,0.125 0,0.375 H 288.11 q 0.0781,1.375 0.76563,2.10937 0.70312,0.71875 1.73437,0.71875 0.78125,0 1.32813,-0.40625 0.54687,-0.40625 0.85937,-1.29687 z m -4.60937,-2.28125 h 4.625 q -0.0937,-1.04688 -0.53125,-1.5625 -0.67188,-0.8125 -1.73438,-0.8125 -0.96875,0 -1.64062,0.65625 -0.65625,0.64062 -0.71875,1.71875 z m 13.24218,3.92187 q -0.78125,0.67188 -1.5,0.95313 -0.71875,0.26562 -1.54687,0.26562 -1.375,0 -2.10938,-0.67187 -0.73437,-0.67188 -0.73437,-1.70313 0,-0.60937 0.28125,-1.10937 0.28125,-0.51563 0.71875,-0.8125 0.45312,-0.3125 1.01562,-0.46875 0.42188,-0.10938 1.25,-0.20313 1.70313,-0.20312 2.51563,-0.48437 0,-0.29688 0,-0.375 0,-0.85938 -0.39063,-1.20313 -0.54687,-0.48437 -1.60937,-0.48437 -0.98438,0 -1.46875,0.35937 -0.46875,0.34375 -0.6875,1.21875 l -1.375,-0.1875 q 0.1875,-0.875 0.60937,-1.42187 0.4375,-0.54688 1.25,-0.82813 0.8125,-0.29687 1.875,-0.29687 1.0625,0 1.71875,0.25 0.67188,0.25 0.98438,0.625 0.3125,0.375 0.4375,0.95312 0.0781,0.35938 0.0781,1.29688 v 1.875 q 0,1.96875 0.0781,2.48437 0.0937,0.51563 0.35938,1 h -1.46875 q -0.21875,-0.4375 -0.28125,-1.03125 z m -0.10937,-3.14062 q -0.76563,0.3125 -2.29688,0.53125 -0.875,0.125 -1.23437,0.28125 -0.35938,0.15625 -0.5625,0.46875 -0.1875,0.29687 -0.1875,0.65625 0,0.5625 0.42187,0.9375 0.4375,0.375 1.25,0.375 0.8125,0 1.4375,-0.34375 0.64063,-0.35938 0.9375,-0.98438 0.23438,-0.46875 0.23438,-1.40625 z m 3.03906,1.6875 1.39063,-0.21875 q 0.10937,0.84375 0.64062,1.29687 0.54688,0.4375 1.5,0.4375 0.96875,0 1.4375,-0.39062 0.46875,-0.40625 0.46875,-0.9375 0,-0.46875 -0.40625,-0.75 -0.29687,-0.1875 -1.4375,-0.46875 -1.54687,-0.39063 -2.15625,-0.67188 -0.59375,-0.29687 -0.90625,-0.79687 -0.29687,-0.5 -0.29687,-1.10938 0,-0.5625 0.25,-1.03125 0.25,-0.46875 0.6875,-0.78125 0.32812,-0.25 0.89062,-0.40625 0.57813,-0.17187 1.21875,-0.17187 0.98438,0 1.71875,0.28125 0.73438,0.28125 1.07813,0.76562 0.35937,0.46875 0.5,1.28125 l -1.375,0.1875 q -0.0937,-0.64062 -0.54688,-1 -0.45312,-0.35937 -1.26562,-0.35937 -0.96875,0 -1.39063,0.32812 -0.40625,0.3125 -0.40625,0.73438 0,0.28125 0.17188,0.5 0.17187,0.21875 0.53125,0.375 0.21875,0.0781 1.25,0.35937 1.48437,0.39063 2.07812,0.65625 0.59375,0.25 0.92188,0.73438 0.34375,0.48437 0.34375,1.20312 0,0.70313 -0.42188,1.32813 -0.40625,0.60937 -1.1875,0.95312 -0.76562,0.34375 -1.73437,0.34375 -1.625,0 -2.46875,-0.67187 -0.84375,-0.67188 -1.07813,-2 z m 14.23438,-0.1875 1.45312,0.17187 q -0.34375,1.28125 -1.28125,1.98438 -0.92187,0.70312 -2.35937,0.70312 -1.82813,0 -2.89063,-1.125 -1.0625,-1.125 -1.0625,-3.14062 0,-2.09375 1.07813,-3.25 1.07812,-1.15625 2.79687,-1.15625 1.65625,0 2.70313,1.14062 1.0625,1.125 1.0625,3.17188 0,0.125 0,0.375 h -6.1875 q 0.0781,1.375 0.76562,2.10937 0.70313,0.71875 1.73438,0.71875 0.78125,0 1.32812,-0.40625 0.54688,-0.40625 0.85938,-1.29687 z m -4.60938,-2.28125 h 4.625 q -0.0937,-1.04688 -0.53125,-1.5625 -0.67187,-0.8125 -1.73437,-0.8125 -0.96875,0 -1.64063,0.65625 -0.65625,0.64062 -0.71875,1.71875 z"
     fill-rule="nonzero"
     id="path69" />
  <path
     fill="#d9d2e9"
     d="M 227.21391,126.94619 H 361.82809 V 174.9147 H 227.21391 Z"
     fill-rule="evenodd"
     id="path71" />
  <path
     stroke="#000000"
     stroke-width="1"
     stroke-linejoin="round"
     stroke-linecap="butt"
     d="M 227.21391,126.94619 H 361.82809 V 174.9147 H 227.21391 Z"
     fill-rule="evenodd"
     id="path73" />
  <path
     fill="#000000"
     d="m 246.23146,143.01169 q 0,-1.45313 0.4375,-2.4375 0.32812,-0.73438 0.89062,-1.3125 0.5625,-0.57813 1.23438,-0.85938 0.89062,-0.375 2.04687,-0.375 2.10938,0 3.375,1.3125 1.26563,1.29688 1.26563,3.64063 0,2.29687 -1.25,3.60937 -1.25,1.29688 -3.35938,1.29688 -2.125,0 -3.39062,-1.29688 -1.25,-1.29687 -1.25,-3.57812 z m 1.98437,-0.0625 q 0,1.625 0.75,2.46875 0.75,0.82812 1.90625,0.82812 1.14063,0 1.875,-0.82812 0.75,-0.82813 0.75,-2.48438 0,-1.64062 -0.71875,-2.45312 -0.71875,-0.8125 -1.90625,-0.8125 -1.20312,0 -1.9375,0.82812 -0.71875,0.8125 -0.71875,2.45313 z m 14.88267,1.28125 1.85937,0.57812 q -0.42187,1.5625 -1.42187,2.32813 -1,0.75 -2.53125,0.75 -1.90625,0 -3.14063,-1.29688 -1.21875,-1.29687 -1.21875,-3.54687 0,-2.375 1.23438,-3.6875 1.23437,-1.32813 3.23437,-1.32813 1.75,0 2.84375,1.03125 0.65625,0.60938 0.98438,1.76563 l -1.90625,0.45312 q -0.17188,-0.75 -0.71875,-1.17187 -0.53125,-0.4375 -1.29688,-0.4375 -1.0625,0 -1.73437,0.76562 -0.65625,0.76563 -0.65625,2.46875 0,1.8125 0.65625,2.57813 0.65625,0.76562 1.6875,0.76562 0.78125,0 1.32812,-0.48437 0.54688,-0.48438 0.79688,-1.53125 z m 3.51578,-6.04688 h 3.51562 q 1.1875,0 1.8125,0.1875 0.84375,0.25 1.4375,0.89063 0.60938,0.625 0.92188,1.54687 0.3125,0.90625 0.3125,2.25 0,1.17188 -0.29688,2.01563 -0.35937,1.04687 -1.03125,1.6875 -0.5,0.5 -1.34375,0.76562 -0.64062,0.20313 -1.70312,0.20313 h -3.625 z m 1.92187,1.625 v 6.3125 h 1.4375 q 0.8125,0 1.17188,-0.0937 0.46875,-0.10937 0.76562,-0.39062 0.3125,-0.28125 0.5,-0.92188 0.20313,-0.64062 0.20313,-1.75 0,-1.10937 -0.20313,-1.6875 -0.1875,-0.59375 -0.54687,-0.92187 -0.34375,-0.34375 -0.875,-0.45313 -0.40625,-0.0937 -1.59375,-0.0937 z m 7.21891,4.8125 1.875,-0.17187 q 0.17188,0.9375 0.6875,1.39062 0.51563,0.4375 1.39063,0.4375 0.9375,0 1.40625,-0.39062 0.46875,-0.40625 0.46875,-0.92188 0,-0.34375 -0.20313,-0.57812 -0.1875,-0.23438 -0.6875,-0.42188 -0.34375,-0.10937 -1.54687,-0.40625 -1.54688,-0.39062 -2.17188,-0.95312 -0.875,-0.78125 -0.875,-1.92188 0,-0.71875 0.40625,-1.35937 0.42188,-0.64063 1.1875,-0.96875 0.78125,-0.32813 1.89063,-0.32813 1.79687,0 2.70312,0.79688 0.90625,0.78125 0.95313,2.09375 l -1.92188,0.0781 q -0.125,-0.73437 -0.53125,-1.04687 -0.40625,-0.32813 -1.23437,-0.32813 -0.82813,0 -1.3125,0.34375 -0.29688,0.21875 -0.29688,0.59375 0,0.34375 0.28125,0.57813 0.35938,0.3125 1.76563,0.64062 1.40625,0.32813 2.07812,0.6875 0.6875,0.35938 1.0625,0.96875 0.375,0.60938 0.375,1.51563 0,0.82812 -0.45312,1.54687 -0.45313,0.70313 -1.29688,1.0625 -0.82812,0.34375 -2.0625,0.34375 -1.8125,0 -2.78125,-0.82812 -0.96875,-0.84375 -1.15625,-2.45313 z m 13.01461,-3.79687 h 1.70313 v 1.01562 q 0.32812,-0.53125 0.89062,-0.84375 0.57813,-0.32812 1.26563,-0.32812 1.20312,0 2.03125,0.9375 0.84375,0.9375 0.84375,2.625 0,1.73437 -0.84375,2.70312 -0.84375,0.95313 -2.04688,0.95313 -0.57812,0 -1.04687,-0.21875 -0.45313,-0.23438 -0.96875,-0.79688 v 3.48438 h -1.82813 z m 1.8125,3.32812 q 0,1.17188 0.45313,1.73438 0.46875,0.54687 1.125,0.54687 0.64062,0 1.0625,-0.5 0.42187,-0.51562 0.42187,-1.6875 0,-1.07812 -0.4375,-1.60937 -0.4375,-0.53125 -1.07812,-0.53125 -0.67188,0 -1.10938,0.51562 -0.4375,0.51563 -0.4375,1.53125 z m 6.37573,3.57813 v -9.54688 h 1.82813 v 9.54688 z m 5.078,-4.79688 -1.67187,-0.3125 q 0.28125,-1 0.96875,-1.46875 0.6875,-0.48437 2.03125,-0.48437 1.21875,0 1.8125,0.29687 0.60937,0.28125 0.84375,0.73438 0.25,0.4375 0.25,1.625 l -0.0156,2.14062 q 0,0.90625 0.0781,1.34375 0.0937,0.42188 0.34375,0.92188 h -1.8125 q -0.0781,-0.1875 -0.17188,-0.54688 -0.0469,-0.15625 -0.0781,-0.20312 -0.46875,0.45312 -1,0.6875 -0.53125,0.21875 -1.14063,0.21875 -1.0625,0 -1.6875,-0.57813 -0.60937,-0.57812 -0.60937,-1.46875 0,-0.57812 0.28125,-1.03125 0.28125,-0.46875 0.78125,-0.70312 0.51562,-0.25 1.46875,-0.4375 1.28125,-0.23438 1.76562,-0.45313 v -0.17187 q 0,-0.53125 -0.26562,-0.75 -0.25,-0.23438 -0.96875,-0.23438 -0.48438,0 -0.76563,0.20313 -0.26562,0.1875 -0.4375,0.67187 z m 2.4375,1.48438 q -0.34375,0.10937 -1.10937,0.28125 -0.76563,0.15625 -1,0.3125 -0.35938,0.25 -0.35938,0.64062 0,0.39063 0.28125,0.67188 0.29688,0.28125 0.73438,0.28125 0.5,0 0.95312,-0.32813 0.32813,-0.25 0.4375,-0.60937 0.0625,-0.23438 0.0625,-0.89063 z m 9.89685,3.3125 h -1.82812 v -3.53125 q 0,-1.10938 -0.125,-1.4375 -0.10938,-0.32813 -0.375,-0.51563 -0.26563,-0.1875 -0.64063,-0.1875 -0.46875,0 -0.85937,0.26563 -0.375,0.26562 -0.51563,0.70312 -0.14062,0.42188 -0.14062,1.57813 v 3.125 h -1.82813 v -6.90625 h 1.70313 v 1.01562 q 0.90625,-1.17187 2.28125,-1.17187 0.60937,0 1.10937,0.21875 0.5,0.21875 0.75,0.5625 0.26563,0.32812 0.35938,0.76562 0.10937,0.42188 0.10937,1.21875 z m 8.14136,0 h -1.82812 v -3.53125 q 0,-1.10938 -0.125,-1.4375 -0.10938,-0.32813 -0.375,-0.51563 -0.26563,-0.1875 -0.64063,-0.1875 -0.46875,0 -0.85937,0.26563 -0.375,0.26562 -0.51563,0.70312 -0.14062,0.42188 -0.14062,1.57813 v 3.125 h -1.82813 v -6.90625 h 1.70313 v 1.01562 q 0.90625,-1.17187 2.28125,-1.17187 0.60937,0 1.10937,0.21875 0.5,0.21875 0.75,0.5625 0.26563,0.32812 0.35938,0.76562 0.10937,0.42188 0.10937,1.21875 z m 1.84448,-7.84375 v -1.70313 h 1.82813 v 1.70313 z m 0,7.84375 v -6.90625 h 1.82813 v 6.90625 z m 9.99985,0 h -1.82812 v -3.53125 q 0,-1.10938 -0.125,-1.4375 -0.10938,-0.32813 -0.375,-0.51563 -0.26563,-0.1875 -0.64063,-0.1875 -0.46875,0 -0.85937,0.26563 -0.375,0.26562 -0.51563,0.70312 -0.14062,0.42188 -0.14062,1.57813 v 3.125 h -1.82813 v -6.90625 h 1.70313 v 1.01562 q 0.90625,-1.17187 2.28125,-1.17187 0.60937,0 1.10937,0.21875 0.5,0.21875 0.75,0.5625 0.26563,0.32812 0.35938,0.76562 0.10937,0.42188 0.10937,1.21875 z m 1.67261,0.45312 2.09375,0.25 q 0.0469,0.375 0.25,0.5 0.25,0.20313 0.8125,0.20313 0.71875,0 1.07812,-0.21875 0.23438,-0.14063 0.35938,-0.45313 0.0781,-0.23437 0.0781,-0.84375 v -1.01562 q -0.8125,1.125 -2.0625,1.125 -1.39062,0 -2.20312,-1.17188 -0.64063,-0.9375 -0.64063,-2.32812 0,-1.73438 0.82813,-2.64063 0.84375,-0.92187 2.09375,-0.92187 1.28125,0 2.10937,1.125 v -0.96875 h 1.70313 v 6.20312 q 0,1.21875 -0.20313,1.8125 -0.1875,0.60938 -0.5625,0.95313 -0.35937,0.35937 -0.96875,0.54687 -0.60937,0.20313 -1.53125,0.20313 -1.76562,0 -2.5,-0.60938 -0.73437,-0.60937 -0.73437,-1.53125 0,-0.0937 0,-0.21875 z m 1.64062,-4.04687 q 0,1.09375 0.42188,1.60937 0.4375,0.5 1.04687,0.5 0.67188,0 1.14063,-0.51562 0.46875,-0.53125 0.46875,-1.54688 0,-1.07812 -0.45313,-1.59375 -0.4375,-0.53125 -1.10937,-0.53125 -0.65625,0 -1.09375,0.51563 -0.42188,0.51562 -0.42188,1.5625 z"
     fill-rule="nonzero"
     id="path75" />
  <path
     fill="#000000"
     d="m 269.86754,156.82419 h 1.70313 v 1.01562 q 0.32812,-0.53125 0.89062,-0.84375 0.57813,-0.32812 1.26563,-0.32812 1.20312,0 2.03125,0.9375 0.84375,0.9375 0.84375,2.625 0,1.73437 -0.84375,2.70312 -0.84375,0.95313 -2.04688,0.95313 -0.57812,0 -1.04687,-0.21875 -0.45313,-0.23438 -0.96875,-0.79688 v 3.48438 h -1.82813 z m 1.8125,3.32812 q 0,1.17188 0.45313,1.73438 0.46875,0.54687 1.125,0.54687 0.64062,0 1.0625,-0.5 0.42187,-0.51562 0.42187,-1.6875 0,-1.07812 -0.4375,-1.60937 -0.4375,-0.53125 -1.07812,-0.53125 -0.67188,0 -1.10938,0.51562 -0.4375,0.51563 -0.4375,1.53125 z m 8.12573,3.57813 h -1.82812 v -6.90625 h 1.70312 v 0.98437 q 0.4375,-0.70312 0.78125,-0.92187 0.34375,-0.21875 0.79688,-0.21875 0.625,0 1.20312,0.34375 l -0.5625,1.59375 q -0.46875,-0.29688 -0.85937,-0.29688 -0.39063,0 -0.65625,0.21875 -0.26563,0.20313 -0.42188,0.76563 -0.15625,0.54687 -0.15625,2.29687 z m 3.01492,-3.54688 q 0,-0.92187 0.45313,-1.76562 0.45312,-0.85938 1.26562,-1.29688 0.82813,-0.45312 1.84375,-0.45312 1.5625,0 2.5625,1.01562 1.01563,1.01563 1.01563,2.57813 0,1.5625 -1.01563,2.59375 -1.01562,1.03125 -2.54687,1.03125 -0.95313,0 -1.8125,-0.42188 -0.85938,-0.4375 -1.3125,-1.26562 -0.45313,-0.82813 -0.45313,-2.01563 z m 1.875,0.0937 q 0,1.03125 0.48438,1.57813 0.5,0.54687 1.20312,0.54687 0.71875,0 1.20313,-0.54687 0.48437,-0.54688 0.48437,-1.59375 0,-1.01563 -0.48437,-1.5625 -0.48438,-0.54688 -1.20313,-0.54688 -0.70312,0 -1.20312,0.54688 -0.48438,0.54687 -0.48438,1.57812 z m 12.71949,-1.42187 -1.79687,0.32812 q -0.0937,-0.53125 -0.42188,-0.79687 -0.32812,-0.28125 -0.82812,-0.28125 -0.6875,0 -1.09375,0.46875 -0.40625,0.46875 -0.40625,1.57812 0,1.23438 0.40625,1.75 0.42187,0.5 1.10937,0.5 0.53125,0 0.85938,-0.29687 0.32812,-0.29688 0.46875,-1.03125 l 1.79687,0.3125 q -0.28125,1.23437 -1.07812,1.875 -0.79688,0.625 -2.125,0.625 -1.51563,0 -2.42188,-0.95313 -0.90625,-0.95312 -0.90625,-2.65625 0,-1.70312 0.90625,-2.65625 0.90625,-0.95312 2.45313,-0.95312 1.26562,0 2,0.54687 0.75,0.53125 1.07812,1.64063 z m 5.38122,2.67187 1.82813,0.3125 q -0.34375,1 -1.10938,1.53125 -0.76562,0.51563 -1.89062,0.51563 -1.8125,0 -2.67188,-1.17188 -0.6875,-0.95312 -0.6875,-2.39062 0,-1.71875 0.89063,-2.6875 0.90625,-0.96875 2.28125,-0.96875 1.54687,0 2.4375,1.01562 0.89062,1.01563 0.84375,3.125 h -4.57813 q 0.0156,0.8125 0.4375,1.26563 0.42188,0.45312 1.0625,0.45312 0.42188,0 0.71875,-0.23437 0.29688,-0.23438 0.4375,-0.76563 z m 0.10938,-1.84375 q -0.0156,-0.79687 -0.40625,-1.20312 -0.39063,-0.42188 -0.95313,-0.42188 -0.59375,0 -0.98437,0.4375 -0.39063,0.4375 -0.39063,1.1875 z m 2.66247,2.07813 1.82813,-0.28125 q 0.125,0.53125 0.48437,0.8125 0.35938,0.26562 1,0.26562 0.70313,0 1.0625,-0.25 0.25,-0.1875 0.25,-0.48437 0,-0.21875 -0.14062,-0.35938 -0.125,-0.125 -0.60938,-0.23437 -2.20312,-0.48438 -2.79687,-0.89063 -0.82813,-0.5625 -0.82813,-1.5625 0,-0.89062 0.70313,-1.5 0.71875,-0.60937 2.20312,-0.60937 1.42188,0 2.10938,0.46875 0.70312,0.45312 0.95312,1.35937 l -1.71875,0.3125 q -0.10937,-0.40625 -0.42187,-0.60937 -0.3125,-0.21875 -0.89063,-0.21875 -0.71875,0 -1.03125,0.20312 -0.20312,0.14063 -0.20312,0.35938 0,0.20312 0.1875,0.34375 0.23437,0.17187 1.6875,0.51562 1.46875,0.32813 2.0625,0.8125 0.5625,0.48438 0.5625,1.35938 0,0.95312 -0.79688,1.64062 -0.78125,0.67188 -2.34375,0.67188 -1.40625,0 -2.23437,-0.5625 -0.82813,-0.57813 -1.07813,-1.5625 z m 7.41248,0 1.82812,-0.28125 q 0.125,0.53125 0.48438,0.8125 0.35937,0.26562 1,0.26562 0.70312,0 1.0625,-0.25 0.25,-0.1875 0.25,-0.48437 0,-0.21875 -0.14063,-0.35938 -0.125,-0.125 -0.60937,-0.23437 -2.20313,-0.48438 -2.79688,-0.89063 -0.82812,-0.5625 -0.82812,-1.5625 0,-0.89062 0.70312,-1.5 0.71875,-0.60937 2.20313,-0.60937 1.42187,0 2.10937,0.46875 0.70313,0.45312 0.95313,1.35937 l -1.71875,0.3125 q -0.10938,-0.40625 -0.42188,-0.60937 -0.3125,-0.21875 -0.89062,-0.21875 -0.71875,0 -1.03125,0.20312 -0.20313,0.14063 -0.20313,0.35938 0,0.20312 0.1875,0.34375 0.23438,0.17187 1.6875,0.51562 1.46875,0.32813 2.0625,0.8125 0.5625,0.48438 0.5625,1.35938 0,0.95312 -0.79687,1.64062 -0.78125,0.67188 -2.34375,0.67188 -1.40625,0 -2.23438,-0.5625 -0.82812,-0.57813 -1.07812,-1.5625 z"
     fill-rule="nonzero"
     id="path77" />
  <path
     fill="#000000"
     fill-opacity="0"
     d="M 122.89407,114.0958 227.20903,74.505245"
     fill-rule="evenodd"
     id="path79" />
  <path
     stroke="#000000"
     stroke-width="1"
     stroke-linejoin="round"
     stroke-linecap="butt"
     d="M 122.89407,114.0958 221.59945,76.634243"
     fill-rule="evenodd"
     id="path81" />
  <path
     fill="#000000"
     stroke="#000000"
     stroke-width="1"
     stroke-linecap="butt"
     d="m 222.18554,78.178503 3.65671,-3.154526 -4.82889,0.06602 z"
     fill-rule="evenodd"
     id="path83" />
  <path
     fill="#000000"
     fill-opacity="0"
     d="m 122.89407,173.79134 104.31496,30.17322"
     fill-rule="evenodd"
     id="path85" />
  <path
     stroke="#000000"
     stroke-width="1"
     stroke-linejoin="round"
     stroke-linecap="butt"
     d="m 122.89407,173.79134 98.55124,28.50607"
     fill-rule="evenodd"
     id="path87" />
  <path
     fill="#000000"
     stroke="#000000"
     stroke-width="1"
     stroke-linecap="butt"
     d="m 220.98634,203.88409 4.81834,-0.32573 -3.90043,-2.84764 z"
     fill-rule="evenodd"
     id="path89" />
</svg>
