<?xml version="1.0" encoding="UTF-8" standalone="no"?>
<svg
   version="1.1"
   viewBox="0 0 548.19946 339.20471"
   fill="none"
   stroke="none"
   stroke-linecap="square"
   stroke-miterlimit="10"
   id="svg99"
   sodipodi:docname="organization_identifiers.svg"
   width="548.19946"
   height="339.20471"
   inkscape:version="1.1.2 (0a00cf5339, 2022-02-04)"
   xmlns:inkscape="http://www.inkscape.org/namespaces/inkscape"
   xmlns:sodipodi="http://sodipodi.sourceforge.net/DTD/sodipodi-0.dtd"
   xmlns="http://www.w3.org/2000/svg"
   xmlns:svg="http://www.w3.org/2000/svg">
  <defs
     id="defs103" />
  <sodipodi:namedview
     id="namedview101"
     pagecolor="#ffffff"
     bordercolor="#999999"
     borderopacity="1"
     inkscape:pageshadow="0"
     inkscape:pageopacity="0"
     inkscape:pagecheckerboard="0"
     showgrid="false"
     inkscape:zoom="1.3166667"
     inkscape:cx="360.37975"
     inkscape:cy="170.50633"
     inkscape:window-width="1920"
     inkscape:window-height="962"
     inkscape:window-x="1920"
     inkscape:window-y="27"
     inkscape:window-maximized="1"
     inkscape:current-layer="svg99" />
  <clipPath
     id="p.0">
    <path
       d="M 0,0 H 800 V 600 H 0 Z"
       clip-rule="nonzero"
       id="path2" />
  </clipPath>
  <path
     fill="#000000"
     fill-opacity="0"
     d="M -11.799212,-8.284777 H 788.20079 V 591.71522 H -11.799212 Z"
     fill-rule="evenodd"
     id="path5" />
  <path
     fill="#000000"
     fill-opacity="0"
     d="M -10.919947,-6.5288715 H 560.10366 V 349.25063 H -10.919947 Z"
     fill-rule="evenodd"
     id="path7" />
  <path
     fill="#efefef"
     d="M 0.5,40.500003 H 220.12206 V 338.7047 H 0.5 Z"
     fill-rule="evenodd"
     id="path9" />
  <path
     stroke="#000000"
     stroke-width="1"
     stroke-linejoin="round"
     stroke-linecap="butt"
     d="M 0.5,40.500003 H 220.12206 V 338.7047 H 0.5 Z"
     fill-rule="evenodd"
     id="path11" />
  <path
     fill="#000000"
     d="m 53.663468,60.919993 q 0,-3.328125 1.78125,-5.203125 1.78125,-1.890621 4.609375,-1.890621 1.84375,0 3.328125,0.890625 1.484375,0.875 2.265625,2.468746 0.78125,1.578125 0.78125,3.578125 0,2.03125 -0.828125,3.640625 -0.8125,1.59375 -2.3125,2.421875 -1.5,0.828125 -3.25,0.828125 -1.875,0 -3.359375,-0.90625 -1.484375,-0.921875 -2.25,-2.5 -0.765625,-1.578125 -0.765625,-3.328125 z m 1.8125,0.01563 q 0,2.421875 1.296875,3.8125 1.296875,1.390625 3.265625,1.390625 2,0 3.28125,-1.40625 1.28125,-1.40625 1.28125,-3.984375 0,-1.625 -0.546875,-2.84375 -0.546875,-1.21875 -1.609375,-1.875 -1.0625,-0.671871 -2.375,-0.671871 -1.890625,0 -3.25,1.296871 -1.34375,1.28125 -1.34375,4.28125 z m 13.011429,6.484375 v -9.671875 h 1.46875 v 1.46875 q 0.5625,-1.03125 1.03125,-1.359375 0.484375,-0.328125 1.0625,-0.328125 0.828125,0 1.6875,0.53125 l -0.5625,1.515625 q -0.609375,-0.359375 -1.203125,-0.359375 -0.546875,0 -0.96875,0.328125 -0.421875,0.328125 -0.609375,0.890625 -0.28125,0.875 -0.28125,1.921875 v 5.0625 z m 5.915802,0.796875 1.59375,0.234375 q 0.109375,0.75 0.5625,1.078125 0.609375,0.453125 1.671875,0.453125 1.140625,0 1.75,-0.453125 0.625,-0.453125 0.84375,-1.265625 0.125,-0.5 0.109375,-2.109375 -1.0625,1.265625 -2.671875,1.265625 -2,0 -3.09375,-1.4375 -1.09375,-1.4375 -1.09375,-3.453125 0,-1.390625 0.5,-2.5625 0.515625,-1.171875 1.453125,-1.796875 0.953125,-0.640625 2.25,-0.640625 1.703125,0 2.8125,1.375 v -1.15625 h 1.515625 v 8.359375 q 0,2.265625 -0.46875,3.203125 -0.453125,0.9375 -1.453125,1.484375 -0.984375,0.546875 -2.453125,0.546875 -1.71875,0 -2.796875,-0.78125 -1.0625,-0.765625 -1.03125,-2.34375 z m 1.359375,-5.8125 q 0,1.90625 0.75,2.78125 0.765625,0.875 1.90625,0.875 1.125,0 1.890625,-0.859375 0.765625,-0.875 0.765625,-2.734375 0,-1.78125 -0.796875,-2.671875 -0.78125,-0.90625 -1.890625,-0.90625 -1.09375,0 -1.859375,0.890625 -0.765625,0.875 -0.765625,2.625 z m 15.641344,3.828125 q -0.92188,0.765625 -1.76563,1.09375 -0.82812,0.3125 -1.796872,0.3125 -1.59375,0 -2.453125,-0.78125 -0.859375,-0.78125 -0.859375,-1.984375 0,-0.71875 0.328125,-1.296875 0.328125,-0.59375 0.84375,-0.9375 0.53125,-0.359375 1.1875,-0.546875 0.46875,-0.125 1.453127,-0.25 1.98437,-0.234375 2.92187,-0.5625 0.0156,-0.34375 0.0156,-0.421875 0,-1 -0.46875,-1.421875 -0.625,-0.546875 -1.875,-0.546875 -1.156252,0 -1.703127,0.40625 -0.546875,0.40625 -0.8125,1.421875 l -1.609375,-0.21875 q 0.21875,-1.015625 0.71875,-1.640625 0.5,-0.640625 1.453125,-0.984375 0.953125,-0.34375 2.187497,-0.34375 1.25,0 2.01563,0.296875 0.78125,0.28125 1.14062,0.734375 0.375,0.4375 0.51563,1.109375 0.0781,0.421875 0.0781,1.515625 v 2.1875 q 0,2.28125 0.10938,2.890625 0.10937,0.59375 0.40625,1.15625 h -1.70313 q -0.26562,-0.515625 -0.32812,-1.1875 z m -0.14063,-3.671875 q -0.89062,0.375 -2.67187,0.625 -1.015627,0.140625 -1.437502,0.328125 -0.421875,0.1875 -0.65625,0.53125 -0.21875,0.34375 -0.21875,0.78125 0,0.65625 0.5,1.09375 0.5,0.4375 1.453122,0.4375 0.9375,0 1.67188,-0.40625 0.75,-0.421875 1.09375,-1.140625 0.26562,-0.5625 0.26562,-1.640625 z m 4.20384,4.859375 v -9.671875 h 1.46875 v 1.375 q 1.0625,-1.59375 3.078132,-1.59375 0.875,0 1.60937,0.3125 0.73438,0.3125 1.09375,0.828125 0.375,0.5 0.51563,1.203125 0.0937,0.453125 0.0937,1.59375 v 5.953125 h -1.64063 v -5.890625 q 0,-1 -0.20312,-1.484375 -0.1875,-0.5 -0.67188,-0.796875 -0.48437,-0.296875 -1.140622,-0.296875 -1.04688,0 -1.8125,0.671875 -0.75,0.65625 -0.75,2.515625 v 5.28125 z m 10.375722,-11.46875 v -1.890621 h 1.64063 v 1.890621 z m 0,11.46875 v -9.671875 h 1.64063 v 9.671875 z m 3.26982,0 v -1.328125 l 6.15625,-7.078125 q -1.04687,0.0625 -1.84375,0.0625 h -3.9375 v -1.328125 h 7.90625 v 1.078125 l -5.25,6.140625 -1,1.125 q 1.09375,-0.07813 2.0625,-0.07813 h 4.46875 v 1.40625 z m 16.51563,-1.1875 q -0.92188,0.765625 -1.76563,1.09375 -0.82812,0.3125 -1.79687,0.3125 -1.59375,0 -2.45313,-0.78125 -0.85937,-0.78125 -0.85937,-1.984375 0,-0.71875 0.32812,-1.296875 0.32813,-0.59375 0.84375,-0.9375 0.53125,-0.359375 1.1875,-0.546875 0.46875,-0.125 1.45313,-0.25 1.98437,-0.234375 2.92187,-0.5625 0.0156,-0.34375 0.0156,-0.421875 0,-1 -0.46875,-1.421875 -0.625,-0.546875 -1.875,-0.546875 -1.15625,0 -1.70313,0.40625 -0.54687,0.40625 -0.8125,1.421875 l -1.60937,-0.21875 q 0.21875,-1.015625 0.71875,-1.640625 0.5,-0.640625 1.45312,-0.984375 0.95313,-0.34375 2.1875,-0.34375 1.25,0 2.01563,0.296875 0.78125,0.28125 1.14062,0.734375 0.375,0.4375 0.51563,1.109375 0.0781,0.421875 0.0781,1.515625 v 2.1875 q 0,2.28125 0.10938,2.890625 0.10937,0.59375 0.40625,1.15625 h -1.70313 q -0.26562,-0.515625 -0.32812,-1.1875 z m -0.14063,-3.671875 q -0.89062,0.375 -2.67187,0.625 -1.01563,0.140625 -1.4375,0.328125 -0.42188,0.1875 -0.65625,0.53125 -0.21875,0.34375 -0.21875,0.78125 0,0.65625 0.5,1.09375 0.5,0.4375 1.45312,0.4375 0.9375,0 1.67188,-0.40625 0.75,-0.421875 1.09375,-1.140625 0.26562,-0.5625 0.26562,-1.640625 z m 7.78197,3.390625 0.23438,1.453125 q -0.6875,0.140625 -1.23438,0.140625 -0.89062,0 -1.39062,-0.28125 -0.48438,-0.28125 -0.6875,-0.734375 -0.20313,-0.46875 -0.20313,-1.9375 v -5.57813 h -1.20312 v -1.265625 h 1.20312 v -2.390621 l 1.625,-0.984375 v 3.374996 h 1.65625 v 1.265625 h -1.65625 v 5.671875 q 0,0.6875 0.0781,0.890625 0.0937,0.203125 0.28125,0.328125 0.20312,0.109375 0.57812,0.109375 0.26563,0 0.71875,-0.0625 z m 1.60518,-10 v -1.890621 h 1.64062 v 1.890621 z m 0,11.46875 v -9.671875 h 1.64062 v 9.671875 z m 3.53545,-4.84375 q 0,-2.6875 1.48437,-3.96875 1.25,-1.078125 3.04688,-1.078125 2,0 3.26562,1.3125 1.26563,1.296875 1.26563,3.609375 0,1.859375 -0.5625,2.9375 -0.5625,1.0625 -1.64063,1.65625 -1.0625,0.59375 -2.32812,0.59375 -2.03125,0 -3.28125,-1.296875 -1.25,-1.3125 -1.25,-3.765625 z m 1.6875,0 q 0,1.859375 0.79687,2.796875 0.8125,0.921875 2.04688,0.921875 1.21875,0 2.03125,-0.921875 0.8125,-0.9375 0.8125,-2.84375 0,-1.796875 -0.8125,-2.71875 -0.8125,-0.921875 -2.03125,-0.921875 -1.23438,0 -2.04688,0.921875 -0.79687,0.90625 -0.79687,2.765625 z m 9.29759,4.84375 v -9.671875 h 1.46875 v 1.375 q 1.0625,-1.59375 3.07812,-1.59375 0.875,0 1.60938,0.3125 0.73437,0.3125 1.09375,0.828125 0.375,0.5 0.51562,1.203125 0.0937,0.453125 0.0937,1.59375 v 5.953125 h -1.64062 v -5.890625 q 0,-1 -0.20313,-1.484375 -0.1875,-0.5 -0.67187,-0.796875 -0.48438,-0.296875 -1.14063,-0.296875 -1.04687,0 -1.8125,0.671875 -0.75,0.65625 -0.75,2.515625 v 5.28125 z m 9.71946,-2.890625 1.625,-0.25 q 0.125,0.96875 0.75,1.5 0.625,0.515625 1.75,0.515625 1.125,0 1.67188,-0.453125 0.54687,-0.46875 0.54687,-1.09375 0,-0.546875 -0.48437,-0.875 -0.32813,-0.21875 -1.67188,-0.546875 -1.8125,-0.46875 -2.51562,-0.796875 -0.6875,-0.328125 -1.04688,-0.90625 -0.35937,-0.59375 -0.35937,-1.3125 0,-0.640625 0.29687,-1.1875 0.29688,-0.5625 0.8125,-0.921875 0.375,-0.28125 1.03125,-0.46875 0.67188,-0.203125 1.42188,-0.203125 1.14062,0 2,0.328125 0.85937,0.328125 1.26562,0.890625 0.42188,0.5625 0.57813,1.5 l -1.60938,0.21875 q -0.10937,-0.75 -0.64062,-1.171875 -0.51563,-0.421875 -1.46875,-0.421875 -1.14063,0 -1.625,0.375 -0.46875,0.375 -0.46875,0.875 0,0.3125 0.1875,0.578125 0.20312,0.265625 0.64062,0.4375 0.23438,0.09375 1.4375,0.421875 1.75,0.453125 2.4375,0.75 0.6875,0.296875 1.07813,0.859375 0.39062,0.5625 0.39062,1.40625 0,0.828125 -0.48437,1.546875 -0.46875,0.71875 -1.375,1.125 -0.90625,0.390625 -2.04688,0.390625 -1.875,0 -2.875,-0.78125 -0.98437,-0.78125 -1.25,-2.328125 z"
     fill-rule="nonzero"
     id="path13" />
  <path
     fill="#efefef"
     d="M 23.371393,87.345143 H 197.26115 V 322.02233 H 23.371393 Z"
     fill-rule="evenodd"
     id="path15" />
  <path
     stroke="#000000"
     stroke-width="1"
     stroke-linejoin="round"
     stroke-linecap="butt"
     d="M 23.371393,87.345143 H 197.26115 V 322.02233 H 23.371393 Z"
     fill-rule="evenodd"
     id="path17" />
  <path
     fill="#000000"
     d="m 65.738148,106.12702 q 0,-2.85937 1.53125,-4.46875 1.53125,-1.60937 3.953125,-1.60937 1.578125,0 2.84375,0.76562 1.28125,0.75 1.953125,2.10938 0.671875,1.34375 0.671875,3.0625 0,1.75 -0.703125,3.125 -0.703125,1.375 -2,2.09375 -1.28125,0.70312 -2.78125,0.70312 -1.609375,0 -2.890625,-0.78125 -1.265625,-0.79687 -1.921875,-2.14062 -0.65625,-1.35938 -0.65625,-2.85938 z m 1.5625,0.0156 q 0,2.07812 1.109375,3.26562 1.109375,1.1875 2.796875,1.1875 1.703125,0 2.8125,-1.20312 1.109375,-1.20313 1.109375,-3.40625 0,-1.40625 -0.484375,-2.4375 -0.46875,-1.04688 -1.375,-1.625 -0.90625,-0.57813 -2.046875,-0.57813 -1.609375,0 -2.765625,1.10938 -1.15625,1.10937 -1.15625,3.6875 z m 11.148438,5.5625 v -8.29688 h 1.265625 v 1.25 q 0.484375,-0.875 0.890625,-1.15625 0.40625,-0.28125 0.90625,-0.28125 0.703125,0 1.4375,0.45313 l -0.484375,1.29687 q -0.515625,-0.29687 -1.03125,-0.29687 -0.453125,0 -0.828125,0.28125 -0.359375,0.26562 -0.515625,0.76562 -0.234375,0.75 -0.234375,1.64063 v 4.34375 z m 5.078125,0.6875 1.375,0.20312 q 0.07813,0.64063 0.46875,0.92188 0.53125,0.39062 1.4375,0.39062 0.96875,0 1.499997,-0.39062 0.53125,-0.39063 0.71875,-1.09375 0.10938,-0.42188 0.10938,-1.8125 -0.92188,1.09375 -2.296877,1.09375 -1.71875,0 -2.65625,-1.23438 -0.9375,-1.23437 -0.9375,-2.96875 0,-1.1875 0.421875,-2.1875 0.4375,-1 1.25,-1.54687 0.828125,-0.54688 1.921875,-0.54688 1.468747,0 2.421877,1.1875 v -1 h 1.29687 v 7.17188 q 0,1.9375 -0.39062,2.75 -0.39063,0.8125 -1.25,1.28125 -0.859377,0.46875 -2.109377,0.46875 -1.484375,0 -2.40625,-0.67188 -0.90625,-0.67187 -0.875,-2.01562 z m 1.171875,-4.98438 q 0,1.625 0.640625,2.375 0.65625,0.75 1.625,0.75 0.96875,0 1.624997,-0.73437 0.65625,-0.75 0.65625,-2.34375 0,-1.53125 -0.67187,-2.29688 -0.671877,-0.78125 -1.625002,-0.78125 -0.9375,0 -1.59375,0.76563 -0.65625,0.76562 -0.65625,2.26562 z m 13.398442,3.26563 q -0.78125,0.67187 -1.5,0.95312 -0.71875,0.26563 -1.54688,0.26563 -1.375,0 -2.10937,-0.67188 -0.73438,-0.67187 -0.73438,-1.70312 0,-0.60938 0.28125,-1.10938 0.28125,-0.51562 0.71875,-0.8125 0.45313,-0.3125 1.01563,-0.46875 0.42187,-0.10937 1.25,-0.20312 1.70312,-0.20313 2.51562,-0.48438 0,-0.29687 0,-0.375 0,-0.85937 -0.39062,-1.20312 -0.54688,-0.48438 -1.60938,-0.48438 -0.98437,0 -1.46875,0.35938 -0.46875,0.34375 -0.6875,1.21875 l -1.375,-0.1875 q 0.1875,-0.875 0.60938,-1.42188 0.4375,-0.54687 1.25,-0.82812 0.8125,-0.29688 1.875,-0.29688 1.0625,0 1.71875,0.25 0.67187,0.25 0.98437,0.625 0.3125,0.375 0.4375,0.95313 0.0781,0.35937 0.0781,1.29687 v 1.875 q 0,1.96875 0.0781,2.48438 0.0937,0.51562 0.35938,1 h -1.46875 q -0.21875,-0.4375 -0.28125,-1.03125 z m -0.10938,-3.14063 q -0.76562,0.3125 -2.29687,0.53125 -0.875,0.125 -1.23438,0.28125 -0.35937,0.15625 -0.5625,0.46875 -0.1875,0.29688 -0.1875,0.65625 0,0.5625 0.42188,0.9375 0.4375,0.375 1.25,0.375 0.8125,0 1.4375,-0.34375 0.64062,-0.35937 0.9375,-0.98437 0.23437,-0.46875 0.23437,-1.40625 z m 3.601562,4.17188 v -8.29688 h 1.26563 v 1.17188 q 0.90625,-1.35938 2.64062,-1.35938 0.75,0 1.375,0.26563 0.625,0.26562 0.9375,0.70312 0.3125,0.4375 0.4375,1.04688 0.0781,0.39062 0.0781,1.35937 v 5.10938 h -1.40625 v -5.04688 q 0,-0.85937 -0.17188,-1.28125 -0.15625,-0.4375 -0.57812,-0.6875 -0.40625,-0.25 -0.96875,-0.25 -0.90625,0 -1.5625,0.57813 -0.64063,0.5625 -0.64063,2.15625 v 4.53125 z m 8.89844,-9.84375 v -1.60938 h 1.40625 v 1.60938 z m 0,9.84375 v -8.29688 h 1.40625 v 8.29688 z m 2.80469,0 v -1.14063 l 5.28126,-6.0625 q -0.89063,0.0469 -1.57813,0.0469 h -3.39063 v -1.14063 h 6.78126 v 0.92188 l -4.48439,5.26562 -0.875,0.96875 q 0.95313,-0.0781 1.78126,-0.0781 h 3.82813 v 1.21875 z m 14.15626,-1.03125 q -0.78125,0.67187 -1.5,0.95312 -0.71875,0.26563 -1.54688,0.26563 -1.375,0 -2.10937,-0.67188 -0.73438,-0.67187 -0.73438,-1.70312 0,-0.60938 0.28125,-1.10938 0.28125,-0.51562 0.71875,-0.8125 0.45313,-0.3125 1.01563,-0.46875 0.42187,-0.10937 1.25,-0.20312 1.70312,-0.20313 2.51562,-0.48438 0,-0.29687 0,-0.375 0,-0.85937 -0.39062,-1.20312 -0.54688,-0.48438 -1.60938,-0.48438 -0.98437,0 -1.46875,0.35938 -0.46875,0.34375 -0.6875,1.21875 l -1.375,-0.1875 q 0.1875,-0.875 0.60938,-1.42188 0.4375,-0.54687 1.25,-0.82812 0.8125,-0.29688 1.875,-0.29688 1.0625,0 1.71875,0.25 0.67187,0.25 0.98437,0.625 0.3125,0.375 0.4375,0.95313 0.0781,0.35937 0.0781,1.29687 v 1.875 q 0,1.96875 0.0781,2.48438 0.0937,0.51562 0.35938,1 h -1.46875 q -0.21875,-0.4375 -0.28125,-1.03125 z m -0.10938,-3.14063 q -0.76562,0.3125 -2.29687,0.53125 -0.875,0.125 -1.23438,0.28125 -0.35937,0.15625 -0.5625,0.46875 -0.1875,0.29688 -0.1875,0.65625 0,0.5625 0.42188,0.9375 0.4375,0.375 1.25,0.375 0.8125,0 1.4375,-0.34375 0.64062,-0.35937 0.9375,-0.98437 0.23437,-0.46875 0.23437,-1.40625 z m 6.66406,2.90625 0.20313,1.25 q -0.59375,0.125 -1.0625,0.125 -0.76563,0 -1.1875,-0.23437 -0.42188,-0.25 -0.59375,-0.64063 -0.17188,-0.40625 -0.17188,-1.67187 v -4.76563 h -1.03125 v -1.09375 h 1.03125 v -2.0625 l 1.40625,-0.84375 v 2.90625 h 1.40625 v 1.09375 h -1.40625 v 4.84375 q 0,0.60938 0.0625,0.78125 0.0781,0.17188 0.25,0.28125 0.17188,0.0937 0.48438,0.0937 0.23437,0 0.60937,-0.0625 z m 1.38282,-8.57812 v -1.60938 h 1.40625 v 1.60938 z m 0,9.84375 v -8.29688 h 1.40625 v 8.29688 z m 3.02343,-4.15625 q 0,-2.29688 1.28125,-3.40625 1.07813,-0.92188 2.60938,-0.92188 1.71875,0 2.79687,1.125 1.09375,1.10938 1.09375,3.09375 0,1.59375 -0.48437,2.51563 -0.48438,0.92187 -1.40625,1.4375 -0.90625,0.5 -2,0.5 -1.73438,0 -2.8125,-1.10938 -1.07813,-1.125 -1.07813,-3.23437 z m 1.45313,0 q 0,1.59375 0.6875,2.39062 0.70312,0.79688 1.75,0.79688 1.04687,0 1.73437,-0.79688 0.70313,-0.79687 0.70313,-2.4375 0,-1.53125 -0.70313,-2.32812 -0.6875,-0.79688 -1.73437,-0.79688 -1.04688,0 -1.75,0.79688 -0.6875,0.78125 -0.6875,2.375 z m 7.97656,4.15625 v -8.29688 h 1.26563 v 1.17188 q 0.90625,-1.35938 2.64062,-1.35938 0.75,0 1.375,0.26563 0.625,0.26562 0.9375,0.70312 0.3125,0.4375 0.4375,1.04688 0.0781,0.39062 0.0781,1.35937 v 5.10938 h -1.40625 v -5.04688 q 0,-0.85937 -0.17188,-1.28125 -0.15625,-0.4375 -0.57812,-0.6875 -0.40625,-0.25 -0.96875,-0.25 -0.90625,0 -1.5625,0.57813 -0.64063,0.5625 -0.64063,2.15625 v 4.53125 z"
     fill-rule="nonzero"
     id="path19" />
  <path
     fill="#d9ead3"
     d="M 42.99344,128.63911 H 177.63912 V 235.47375 H 42.99344 Z"
     fill-rule="evenodd"
     id="path21" />
  <path
     stroke="#000000"
     stroke-width="1"
     stroke-linejoin="round"
     stroke-linecap="butt"
     d="M 42.99344,128.63911 H 177.63912 V 235.47375 H 42.99344 Z"
     fill-rule="evenodd"
     id="path23" />
  <path
     fill="#000000"
     d="m 85.484243,148.98348 1.515625,0.375 q -0.46875,1.875 -1.71875,2.85937 -1.234375,0.98438 -3.015625,0.98438 -1.859375,0 -3.015625,-0.75 -1.15625,-0.76563 -1.765625,-2.1875 -0.609375,-1.4375 -0.609375,-3.07813 0,-1.79687 0.6875,-3.125 0.6875,-1.32812 1.9375,-2.01562 1.265625,-0.70313 2.78125,-0.70313 1.71875,0 2.890625,0.875 1.171875,0.875 1.640625,2.46875 l -1.5,0.34375 q -0.390625,-1.25 -1.15625,-1.8125 -0.75,-0.57812 -1.90625,-0.57812 -1.3125,0 -2.203125,0.64062 -0.890625,0.625 -1.25,1.70313 -0.359375,1.0625 -0.359375,2.1875 0,1.46875 0.421875,2.5625 0.4375,1.07812 1.328125,1.625 0.90625,0.53125 1.953125,0.53125 1.265625,0 2.140625,-0.73438 0.890625,-0.73437 1.203125,-2.17187 z m 2.679688,-0.14063 q 0,-2.29687 1.281247,-3.40625 1.07813,-0.92187 2.60938,-0.92187 1.71875,0 2.79687,1.125 1.09375,1.10937 1.09375,3.09375 0,1.59375 -0.48437,2.51562 -0.48438,0.92188 -1.40625,1.4375 -0.90625,0.5 -2,0.5 -1.73438,0 -2.8125,-1.10937 -1.078127,-1.125 -1.078127,-3.23438 z m 1.453127,0 q 0,1.59375 0.6875,2.39063 0.70312,0.79687 1.75,0.79687 1.04687,0 1.73437,-0.79687 0.70313,-0.79688 0.70313,-2.4375 0,-1.53125 -0.70313,-2.32813 -0.6875,-0.79687 -1.73437,-0.79687 -1.04688,0 -1.75,0.79687 -0.6875,0.78125 -0.6875,2.375 z m 7.97656,4.15625 v -8.29687 h 1.25 v 1.15625 q 0.39063,-0.60938 1.03125,-0.96875 0.656252,-0.375 1.484382,-0.375 0.92187,0 1.51562,0.39062 0.59375,0.375 0.82813,1.0625 0.98437,-1.45312 2.5625,-1.45312 1.23436,0 1.89061,0.6875 0.67188,0.67187 0.67188,2.09375 v 5.70312 h -1.39063 v -5.23437 q 0,-0.84375 -0.14062,-1.20313 -0.14063,-0.375 -0.49999,-0.59375 -0.35938,-0.23437 -0.84375,-0.23437 -0.875,0 -1.45313,0.57812 -0.57812,0.57813 -0.57812,1.85938 v 4.82812 h -1.40625 v -5.39062 q 0,-0.9375 -0.34375,-1.40625 -0.34375,-0.46875 -1.125,-0.46875 -0.59375,0 -1.093752,0.3125 -0.5,0.3125 -0.73438,0.92187 -0.21875,0.59375 -0.21875,1.71875 v 4.3125 z m 13.328122,3.1875 v -11.48437 h 1.28125 v 1.07812 q 0.45312,-0.64062 1.01562,-0.95312 0.57813,-0.3125 1.39063,-0.3125 1.0625,0 1.875,0.54687 0.8125,0.54688 1.21875,1.54688 0.42187,0.98437 0.42187,2.17187 0,1.28125 -0.46875,2.29688 -0.45312,1.01562 -1.32812,1.5625 -0.85938,0.54687 -1.82813,0.54687 -0.70312,0 -1.26562,-0.29687 -0.54688,-0.29688 -0.90625,-0.75 v 4.04687 z m 1.26562,-7.29687 q 0,1.60937 0.64063,2.375 0.65625,0.76562 1.57812,0.76562 0.9375,0 1.60938,-0.79687 0.67187,-0.79688 0.67187,-2.45313 0,-1.59375 -0.65625,-2.375 -0.65625,-0.79687 -1.5625,-0.79687 -0.89062,0 -1.59375,0.84375 -0.6875,0.84375 -0.6875,2.4375 z m 13.03906,3.07812 q -0.78125,0.67188 -1.5,0.95313 -0.71875,0.26562 -1.54687,0.26562 -1.375,0 -2.10938,-0.67187 -0.73437,-0.67188 -0.73437,-1.70313 0,-0.60937 0.28125,-1.10937 0.28125,-0.51563 0.71875,-0.8125 0.45312,-0.3125 1.01562,-0.46875 0.42188,-0.10938 1.25,-0.20313 1.70313,-0.20312 2.51563,-0.48437 0,-0.29688 0,-0.375 0,-0.85938 -0.39063,-1.20313 -0.54687,-0.48437 -1.60937,-0.48437 -0.98438,0 -1.46875,0.35937 -0.46875,0.34375 -0.6875,1.21875 l -1.375,-0.1875 q 0.1875,-0.875 0.60937,-1.42187 0.4375,-0.54688 1.25,-0.82813 0.8125,-0.29687 1.875,-0.29687 1.0625,0 1.71875,0.25 0.67188,0.25 0.98438,0.625 0.3125,0.375 0.4375,0.95312 0.0781,0.35938 0.0781,1.29688 v 1.875 q 0,1.96875 0.0781,2.48437 0.0937,0.51563 0.35937,1 h -1.46875 q -0.21875,-0.4375 -0.28125,-1.03125 z m -0.10937,-3.14062 q -0.76563,0.3125 -2.29688,0.53125 -0.875,0.125 -1.23437,0.28125 -0.35938,0.15625 -0.5625,0.46875 -0.1875,0.29687 -0.1875,0.65625 0,0.5625 0.42187,0.9375 0.4375,0.375 1.25,0.375 0.8125,0 1.4375,-0.34375 0.64063,-0.35938 0.9375,-0.98438 0.23438,-0.46875 0.23438,-1.40625 z m 3.60156,4.17187 v -8.29687 h 1.26563 v 1.17187 q 0.90625,-1.35937 2.64062,-1.35937 0.75,0 1.375,0.26562 0.625,0.26563 0.9375,0.70313 0.3125,0.4375 0.4375,1.04687 0.0781,0.39063 0.0781,1.35938 v 5.10937 h -1.40625 v -5.04687 q 0,-0.85938 -0.17188,-1.28125 -0.15625,-0.4375 -0.57812,-0.6875 -0.40625,-0.25 -0.96875,-0.25 -0.90625,0 -1.5625,0.57812 -0.64063,0.5625 -0.64063,2.15625 v 4.53125 z m 8.83594,3.20313 -0.15625,-1.32813 q 0.45312,0.125 0.79687,0.125 0.46875,0 0.75,-0.15625 0.28125,-0.15625 0.46875,-0.4375 0.125,-0.20312 0.42188,-1.04687 0.0469,-0.10938 0.125,-0.34375 l -3.14063,-8.3125 h 1.51563 l 1.71875,4.79687 q 0.34375,0.92188 0.60937,1.92188 0.23438,-0.96875 0.57813,-1.89063 l 1.76562,-4.82812 h 1.40625 l -3.15625,8.4375 q -0.5,1.375 -0.78125,1.89062 -0.375,0.6875 -0.85937,1.01563 -0.48438,0.32812 -1.15625,0.32812 -0.40625,0 -0.90625,-0.17187 z"
     fill-rule="nonzero"
     id="path25" />
  <path
     fill="#d9d2e9"
     d="M 42.99307,256.60499 H 177.60724 V 304.5735 H 42.99307 Z"
     fill-rule="evenodd"
     id="path27" />
  <path
     stroke="#000000"
     stroke-width="1"
     stroke-linejoin="round"
     stroke-linecap="butt"
     d="M 42.99307,256.60499 H 177.60724 V 304.5735 H 42.99307 Z"
     fill-rule="evenodd"
     id="path29" />
  <path
     fill="#000000"
     d="m 75.761088,286.44922 v -10.10938 h -3.78125 v -1.34375 h 9.078125 v 1.34375 h -3.78125 v 10.10938 z m 4.375,-4.15625 q 0,-2.29688 1.28125,-3.40625 1.078125,-0.92188 2.609375,-0.92188 1.71875,0 2.796875,1.125 1.09375,1.10938 1.09375,3.09375 0,1.59375 -0.484375,2.51563 -0.484375,0.92187 -1.40625,1.4375 -0.90625,0.5 -2,0.5 -1.734375,0 -2.8125,-1.10938 -1.078125,-1.125 -1.078125,-3.23437 z m 1.453125,0 q 0,1.59375 0.6875,2.39062 0.703125,0.79688 1.75,0.79688 1.046875,0 1.734375,-0.79688 0.703125,-0.79687 0.703125,-2.4375 0,-1.53125 -0.703125,-2.32812 -0.6875,-0.79688 -1.734375,-0.79688 -1.046875,0 -1.75,0.79688 -0.6875,0.78125 -0.6875,2.375 z m 13.414065,4.15625 v -1.21875 q -0.96875,1.40625 -2.64063,1.40625 -0.73437,0 -1.375,-0.28125 -0.625,-0.28125 -0.9375,-0.70313 -0.3125,-0.4375 -0.4375,-1.04687 -0.0781,-0.42188 -0.0781,-1.3125 v -5.14063 h 1.40625 v 4.59375 q 0,1.10938 0.0781,1.48438 0.14063,0.5625 0.5625,0.875 0.4375,0.3125 1.0625,0.3125 0.64063,0 1.1875,-0.3125 0.5625,-0.32813 0.78125,-0.89063 0.23438,-0.5625 0.23438,-1.625 v -4.4375 h 1.40625 v 8.29688 z m 8.867182,-3.04688 1.39063,0.1875 q -0.23438,1.42188 -1.17188,2.23438 -0.92187,0.8125 -2.28125,0.8125 -1.70312,0 -2.750002,-1.10938 -1.03125,-1.125 -1.03125,-3.20312 0,-1.34375 0.4375,-2.34375 0.45313,-1.01563 1.35938,-1.51563 0.921872,-0.5 1.984372,-0.5 1.35938,0 2.21875,0.6875 0.85938,0.67188 1.09375,1.9375 l -1.35937,0.20313 q -0.20313,-0.82813 -0.70313,-1.25 -0.48437,-0.42188 -1.1875,-0.42188 -1.0625,0 -1.73437,0.76563 -0.656252,0.75 -0.656252,2.40625 0,1.67187 0.640622,2.4375 0.64063,0.75 1.67188,0.75 0.82812,0 1.375,-0.5 0.5625,-0.51563 0.70312,-1.57813 z m 2.59375,3.04688 v -11.45313 h 1.40625 v 4.10938 q 0.98438,-1.14063 2.48438,-1.14063 0.92187,0 1.59375,0.35938 0.6875,0.35937 0.96875,1 0.29687,0.64062 0.29687,1.85937 v 5.26563 h -1.40625 v -5.26563 q 0,-1.04687 -0.45312,-1.53125 -0.45313,-0.48437 -1.29688,-0.48437 -0.625,0 -1.17187,0.32812 -0.54688,0.32813 -0.78125,0.89063 -0.23438,0.54687 -0.23438,1.51562 v 4.54688 z m 8.89844,3.1875 v -11.48438 h 1.28125 v 1.07813 q 0.45313,-0.64063 1.01563,-0.95313 0.57812,-0.3125 1.39062,-0.3125 1.0625,0 1.875,0.54688 0.8125,0.54687 1.21875,1.54687 0.42188,0.98438 0.42188,2.17188 0,1.28125 -0.46875,2.29687 -0.45313,1.01563 -1.32813,1.5625 -0.85937,0.54688 -1.82812,0.54688 -0.70313,0 -1.26563,-0.29688 -0.54687,-0.29687 -0.90625,-0.75 v 4.04688 z m 1.26563,-7.29688 q 0,1.60938 0.64062,2.375 0.65625,0.76563 1.57813,0.76563 0.9375,0 1.60937,-0.79688 0.67188,-0.79687 0.67188,-2.45312 0,-1.59375 -0.65625,-2.375 -0.65625,-0.79688 -1.5625,-0.79688 -0.89063,0 -1.59375,0.84375 -0.6875,0.84375 -0.6875,2.4375 z m 7.10156,-0.0469 q 0,-2.29688 1.28125,-3.40625 1.07812,-0.92188 2.60937,-0.92188 1.71875,0 2.79688,1.125 1.09375,1.10938 1.09375,3.09375 0,1.59375 -0.48438,2.51563 -0.48437,0.92187 -1.40625,1.4375 -0.90625,0.5 -2,0.5 -1.73437,0 -2.8125,-1.10938 -1.07812,-1.125 -1.07812,-3.23437 z m 1.45312,0 q 0,1.59375 0.6875,2.39062 0.70313,0.79688 1.75,0.79688 1.04688,0 1.73438,-0.79688 0.70312,-0.79687 0.70312,-2.4375 0,-1.53125 -0.70312,-2.32812 -0.6875,-0.79688 -1.73438,-0.79688 -1.04687,0 -1.75,0.79688 -0.6875,0.78125 -0.6875,2.375 z m 7.97657,-5.6875 v -1.60938 h 1.40625 v 1.60938 z m 0,9.84375 v -8.29688 h 1.40625 v 8.29688 z m 3.55468,0 v -8.29688 h 1.26563 v 1.17188 q 0.90625,-1.35938 2.64062,-1.35938 0.75,0 1.375,0.26563 0.625,0.26562 0.9375,0.70312 0.3125,0.4375 0.4375,1.04688 0.0781,0.39062 0.0781,1.35937 v 5.10938 h -1.40625 v -5.04688 q 0,-0.85937 -0.17188,-1.28125 -0.15625,-0.4375 -0.57812,-0.6875 -0.40625,-0.25 -0.96875,-0.25 -0.90625,0 -1.5625,0.57813 -0.64063,0.5625 -0.64063,2.15625 v 4.53125 z m 11.96094,-1.26563 0.20313,1.25 q -0.59375,0.125 -1.0625,0.125 -0.76563,0 -1.1875,-0.23437 -0.42188,-0.25 -0.59375,-0.64063 -0.17188,-0.40625 -0.17188,-1.67187 v -4.76563 h -1.03125 v -1.09375 h 1.03125 v -2.0625 l 1.40625,-0.84375 v 2.90625 h 1.40625 v 1.09375 h -1.40625 v 4.84375 q 0,0.60938 0.0625,0.78125 0.0781,0.17188 0.25,0.28125 0.17188,0.0937 0.48438,0.0937 0.23437,0 0.60937,-0.0625 z"
     fill-rule="nonzero"
     id="path31" />
  <path
     fill="#efefef"
     d="M 328.07744,40.500003 H 547.69945 V 338.7047 H 328.07744 Z"
     fill-rule="evenodd"
     id="path33" />
  <path
     stroke="#000000"
     stroke-width="1"
     stroke-linejoin="round"
     stroke-linecap="butt"
     d="M 328.07744,40.500003 H 547.69945 V 338.7047 H 328.07744 Z"
     fill-rule="evenodd"
     id="path35" />
  <path
     fill="#000000"
     d="M 410.29399,67.419993 V 54.060622 h 5.04688 q 1.32812,0 2.03125,0.125 0.96875,0.171875 1.64062,0.640625 0.67188,0.453125 1.07813,1.281246 0.40625,0.828125 0.40625,1.828125 0,1.703125 -1.09375,2.890625 -1.07813,1.171875 -3.92188,1.171875 h -3.42187 v 5.421875 z m 1.76563,-7 h 3.45312 q 1.71875,0 2.4375,-0.640625 0.71875,-0.640625 0.71875,-1.796875 0,-0.84375 -0.42187,-1.4375 -0.42188,-0.59375 -1.125,-0.78125 -0.4375,-0.124996 -1.64063,-0.124996 h -3.42187 z m 16.78732,5.8125 q -0.92188,0.765625 -1.76563,1.09375 -0.82812,0.3125 -1.79687,0.3125 -1.59375,0 -2.45313,-0.78125 -0.85937,-0.78125 -0.85937,-1.984375 0,-0.71875 0.32812,-1.296875 0.32813,-0.59375 0.84375,-0.9375 0.53125,-0.359375 1.1875,-0.546875 0.46875,-0.125 1.45313,-0.25 1.98437,-0.234375 2.92187,-0.5625 0.0156,-0.34375 0.0156,-0.421875 0,-1 -0.46875,-1.421875 -0.625,-0.546875 -1.875,-0.546875 -1.15625,0 -1.70313,0.40625 -0.54687,0.40625 -0.8125,1.421875 l -1.60937,-0.21875 q 0.21875,-1.015625 0.71875,-1.640625 0.5,-0.640625 1.45312,-0.984375 0.95313,-0.34375 2.1875,-0.34375 1.25,0 2.01563,0.296875 0.78125,0.28125 1.14062,0.734375 0.375,0.4375 0.51563,1.109375 0.0781,0.421875 0.0781,1.515625 v 2.1875 q 0,2.28125 0.10938,2.890625 0.10937,0.59375 0.40625,1.15625 h -1.70313 q -0.26562,-0.515625 -0.32812,-1.1875 z m -0.14063,-3.671875 q -0.89062,0.375 -2.67187,0.625 -1.01563,0.140625 -1.4375,0.328125 -0.42188,0.1875 -0.65625,0.53125 -0.21875,0.34375 -0.21875,0.78125 0,0.65625 0.5,1.09375 0.5,0.4375 1.45312,0.4375 0.9375,0 1.67188,-0.40625 0.75,-0.421875 1.09375,-1.140625 0.26562,-0.5625 0.26562,-1.640625 z m 4.18821,4.859375 v -9.671875 h 1.46875 v 1.46875 q 0.5625,-1.03125 1.03125,-1.359375 0.48437,-0.328125 1.0625,-0.328125 0.82812,0 1.6875,0.53125 l -0.5625,1.515625 q -0.60938,-0.359375 -1.20313,-0.359375 -0.54687,0 -0.96875,0.328125 -0.42187,0.328125 -0.60937,0.890625 -0.28125,0.875 -0.28125,1.921875 v 5.0625 z m 9.80642,-1.46875 0.23438,1.453125 q -0.6875,0.140625 -1.23438,0.140625 -0.89062,0 -1.39062,-0.28125 -0.48438,-0.28125 -0.6875,-0.734375 -0.20313,-0.46875 -0.20313,-1.9375 v -5.578125 h -1.20312 v -1.265625 h 1.20312 v -2.390621 l 1.625,-0.984375 v 3.374996 h 1.65625 v 1.265625 h -1.65625 v 5.671875 q 0,0.6875 0.0781,0.890625 0.0937,0.203125 0.28125,0.328125 0.20312,0.109375 0.57812,0.109375 0.26563,0 0.71875,-0.0625 z m 1.6052,-10 v -1.890621 h 1.64062 v 1.890621 z m 0,11.46875 v -9.671875 h 1.64062 v 9.671875 z m 10.7698,-3.109375 1.6875,0.203125 q -0.40625,1.484375 -1.48437,2.3125 -1.07813,0.8125 -2.76563,0.8125 -2.125,0 -3.375,-1.296875 -1.23437,-1.3125 -1.23437,-3.671875 0,-2.453125 1.25,-3.796875 1.26562,-1.34375 3.26562,-1.34375 1.9375,0 3.15625,1.328125 1.23438,1.3125 1.23438,3.703125 0,0.15625 0,0.4375 h -7.21875 q 0.0937,1.59375 0.90625,2.453125 0.8125,0.84375 2.01562,0.84375 0.90625,0 1.54688,-0.46875 0.64062,-0.484375 1.01562,-1.515625 z m -5.39062,-2.65625 h 5.40625 q -0.10938,-1.21875 -0.625,-1.828125 -0.78125,-0.953125 -2.03125,-0.953125 -1.125,0 -1.90625,0.765625 -0.76563,0.75 -0.84375,2.015625 z m 8.4851,2.875 1.625,-0.25 q 0.125,0.96875 0.75,1.5 0.625,0.515625 1.75,0.515625 1.125,0 1.67188,-0.453125 0.54687,-0.46875 0.54687,-1.09375 0,-0.546875 -0.48437,-0.875 -0.32813,-0.21875 -1.67188,-0.546875 -1.8125,-0.46875 -2.51562,-0.796875 -0.6875,-0.328125 -1.04688,-0.90625 -0.35937,-0.59375 -0.35937,-1.3125 0,-0.640625 0.29687,-1.1875 0.29688,-0.5625 0.8125,-0.921875 0.375,-0.28125 1.03125,-0.46875 0.67188,-0.203125 1.42188,-0.203125 1.14062,0 2,0.328125 0.85937,0.328125 1.26562,0.890625 0.42188,0.5625 0.57813,1.5 l -1.60938,0.21875 q -0.10937,-0.75 -0.64062,-1.171875 -0.51563,-0.421875 -1.46875,-0.421875 -1.14063,0 -1.625,0.375 -0.46875,0.375 -0.46875,0.875 0,0.3125 0.1875,0.578125 0.20312,0.265625 0.64062,0.4375 0.23438,0.09375 1.4375,0.421875 1.75,0.453125 2.4375,0.75 0.6875,0.296875 1.07813,0.859375 0.39062,0.5625 0.39062,1.40625 0,0.828125 -0.48437,1.546875 -0.46875,0.71875 -1.375,1.125 -0.90625,0.390625 -2.04688,0.390625 -1.875,0 -2.875,-0.78125 -0.98437,-0.78125 -1.25,-2.328125 z"
     fill-rule="nonzero"
     id="path37" />
  <path
     fill="#efefef"
     d="m 0.5,0.5 h 219.62206 v 40 H 0.5 Z"
     fill-rule="evenodd"
     id="path39" />
  <path
     stroke="#000000"
     stroke-width="1"
     stroke-linejoin="round"
     stroke-linecap="butt"
     d="m 0.5,0.5 h 219.62206 v 40 H 0.5 Z"
     fill-rule="evenodd"
     id="path41" />
  <path
     fill="#000000"
     d="m 83.552488,24.341873 2.546875,0.421875 q -0.484375,1.40625 -1.546875,2.140625 -1.0625,0.734375 -2.65625,0.734375 -2.515625,0 -3.734375,-1.65625 -0.953125,-1.3125 -0.953125,-3.328127 0,-2.40625 1.25,-3.765625 1.265625,-1.359375 3.1875,-1.359375 2.15625,0 3.40625,1.421875 1.25,1.421875 1.1875,4.375 h -6.40625 q 0.03125,1.140627 0.609375,1.781252 0.59375,0.625 1.484375,0.625 0.59375,0 1,-0.328125 0.421875,-0.328125 0.625,-1.0625 z m 0.15625,-2.593752 q -0.03125,-1.109375 -0.578125,-1.6875 -0.546875,-0.578125 -1.328125,-0.578125 -0.84375,0 -1.390625,0.609375 -0.546875,0.609375 -0.53125,1.65625 z m 4.65697,5.671877 V 14.060621 h 9.15625 v 2.265625 h -6.45313 v 3.15625 h 5.5625 v 2.265625 h -5.5625 v 5.671877 z m 10.77098,-4.968752 q 0,-1.28125 0.625,-2.46875 0.625002,-1.203125 1.781252,-1.828125 1.15625,-0.625 2.57812,-0.625 2.1875,0 3.59375,1.421875 1.40625,1.421875 1.40625,3.609375 0,2.187502 -1.42187,3.640627 -1.42188,1.4375 -3.5625,1.4375 -1.32813,0 -2.54688,-0.59375 -1.20312,-0.609375 -1.828122,-1.765625 -0.625,-1.171875 -0.625,-2.828127 z m 2.625002,0.125 q 0,1.453127 0.67187,2.218752 0.6875,0.75 1.6875,0.75 1,0 1.67188,-0.75 0.6875,-0.765625 0.6875,-2.234377 0,-1.421875 -0.6875,-2.1875 -0.67188,-0.765625 -1.67188,-0.765625 -1,0 -1.6875,0.765625 -0.67187,0.765625 -0.67187,2.203125 z m 11.81785,4.843752 h -2.5625 v -9.671877 h 2.375 v 1.375 q 0.60938,-0.984375 1.09375,-1.28125 0.48438,-0.3125 1.10938,-0.3125 0.875,0 1.6875,0.484375 l -0.79688,2.234375 q -0.64062,-0.421875 -1.20312,-0.421875 -0.53125,0 -0.90625,0.296875 -0.375,0.296875 -0.59375,1.078125 -0.20313,0.765625 -0.20313,3.234377 z m 4.60402,-9.671877 h 2.35938 v 1.3125 q 1.26562,-1.53125 3.01562,-1.53125 0.9375,0 1.60938,0.390625 0.6875,0.375 1.125,1.140625 0.64062,-0.765625 1.375,-1.140625 0.75,-0.390625 1.57812,-0.390625 1.0625,0 1.79688,0.4375 0.75,0.421875 1.10937,1.265625 0.26563,0.625 0.26563,2 v 6.187502 h -2.5625 v -5.531252 q 0,-1.4375 -0.26563,-1.859375 -0.34375,-0.546875 -1.09375,-0.546875 -0.53125,0 -1.01562,0.328125 -0.46875,0.328125 -0.67188,0.96875 -0.20312,0.625 -0.20312,2 v 4.640627 h -2.5625 v -5.296877 q 0,-1.421875 -0.14063,-1.828125 -0.14062,-0.40625 -0.42187,-0.609375 -0.28125,-0.203125 -0.78125,-0.203125 -0.59375,0 -1.0625,0.328125 -0.46875,0.3125 -0.6875,0.921875 -0.20313,0.59375 -0.20313,1.984375 v 4.703127 h -2.5625 z m 15.88527,6.906252 2.5625,-0.390625 q 0.17188,0.75 0.67188,1.140625 0.5,0.390625 1.40625,0.390625 0.98437,0 1.48437,-0.375 0.34375,-0.25 0.34375,-0.671875 0,-0.296875 -0.1875,-0.484375 -0.1875,-0.1875 -0.85937,-0.34375 -3.09375,-0.687502 -3.92188,-1.250002 -1.14062,-0.78125 -1.14062,-2.171875 0,-1.265625 0.98437,-2.109375 1,-0.859375 3.07813,-0.859375 1.98437,0 2.95312,0.65625 0.96875,0.640625 1.32813,1.90625 l -2.40625,0.4375 q -0.15625,-0.5625 -0.59375,-0.859375 -0.42188,-0.296875 -1.23438,-0.296875 -1,0 -1.4375,0.28125 -0.29687,0.203125 -0.29687,0.515625 0,0.265625 0.25,0.46875 0.34375,0.25 2.39062,0.71875 2.04688,0.453125 2.85938,1.140625 0.79687,0.671875 0.79687,1.890627 0,1.34375 -1.10937,2.296875 -1.10938,0.953125 -3.28125,0.953125 -1.98438,0 -3.14063,-0.796875 -1.14062,-0.8125 -1.5,-2.1875 z"
     fill-rule="nonzero"
     id="path43" />
  <path
     fill="#efefef"
     d="m 328.07744,0.5 h 219.62201 v 40 H 328.07744 Z"
     fill-rule="evenodd"
     id="path45" />
  <path
     stroke="#000000"
     stroke-width="1"
     stroke-linejoin="round"
     stroke-linecap="butt"
     d="m 328.07744,0.5 h 219.62201 v 40 H 328.07744 Z"
     fill-rule="evenodd"
     id="path47" />
  <path
     fill="#000000"
     d="m 411.75049,20.826248 q 0,-2.046875 0.60937,-3.421875 0.45313,-1.03125 1.23438,-1.828125 0.79687,-0.8125 1.73437,-1.203125 1.25,-0.53125 2.875,-0.53125 2.95313,0 4.71875,1.828125 1.78125,1.828125 1.78125,5.09375 0,3.234377 -1.76562,5.062502 -1.75,1.828125 -4.6875,1.828125 -2.98438,0 -4.75,-1.8125 -1.75,-1.828125 -1.75,-5.015627 z m 2.78125,-0.09375 q 0,2.265625 1.04687,3.437502 1.04688,1.171875 2.65625,1.171875 1.60938,0 2.64063,-1.15625 1.04687,-1.171877 1.04687,-3.484377 0,-2.296875 -1.01562,-3.421875 -1,-1.140625 -2.67188,-1.140625 -1.67187,0 -2.6875,1.15625 -1.01562,1.140625 -1.01562,3.4375 z m 20.82394,1.78125 2.60938,0.828125 q -0.59375,2.187502 -2,3.250002 -1.39063,1.0625 -3.54688,1.0625 -2.65625,0 -4.375,-1.8125 -1.70312,-1.828125 -1.70312,-4.984377 0,-3.328125 1.71875,-5.171875 1.71875,-1.84375 4.51562,-1.84375 2.45313,0 3.98438,1.4375 0.92187,0.859375 1.375,2.46875 l -2.67188,0.640625 q -0.23437,-1.046875 -0.98437,-1.640625 -0.75,-0.609375 -1.82813,-0.609375 -1.48437,0 -2.42187,1.078125 -0.92188,1.0625 -0.92188,3.4375 0,2.53125 0.90625,3.609377 0.92188,1.078125 2.375,1.078125 1.07813,0 1.84375,-0.671875 0.78125,-0.6875 1.125,-2.156252 z m 4.91043,-8.453125 h 4.9375 q 1.65625,0 2.53125,0.265625 1.1875,0.34375 2.01563,1.234375 0.84375,0.875 1.28125,2.15625 0.4375,1.28125 0.4375,3.15625 0,1.640625 -0.40625,2.843752 -0.5,1.453125 -1.4375,2.359375 -0.70313,0.671875 -1.89063,1.0625 -0.89062,0.28125 -2.39062,0.28125 h -5.07813 z m 2.70313,2.265625 V 25.17 h 2.01562 q 1.125,0 1.625,-0.125 0.65625,-0.171875 1.07813,-0.5625 0.4375,-0.390625 0.70312,-1.281252 0.28125,-0.90625 0.28125,-2.453125 0,-1.546875 -0.28125,-2.375 -0.26562,-0.828125 -0.76562,-1.28125 -0.48438,-0.46875 -1.23438,-0.640625 -0.5625,-0.125 -2.21875,-0.125 z m 10.09796,6.75 2.625,-0.25 q 0.23438,1.312502 0.95313,1.937502 0.73437,0.609375 1.96875,0.609375 1.29687,0 1.95312,-0.546875 0.67188,-0.546875 0.67188,-1.281252 0,-0.484375 -0.28125,-0.8125 -0.28125,-0.328125 -0.96875,-0.578125 -0.48438,-0.15625 -2.17188,-0.578125 -2.15625,-0.546875 -3.03125,-1.328125 -1.23437,-1.09375 -1.23437,-2.6875 0,-1.015625 0.57812,-1.90625 0.57813,-0.890625 1.65625,-1.34375 1.09375,-0.46875 2.64063,-0.46875 2.51562,0 3.78125,1.109375 1.28125,1.09375 1.34375,2.9375 l -2.70313,0.109375 q -0.17187,-1.03125 -0.75,-1.46875 -0.5625,-0.453125 -1.70312,-0.453125 -1.17188,0 -1.84375,0.46875 -0.42188,0.3125 -0.42188,0.84375 0,0.46875 0.40625,0.796875 0.5,0.4375 2.46875,0.90625 1.96875,0.453125 2.90625,0.953125 0.95313,0.5 1.48438,1.359375 0.53125,0.859375 0.53125,2.125 0,1.156252 -0.64063,2.156252 -0.64062,1 -1.8125,1.484375 -1.15625,0.484375 -2.89062,0.484375 -2.53125,0 -3.89063,-1.171875 -1.35937,-1.171875 -1.625,-3.406252 z"
     fill-rule="nonzero"
     id="path49" />
  <path
     fill="#d9d2e9"
     d="m 350.94356,224.63648 h 173.8898 v 97.38583 h -173.8898 z"
     fill-rule="evenodd"
     id="path51" />
  <path
     stroke="#000000"
     stroke-width="1"
     stroke-linejoin="round"
     stroke-linecap="butt"
     d="m 350.94356,224.63648 h 173.8898 v 97.38583 h -173.8898 z"
     fill-rule="evenodd"
     id="path53" />
  <path
     fill="#000000"
     d="m 393.31032,243.41836 q 0,-2.85938 1.53125,-4.46875 1.53125,-1.60938 3.95312,-1.60938 1.57813,0 2.84375,0.76563 1.28125,0.75 1.95313,2.10937 0.67187,1.34375 0.67187,3.0625 0,1.75 -0.70312,3.125 -0.70313,1.37499 -2,2.09374 -1.28125,0.70312 -2.78125,0.70312 -1.60938,0 -2.89063,-0.78125 -1.26562,-0.79686 -1.92187,-2.14061 -0.65625,-1.35937 -0.65625,-2.85937 z m 1.5625,0.0156 q 0,2.07813 1.10937,3.26563 1.10938,1.18748 2.79688,1.18748 1.70312,0 2.8125,-1.20311 1.10937,-1.20312 1.10937,-3.40625 0,-1.40625 -0.48437,-2.4375 -0.46875,-1.04687 -1.375,-1.625 -0.90625,-0.57812 -2.04688,-0.57812 -1.60937,0 -2.76562,1.10937 -1.15625,1.10938 -1.15625,3.6875 z m 11.14844,5.56249 v -8.29686 h 1.26562 v 1.25 q 0.48438,-0.875 0.89063,-1.15625 0.40625,-0.28125 0.90625,-0.28125 0.70312,0 1.4375,0.45312 l -0.48438,1.29688 q -0.51562,-0.29688 -1.03125,-0.29688 -0.45312,0 -0.82812,0.28125 -0.35938,0.26563 -0.51563,0.76563 -0.23437,0.75 -0.23437,1.64062 v 4.34374 z m 5.07812,0.6875 1.375,0.20312 q 0.0781,0.64063 0.46875,0.92188 0.53125,0.39062 1.4375,0.39062 0.96875,0 1.5,-0.39062 0.53125,-0.39063 0.71875,-1.09375 0.10938,-0.42188 0.10938,-1.8125 -0.92188,1.09375 -2.29688,1.09375 -1.71875,0 -2.65625,-1.23438 -0.9375,-1.23436 -0.9375,-2.96873 0,-1.1875 0.42188,-2.1875 0.4375,-1 1.25,-1.54688 0.82812,-0.54687 1.92187,-0.54687 1.46875,0 2.42188,1.1875 v -1 h 1.29687 v 7.17186 q 0,1.9375 -0.39062,2.75 -0.39063,0.8125 -1.25,1.28125 -0.85938,0.46875 -2.10938,0.46875 -1.48437,0 -2.40625,-0.67188 -0.90625,-0.67187 -0.875,-2.01562 z m 1.17188,-4.98436 q 0,1.625 0.64062,2.375 0.65625,0.74998 1.625,0.74998 0.96875,0 1.625,-0.73436 0.65625,-0.75 0.65625,-2.34375 0,-1.53125 -0.67187,-2.29687 -0.67188,-0.78125 -1.625,-0.78125 -0.9375,0 -1.59375,0.76562 -0.65625,0.76563 -0.65625,2.26563 z m 13.39843,3.26563 q -0.78125,0.67187 -1.5,0.95312 -0.71875,0.26563 -1.54687,0.26563 -1.375,0 -2.10938,-0.67188 -0.73437,-0.67187 -0.73437,-1.70311 0,-0.60937 0.28125,-1.10937 0.28125,-0.51563 0.71875,-0.8125 0.45312,-0.3125 1.01562,-0.46875 0.42188,-0.10938 1.25,-0.20313 1.70313,-0.20312 2.51563,-0.48437 0,-0.29688 0,-0.375 0,-0.85938 -0.39063,-1.20313 -0.54687,-0.48437 -1.60937,-0.48437 -0.98438,0 -1.46875,0.35937 -0.46875,0.34375 -0.6875,1.21875 l -1.375,-0.1875 q 0.1875,-0.875 0.60937,-1.42187 0.4375,-0.54688 1.25,-0.82813 0.8125,-0.29687 1.875,-0.29687 1.0625,0 1.71875,0.25 0.67188,0.25 0.98438,0.625 0.3125,0.375 0.4375,0.95312 0.0781,0.35938 0.0781,1.29688 v 1.875 q 0,1.96875 0.0781,2.48436 0.0937,0.51562 0.35937,1 h -1.46875 q -0.21875,-0.4375 -0.28125,-1.03125 z m -0.10937,-3.14061 q -0.76563,0.3125 -2.29688,0.53125 -0.875,0.125 -1.23437,0.28125 -0.35938,0.15625 -0.5625,0.46875 -0.1875,0.29687 -0.1875,0.65625 0,0.5625 0.42187,0.9375 0.4375,0.37498 1.25,0.37498 0.8125,0 1.4375,-0.34375 0.64063,-0.35936 0.9375,-0.98436 0.23438,-0.46875 0.23438,-1.40625 z m 3.60156,4.17186 v -8.29686 h 1.26563 v 1.17187 q 0.90625,-1.35937 2.64062,-1.35937 0.75,0 1.375,0.26562 0.625,0.26563 0.9375,0.70313 0.3125,0.4375 0.4375,1.04687 0.0781,0.39063 0.0781,1.35938 v 5.10936 h -1.40625 v -5.04686 q 0,-0.85938 -0.17188,-1.28125 -0.15625,-0.4375 -0.57812,-0.6875 -0.40625,-0.25 -0.96875,-0.25 -0.90625,0 -1.5625,0.57812 -0.64063,0.5625 -0.64063,2.15625 v 4.53124 z m 8.89844,-9.84374 v -1.60937 h 1.40625 v 1.60937 z m 0,9.84374 v -8.29686 h 1.40625 v 8.29686 z m 2.80469,0 v -1.14063 l 5.28125,-6.06248 q -0.89063,0.0469 -1.57813,0.0469 h -3.39062 v -1.14062 h 6.78125 v 0.92187 l -4.48438,5.26563 -0.875,0.96873 q 0.95313,-0.0781 1.78125,-0.0781 h 3.82813 v 1.21875 z m 14.15625,-1.03125 q -0.78125,0.67187 -1.5,0.95312 -0.71875,0.26563 -1.54688,0.26563 -1.375,0 -2.10937,-0.67188 -0.73438,-0.67187 -0.73438,-1.70311 0,-0.60937 0.28125,-1.10937 0.28125,-0.51563 0.71875,-0.8125 0.45313,-0.3125 1.01563,-0.46875 0.42187,-0.10938 1.25,-0.20313 1.70312,-0.20312 2.51562,-0.48437 0,-0.29688 0,-0.375 0,-0.85938 -0.39062,-1.20313 -0.54688,-0.48437 -1.60938,-0.48437 -0.98437,0 -1.46875,0.35937 -0.46875,0.34375 -0.6875,1.21875 l -1.375,-0.1875 q 0.1875,-0.875 0.60938,-1.42187 0.4375,-0.54688 1.25,-0.82813 0.8125,-0.29687 1.875,-0.29687 1.0625,0 1.71875,0.25 0.67187,0.25 0.98437,0.625 0.3125,0.375 0.4375,0.95312 0.0781,0.35938 0.0781,1.29688 v 1.875 q 0,1.96875 0.0781,2.48436 0.0937,0.51562 0.35938,1 h -1.46875 q -0.21875,-0.4375 -0.28125,-1.03125 z m -0.10938,-3.14061 q -0.76562,0.3125 -2.29687,0.53125 -0.875,0.125 -1.23438,0.28125 -0.35937,0.15625 -0.5625,0.46875 -0.1875,0.29687 -0.1875,0.65625 0,0.5625 0.42188,0.9375 0.4375,0.37498 1.25,0.37498 0.8125,0 1.4375,-0.34375 0.64062,-0.35936 0.9375,-0.98436 0.23437,-0.46875 0.23437,-1.40625 z m 6.66406,2.90623 0.20313,1.25 q -0.59375,0.125 -1.0625,0.125 -0.76563,0 -1.1875,-0.23437 -0.42188,-0.25 -0.59375,-0.64063 -0.17188,-0.40625 -0.17188,-1.67186 v -4.76562 h -1.03125 v -1.09375 h 1.03125 v -2.0625 l 1.40625,-0.84375 v 2.90625 h 1.40625 v 1.09375 h -1.40625 v 4.84375 q 0,0.60937 0.0625,0.78125 0.0781,0.17187 0.25,0.28125 0.17188,0.0937 0.48438,0.0937 0.23437,0 0.60937,-0.0625 z m 1.38282,-8.57811 v -1.60937 h 1.40625 v 1.60937 z m 0,9.84374 v -8.29686 h 1.40625 v 8.29686 z m 3.02343,-4.15624 q 0,-2.29687 1.28125,-3.40625 1.07813,-0.92187 2.60938,-0.92187 1.71875,0 2.79687,1.125 1.09375,1.10937 1.09375,3.09375 0,1.59375 -0.48437,2.51562 -0.48438,0.92186 -1.40625,1.43749 -0.90625,0.5 -2,0.5 -1.73438,0 -2.8125,-1.10938 -1.07813,-1.12498 -1.07813,-3.23436 z m 1.45313,0 q 0,1.59375 0.6875,2.39063 0.70312,0.79686 1.75,0.79686 1.04687,0 1.73437,-0.79686 0.70313,-0.79688 0.70313,-2.4375 0,-1.53125 -0.70313,-2.32813 -0.6875,-0.79687 -1.73437,-0.79687 -1.04688,0 -1.75,0.79687 -0.6875,0.78125 -0.6875,2.375 z m 7.97656,4.15624 v -8.29686 h 1.26563 v 1.17187 q 0.90625,-1.35937 2.64062,-1.35937 0.75,0 1.375,0.26562 0.625,0.26563 0.9375,0.70313 0.3125,0.4375 0.4375,1.04687 0.0781,0.39063 0.0781,1.35938 v 5.10936 h -1.40625 v -5.04686 q 0,-0.85938 -0.17188,-1.28125 -0.15625,-0.4375 -0.57812,-0.6875 -0.40625,-0.25 -0.96875,-0.25 -0.90625,0 -1.5625,0.57812 -0.64063,0.5625 -0.64063,2.15625 v 4.53124 z"
     fill-rule="nonzero"
     id="path55" />
  <path
     fill="#cfe2f3"
     d="m 370.56519,260.68372 h 134.64566 v 47.96851 H 370.56519 Z"
     fill-rule="evenodd"
     id="path57" />
  <path
     stroke="#000000"
     stroke-width="1"
     stroke-linejoin="round"
     stroke-linecap="butt"
     d="m 370.56519,260.68372 h 134.64566 v 47.96851 H 370.56519 Z"
     fill-rule="evenodd"
     id="path59" />
  <path
     fill="#000000"
     d="m 393.30989,275.44984 q 0,-2.85938 1.53125,-4.46875 1.53125,-1.60938 3.95312,-1.60938 1.57813,0 2.84375,0.76563 1.28125,0.75 1.95313,2.10937 0.67187,1.34375 0.67187,3.0625 0,1.75 -0.70312,3.125 -0.70313,1.375 -2,2.09375 -1.28125,0.70313 -2.78125,0.70313 -1.60938,0 -2.89063,-0.78125 -1.26562,-0.79688 -1.92187,-2.14063 -0.65625,-1.35937 -0.65625,-2.85937 z m 1.5625,0.0156 q 0,2.07813 1.10937,3.26563 1.10938,1.1875 2.79688,1.1875 1.70312,0 2.8125,-1.20313 1.10937,-1.20312 1.10937,-3.40625 0,-1.40625 -0.48437,-2.4375 -0.46875,-1.04687 -1.375,-1.625 -0.90625,-0.57812 -2.04688,-0.57812 -1.60937,0 -2.76562,1.10937 -1.15625,1.10938 -1.15625,3.6875 z m 11.14844,5.5625 v -8.29687 h 1.26562 v 1.25 q 0.48438,-0.875 0.89063,-1.15625 0.40625,-0.28125 0.90625,-0.28125 0.70312,0 1.4375,0.45312 l -0.48438,1.29688 q -0.51562,-0.29688 -1.03125,-0.29688 -0.45312,0 -0.82812,0.28125 -0.35938,0.26563 -0.51563,0.76563 -0.23437,0.75 -0.23437,1.64062 v 4.34375 z m 5.07812,0.6875 1.375,0.20313 q 0.0781,0.64062 0.46875,0.92187 0.53125,0.39063 1.4375,0.39063 0.96875,0 1.5,-0.39063 0.53125,-0.39062 0.71875,-1.09375 0.10938,-0.42187 0.10938,-1.8125 -0.92188,1.09375 -2.29688,1.09375 -1.71875,0 -2.65625,-1.23437 -0.9375,-1.23438 -0.9375,-2.96875 0,-1.1875 0.42188,-2.1875 0.4375,-1 1.25,-1.54688 0.82812,-0.54687 1.92187,-0.54687 1.46875,0 2.42188,1.1875 v -1 h 1.29687 v 7.17187 q 0,1.9375 -0.39062,2.75 -0.39063,0.8125 -1.25,1.28125 -0.85938,0.46875 -2.10938,0.46875 -1.48437,0 -2.40625,-0.67187 -0.90625,-0.67188 -0.875,-2.01563 z m 1.17188,-4.98437 q 0,1.625 0.64062,2.375 0.65625,0.75 1.625,0.75 0.96875,0 1.625,-0.73438 0.65625,-0.75 0.65625,-2.34375 0,-1.53125 -0.67187,-2.29687 -0.67188,-0.78125 -1.625,-0.78125 -0.9375,0 -1.59375,0.76562 -0.65625,0.76563 -0.65625,2.26563 z m 13.39843,3.26562 q -0.78125,0.67188 -1.5,0.95313 -0.71875,0.26562 -1.54687,0.26562 -1.375,0 -2.10938,-0.67187 -0.73437,-0.67188 -0.73437,-1.70313 0,-0.60937 0.28125,-1.10937 0.28125,-0.51563 0.71875,-0.8125 0.45312,-0.3125 1.01562,-0.46875 0.42188,-0.10938 1.25,-0.20313 1.70313,-0.20312 2.51563,-0.48437 0,-0.29688 0,-0.375 0,-0.85938 -0.39063,-1.20313 -0.54687,-0.48437 -1.60937,-0.48437 -0.98438,0 -1.46875,0.35937 -0.46875,0.34375 -0.6875,1.21875 l -1.375,-0.1875 q 0.1875,-0.875 0.60937,-1.42187 0.4375,-0.54688 1.25,-0.82813 0.8125,-0.29687 1.875,-0.29687 1.0625,0 1.71875,0.25 0.67188,0.25 0.98438,0.625 0.3125,0.375 0.4375,0.95312 0.0781,0.35938 0.0781,1.29688 v 1.875 q 0,1.96875 0.0781,2.48437 0.0937,0.51563 0.35937,1 h -1.46875 q -0.21875,-0.4375 -0.28125,-1.03125 z m -0.10937,-3.14062 q -0.76563,0.3125 -2.29688,0.53125 -0.875,0.125 -1.23437,0.28125 -0.35938,0.15625 -0.5625,0.46875 -0.1875,0.29687 -0.1875,0.65625 0,0.5625 0.42187,0.9375 0.4375,0.375 1.25,0.375 0.8125,0 1.4375,-0.34375 0.64063,-0.35938 0.9375,-0.98438 0.23438,-0.46875 0.23438,-1.40625 z m 3.60156,4.17187 v -8.29687 h 1.26563 v 1.17187 q 0.90625,-1.35937 2.64062,-1.35937 0.75,0 1.375,0.26562 0.625,0.26563 0.9375,0.70313 0.3125,0.4375 0.4375,1.04687 0.0781,0.39063 0.0781,1.35938 v 5.10937 h -1.40625 v -5.04687 q 0,-0.85938 -0.17188,-1.28125 -0.15625,-0.4375 -0.57812,-0.6875 -0.40625,-0.25 -0.96875,-0.25 -0.90625,0 -1.5625,0.57812 -0.64063,0.5625 -0.64063,2.15625 v 4.53125 z m 8.89844,-9.84375 v -1.60937 h 1.40625 v 1.60937 z m 0,9.84375 v -8.29687 h 1.40625 v 8.29687 z m 2.80469,0 v -1.14062 l 5.28125,-6.0625 q -0.89063,0.0469 -1.57813,0.0469 h -3.39062 v -1.14062 h 6.78125 v 0.92187 l -4.48438,5.26563 -0.875,0.96875 q 0.95313,-0.0781 1.78125,-0.0781 h 3.82813 v 1.21875 z m 14.15625,-1.03125 q -0.78125,0.67188 -1.5,0.95313 -0.71875,0.26562 -1.54688,0.26562 -1.375,0 -2.10937,-0.67187 -0.73438,-0.67188 -0.73438,-1.70313 0,-0.60937 0.28125,-1.10937 0.28125,-0.51563 0.71875,-0.8125 0.45313,-0.3125 1.01563,-0.46875 0.42187,-0.10938 1.25,-0.20313 1.70312,-0.20312 2.51562,-0.48437 0,-0.29688 0,-0.375 0,-0.85938 -0.39062,-1.20313 -0.54688,-0.48437 -1.60938,-0.48437 -0.98437,0 -1.46875,0.35937 -0.46875,0.34375 -0.6875,1.21875 l -1.375,-0.1875 q 0.1875,-0.875 0.60938,-1.42187 0.4375,-0.54688 1.25,-0.82813 0.8125,-0.29687 1.875,-0.29687 1.0625,0 1.71875,0.25 0.67187,0.25 0.98437,0.625 0.3125,0.375 0.4375,0.95312 0.0781,0.35938 0.0781,1.29688 v 1.875 q 0,1.96875 0.0781,2.48437 0.0937,0.51563 0.35938,1 h -1.46875 q -0.21875,-0.4375 -0.28125,-1.03125 z m -0.10938,-3.14062 q -0.76562,0.3125 -2.29687,0.53125 -0.875,0.125 -1.23438,0.28125 -0.35937,0.15625 -0.5625,0.46875 -0.1875,0.29687 -0.1875,0.65625 0,0.5625 0.42188,0.9375 0.4375,0.375 1.25,0.375 0.8125,0 1.4375,-0.34375 0.64062,-0.35938 0.9375,-0.98438 0.23437,-0.46875 0.23437,-1.40625 z m 6.66406,2.90625 0.20313,1.25 q -0.59375,0.125 -1.0625,0.125 -0.76563,0 -1.1875,-0.23438 -0.42188,-0.25 -0.59375,-0.64062 -0.17188,-0.40625 -0.17188,-1.67188 v -4.76562 h -1.03125 v -1.09375 h 1.03125 v -2.0625 l 1.40625,-0.84375 v 2.90625 h 1.40625 v 1.09375 h -1.40625 v 4.84375 q 0,0.60937 0.0625,0.78125 0.0781,0.17187 0.25,0.28125 0.17188,0.0937 0.48438,0.0937 0.23437,0 0.60937,-0.0625 z m 1.38282,-8.57813 v -1.60937 h 1.40625 v 1.60937 z m 0,9.84375 v -8.29687 h 1.40625 v 8.29687 z m 3.02343,-4.15625 q 0,-2.29687 1.28125,-3.40625 1.07813,-0.92187 2.60938,-0.92187 1.71875,0 2.79687,1.125 1.09375,1.10937 1.09375,3.09375 0,1.59375 -0.48437,2.51562 -0.48438,0.92188 -1.40625,1.4375 -0.90625,0.5 -2,0.5 -1.73438,0 -2.8125,-1.10937 -1.07813,-1.125 -1.07813,-3.23438 z m 1.45313,0 q 0,1.59375 0.6875,2.39063 0.70312,0.79687 1.75,0.79687 1.04687,0 1.73437,-0.79687 0.70313,-0.79688 0.70313,-2.4375 0,-1.53125 -0.70313,-2.32813 -0.6875,-0.79687 -1.73437,-0.79687 -1.04688,0 -1.75,0.79687 -0.6875,0.78125 -0.6875,2.375 z m 7.97656,4.15625 v -8.29687 h 1.26563 v 1.17187 q 0.90625,-1.35937 2.64062,-1.35937 0.75,0 1.375,0.26562 0.625,0.26563 0.9375,0.70313 0.3125,0.4375 0.4375,1.04687 0.0781,0.39063 0.0781,1.35938 v 5.10937 h -1.40625 v -5.04687 q 0,-0.85938 -0.17188,-1.28125 -0.15625,-0.4375 -0.57812,-0.6875 -0.40625,-0.25 -0.96875,-0.25 -0.90625,0 -1.5625,0.57812 -0.64063,0.5625 -0.64063,2.15625 v 4.53125 z"
     fill-rule="nonzero"
     id="path61" />
  <path
     fill="#000000"
     d="m 408.71223,290.18422 v -1.60938 h 1.40625 v 1.60938 z m 0,9.84375 v -8.29688 h 1.40625 v 8.29688 z m 8.92969,0 v -1.04688 q -0.78125,1.23438 -2.3125,1.23438 -1,0 -1.82813,-0.54688 -0.82812,-0.54687 -1.29687,-1.53125 -0.45313,-0.98437 -0.45313,-2.25 0,-1.25 0.40625,-2.25 0.42188,-1.01562 1.25,-1.54687 0.82813,-0.54688 1.85938,-0.54688 0.75,0 1.32812,0.3125 0.59375,0.3125 0.95313,0.82813 v -4.10938 h 1.40625 v 11.45313 z m -4.4375,-4.14063 q 0,1.59375 0.67187,2.39063 0.67188,0.78125 1.57813,0.78125 0.92187,0 1.5625,-0.75 0.65625,-0.76563 0.65625,-2.3125 0,-1.70313 -0.65625,-2.5 -0.65625,-0.79688 -1.625,-0.79688 -0.9375,0 -1.5625,0.76563 -0.625,0.76562 -0.625,2.42187 z m 13.63281,1.46875 1.45312,0.17188 q -0.34375,1.28125 -1.28125,1.98437 -0.92187,0.70313 -2.35937,0.70313 -1.82813,0 -2.89063,-1.125 -1.0625,-1.125 -1.0625,-3.14063 0,-2.09375 1.07813,-3.25 1.07812,-1.15625 2.79687,-1.15625 1.65625,0 2.70313,1.14063 1.0625,1.125 1.0625,3.17187 0,0.125 0,0.375 h -6.1875 q 0.0781,1.375 0.76562,2.10938 0.70313,0.71875 1.73438,0.71875 0.78125,0 1.32812,-0.40625 0.54688,-0.40625 0.85938,-1.29688 z m -4.60938,-2.28125 h 4.625 q -0.0937,-1.04687 -0.53125,-1.5625 -0.67187,-0.8125 -1.73437,-0.8125 -0.96875,0 -1.64063,0.65625 -0.65625,0.64063 -0.71875,1.71875 z m 7.83594,4.95313 v -8.29688 h 1.26563 v 1.17188 q 0.90625,-1.35938 2.64062,-1.35938 0.75,0 1.375,0.26563 0.625,0.26562 0.9375,0.70312 0.3125,0.4375 0.4375,1.04688 0.0781,0.39062 0.0781,1.35937 v 5.10938 h -1.40625 v -5.04688 q 0,-0.85937 -0.17188,-1.28125 -0.15625,-0.4375 -0.57812,-0.6875 -0.40625,-0.25 -0.96875,-0.25 -0.90625,0 -1.5625,0.57813 -0.64063,0.5625 -0.64063,2.15625 v 4.53125 z m 11.96094,-1.26563 0.20312,1.25 q -0.59375,0.125 -1.0625,0.125 -0.76562,0 -1.1875,-0.23437 -0.42187,-0.25 -0.59375,-0.64063 -0.17187,-0.40625 -0.17187,-1.67187 v -4.76563 h -1.03125 v -1.09375 h 1.03125 v -2.0625 l 1.40625,-0.84375 v 2.90625 h 1.40625 v 1.09375 h -1.40625 v 4.84375 q 0,0.60938 0.0625,0.78125 0.0781,0.17188 0.25,0.28125 0.17187,0.0937 0.48437,0.0937 0.23438,0 0.60938,-0.0625 z m 1.38281,-8.57812 v -1.60938 h 1.40625 v 1.60938 z m 0,9.84375 v -8.29688 h 1.40625 v 8.29688 z m 3.88281,0 v -7.20313 h -1.23437 v -1.09375 h 1.23437 v -0.89062 q 0,-0.82813 0.15625,-1.23438 0.20313,-0.54687 0.70313,-0.89062 0.51562,-0.34375 1.4375,-0.34375 0.59375,0 1.3125,0.14062 l -0.20313,1.23438 q -0.4375,-0.0781 -0.82812,-0.0781 -0.64063,0 -0.90625,0.28125 -0.26563,0.26563 -0.26563,1.01563 v 0.76562 h 1.60938 v 1.09375 h -1.60938 v 7.20313 z m 4.11719,-9.84375 v -1.60938 h 1.40625 v 1.60938 z m 0,9.84375 v -8.29688 h 1.40625 v 8.29688 z m 9.22656,-2.67188 1.45313,0.17188 q -0.34375,1.28125 -1.28125,1.98437 -0.92188,0.70313 -2.35938,0.70313 -1.82812,0 -2.89062,-1.125 -1.0625,-1.125 -1.0625,-3.14063 0,-2.09375 1.07812,-3.25 1.07813,-1.15625 2.79688,-1.15625 1.65625,0 2.70312,1.14063 1.0625,1.125 1.0625,3.17187 0,0.125 0,0.375 h -6.1875 q 0.0781,1.375 0.76563,2.10938 0.70312,0.71875 1.73437,0.71875 0.78125,0 1.32813,-0.40625 0.54687,-0.40625 0.85937,-1.29688 z m -4.60937,-2.28125 h 4.625 q -0.0937,-1.04687 -0.53125,-1.5625 -0.67188,-0.8125 -1.73438,-0.8125 -0.96875,0 -1.64062,0.65625 -0.65625,0.64063 -0.71875,1.71875 z m 7.82031,4.95313 v -8.29688 h 1.26563 v 1.25 q 0.48437,-0.875 0.89062,-1.15625 0.40625,-0.28125 0.90625,-0.28125 0.70313,0 1.4375,0.45313 l -0.48437,1.29687 q -0.51563,-0.29687 -1.03125,-0.29687 -0.45313,0 -0.82813,0.28125 -0.35937,0.26562 -0.51562,0.76562 -0.23438,0.75 -0.23438,1.64063 v 4.34375 z"
     fill-rule="nonzero"
     id="path63" />
  <path
     fill="#cfe2f3"
     d="M 56.016988,170.60762 H 164.61542 v 47.96849 H 56.016988 Z"
     fill-rule="evenodd"
     id="path65" />
  <path
     stroke="#000000"
     stroke-width="1"
     stroke-linejoin="round"
     stroke-linecap="butt"
     d="M 56.016988,170.60762 H 164.61542 v 47.96849 H 56.016988 Z"
     fill-rule="evenodd"
     id="path67" />
  <path
     fill="#000000"
     d="m 67.547648,199.11186 v -8.59375 h 3.25 q 0.84375,0 1.296875,0.0781 0.640625,0.10938 1.0625,0.40625 0.4375,0.29688 0.6875,0.82813 0.265625,0.53125 0.265625,1.17187 0,1.09375 -0.703125,1.85938 -0.6875,0.75 -2.515625,0.75 h -2.203125 v 3.5 z m 1.140625,-4.5 h 2.21875 q 1.109375,0 1.5625,-0.40625 0.46875,-0.42188 0.46875,-1.17188 0,-0.53125 -0.28125,-0.90625 -0.265625,-0.39062 -0.703125,-0.51562 -0.296875,-0.0781 -1.0625,-0.0781 h -2.203125 z m 10.800781,3.73437 q -0.59375,0.5 -1.140625,0.70313 -0.53125,0.20312 -1.15625,0.20312 -1.03125,0 -1.578125,-0.5 -0.546875,-0.5 -0.546875,-1.28125 0,-0.45312 0.203125,-0.82812 0.203125,-0.39063 0.546875,-0.60938 0.34375,-0.23437 0.765625,-0.34375 0.296875,-0.0937 0.9375,-0.17187 1.265625,-0.14063 1.875,-0.35938 0,-0.21875 0,-0.26562 0,-0.65625 -0.296875,-0.92188 -0.40625,-0.34375 -1.203125,-0.34375 -0.734375,0 -1.09375,0.26563 -0.359375,0.25 -0.53125,0.90625 l -1.03125,-0.14063 q 0.140625,-0.65625 0.46875,-1.0625 0.328125,-0.40625 0.9375,-0.625 0.609375,-0.21875 1.40625,-0.21875 0.796875,0 1.296875,0.1875 0.5,0.1875 0.734375,0.46875 0.234375,0.28125 0.328125,0.71875 0.04687,0.26563 0.04687,0.96875 v 1.40625 q 0,1.46875 0.0625,1.85938 0.07813,0.39062 0.28125,0.75 h -1.109375 q -0.15625,-0.32813 -0.203125,-0.76563 z m -0.09375,-2.35937 q -0.578125,0.23437 -1.71875,0.40625 -0.65625,0.0937 -0.921875,0.21875 -0.265625,0.10937 -0.421875,0.32812 -0.140625,0.21875 -0.140625,0.5 0,0.42188 0.3125,0.70313 0.328125,0.28125 0.9375,0.28125 0.609375,0 1.078125,-0.26563 0.484375,-0.26562 0.703125,-0.73437 0.171875,-0.35938 0.171875,-1.04688 z m 2.689453,3.125 v -6.21875 h 0.953125 v 0.9375 q 0.359375,-0.65625 0.65625,-0.85938 0.3125,-0.21875 0.6875,-0.21875 0.53125,0 1.078125,0.32813 l -0.359375,0.98437 q -0.390625,-0.23437 -0.765625,-0.23437 -0.359375,0 -0.640625,0.21875 -0.265625,0.20312 -0.375,0.57812 -0.1875,0.5625 -0.1875,1.21875 v 3.26563 z m 6.308591,-0.9375 0.15625,0.92187 q -0.453122,0.0937 -0.796872,0.0937 -0.578125,0 -0.890625,-0.17187 -0.3125,-0.1875 -0.453125,-0.48438 -0.125,-0.29687 -0.125,-1.25 v -3.57812 h -0.765625 v -0.8125 h 0.765625 v -1.54688 l 1.046875,-0.625 v 2.17188 h 1.062497 v 0.8125 h -1.062497 v 3.64062 q 0,0.45313 0.04687,0.57813 0.0625,0.125 0.1875,0.20312 0.125,0.0781 0.359375,0.0781 0.1875,0 0.468752,-0.0312 z m 0.99024,3.32812 -0.125,-0.98437 q 0.34375,0.0937 0.60937,0.0937 0.34375,0 0.54688,-0.125 0.21875,-0.10938 0.35937,-0.3125 0.0937,-0.17188 0.32813,-0.79688 0.0156,-0.0781 0.0937,-0.25 l -2.375,-6.23437 h 1.14062 l 1.29688,3.59375 q 0.25,0.6875 0.45312,1.45312 0.1875,-0.73437 0.4375,-1.42187 l 1.32813,-3.625 h 1.04687 l -2.35937,6.32812 q -0.39063,1.01563 -0.59375,1.40625 -0.28125,0.53125 -0.65625,0.76563 -0.35938,0.25 -0.85938,0.25 -0.29687,0 -0.67187,-0.14063 z m 6.125,-2.39062 v -8.59375 h 1.14062 v 7.57812 h 4.234382 v 1.01563 z m 10.845702,-2 1.09375,0.125 q -0.25,0.95312 -0.95312,1.48437 -0.70313,0.53125 -1.78125,0.53125 -1.35938,0 -2.17188,-0.84375 -0.79687,-0.84375 -0.79687,-2.35937 0,-1.5625 0.8125,-2.42188 0.8125,-0.875 2.09375,-0.875 1.25,0 2.03125,0.84375 0.79687,0.84375 0.79687,2.39063 0,0.0937 0,0.28125 h -4.64062 q 0.0625,1.03125 0.57812,1.57812 0.51563,0.53125 1.29688,0.53125 0.57812,0 0.98437,-0.29687 0.42188,-0.3125 0.65625,-0.96875 z m -3.45312,-1.70313 h 3.46875 q -0.0625,-0.79687 -0.39063,-1.1875 -0.51562,-0.60937 -1.3125,-0.60937 -0.73437,0 -1.23437,0.48437 -0.48438,0.48438 -0.53125,1.3125 z m 5.67382,4.21875 1.03125,0.15625 q 0.0625,0.46875 0.35938,0.6875 0.39062,0.29688 1.0625,0.29688 0.73437,0 1.125,-0.29688 0.40625,-0.29687 0.54687,-0.8125 0.0937,-0.32812 0.0781,-1.35937 -0.6875,0.8125 -1.71875,0.8125 -1.28125,0 -1.98438,-0.92188 -0.70312,-0.9375 -0.70312,-2.21875 0,-0.89062 0.3125,-1.64062 0.32812,-0.76563 0.9375,-1.17188 0.60937,-0.40625 1.4375,-0.40625 1.10937,0 1.82812,0.89063 v -0.75 h 0.96875 v 5.375 q 0,1.45312 -0.29687,2.0625 -0.29688,0.60937 -0.9375,0.95312 -0.64063,0.35938 -1.57813,0.35938 -1.10937,0 -1.79687,-0.5 -0.6875,-0.5 -0.67188,-1.51563 z m 0.875,-3.73437 q 0,1.21875 0.48438,1.78125 0.48437,0.5625 1.21875,0.5625 0.73437,0 1.21875,-0.5625 0.5,-0.5625 0.5,-1.75 0,-1.14063 -0.51563,-1.71875 -0.5,-0.57813 -1.21875,-0.57813 -0.70312,0 -1.20312,0.57813 -0.48438,0.5625 -0.48438,1.6875 z m 10.06446,2.45312 q -0.59375,0.5 -1.14063,0.70313 -0.53125,0.20312 -1.15625,0.20312 -1.03125,0 -1.57812,-0.5 -0.54688,-0.5 -0.54688,-1.28125 0,-0.45312 0.20313,-0.82812 0.20312,-0.39063 0.54687,-0.60938 0.34375,-0.23437 0.76563,-0.34375 0.29687,-0.0937 0.9375,-0.17187 1.26562,-0.14063 1.875,-0.35938 0,-0.21875 0,-0.26562 0,-0.65625 -0.29688,-0.92188 -0.40625,-0.34375 -1.20312,-0.34375 -0.73438,0 -1.09375,0.26563 -0.35938,0.25 -0.53125,0.90625 l -1.03125,-0.14063 q 0.14062,-0.65625 0.46875,-1.0625 0.32812,-0.40625 0.9375,-0.625 0.60937,-0.21875 1.40625,-0.21875 0.79687,0 1.29687,0.1875 0.5,0.1875 0.73438,0.46875 0.23437,0.28125 0.32812,0.71875 0.0469,0.26563 0.0469,0.96875 v 1.40625 q 0,1.46875 0.0625,1.85938 0.0781,0.39062 0.28125,0.75 h -1.10938 q -0.15625,-0.32813 -0.20312,-0.76563 z m -0.0937,-2.35937 q -0.57813,0.23437 -1.71875,0.40625 -0.65625,0.0937 -0.92188,0.21875 -0.26562,0.10937 -0.42187,0.32812 -0.14063,0.21875 -0.14063,0.5 0,0.42188 0.3125,0.70313 0.32813,0.28125 0.9375,0.28125 0.60938,0 1.07813,-0.26563 0.48437,-0.26562 0.70312,-0.73437 0.17188,-0.35938 0.17188,-1.04688 z m 2.67382,3.125 v -8.59375 h 1.0625 v 8.59375 z m 2.85352,0 v -8.59375 h 6.20312 v 1.01562 h -5.0625 v 2.625 h 4.75 v 1.01563 h -4.75 v 2.92187 h 5.26563 v 1.01563 z m 7.84766,0 v -6.21875 h 0.9375 v 0.875 q 0.6875,-1.01563 1.98437,-1.01563 0.5625,0 1.03125,0.20313 0.48438,0.20312 0.71875,0.53125 0.23438,0.32812 0.32813,0.76562 0.0469,0.29688 0.0469,1.03125 v 3.82813 h -1.04687 v -3.78125 q 0,-0.65625 -0.125,-0.96875 -0.125,-0.3125 -0.4375,-0.5 -0.3125,-0.20313 -0.73438,-0.20313 -0.67187,0 -1.17187,0.4375 -0.48438,0.42188 -0.48438,1.60938 v 3.40625 z m 8.9707,-0.9375 0.15625,0.92187 q -0.45313,0.0937 -0.79688,0.0937 -0.57812,0 -0.89062,-0.17187 -0.3125,-0.1875 -0.45313,-0.48438 -0.125,-0.29687 -0.125,-1.25 v -3.57812 h -0.76562 v -0.8125 h 0.76562 v -1.54688 l 1.04688,-0.625 v 2.17188 h 1.0625 v 0.8125 h -1.0625 v 3.64062 q 0,0.45313 0.0469,0.57813 0.0625,0.125 0.1875,0.20312 0.125,0.0781 0.35938,0.0781 0.1875,0 0.46875,-0.0312 z m 1.03711,-6.4375 v -1.21875 h 1.0625 v 1.21875 z m 0,7.375 v -6.21875 h 1.0625 v 6.21875 z m 4.96289,-0.9375 0.15625,0.92187 q -0.45313,0.0937 -0.79688,0.0937 -0.57812,0 -0.89062,-0.17187 -0.3125,-0.1875 -0.45313,-0.48438 -0.125,-0.29687 -0.125,-1.25 v -3.57812 h -0.76562 v -0.8125 h 0.76562 v -1.54688 l 1.04688,-0.625 v 2.17188 h 1.0625 v 0.8125 h -1.0625 v 3.64062 q 0,0.45313 0.0469,0.57813 0.0625,0.125 0.1875,0.20312 0.125,0.0781 0.35938,0.0781 0.1875,0 0.46875,-0.0312 z m 0.99023,3.32812 -0.125,-0.98437 q 0.34375,0.0937 0.60938,0.0937 0.34375,0 0.54687,-0.125 0.21875,-0.10938 0.35938,-0.3125 0.0937,-0.17188 0.32812,-0.79688 0.0156,-0.0781 0.0937,-0.25 l -2.375,-6.23437 h 1.14063 l 1.29687,3.59375 q 0.25,0.6875 0.45313,1.45312 0.1875,-0.73437 0.4375,-1.42187 l 1.32812,-3.625 h 1.04688 l -2.35938,6.32812 q -0.39062,1.01563 -0.59375,1.40625 -0.28125,0.53125 -0.65625,0.76563 -0.35937,0.25 -0.85937,0.25 -0.29688,0 -0.67188,-0.14063 z"
     fill-rule="nonzero"
     id="path69" />
  <path
     fill="#d9ead3"
     d="m 350.94356,87.345143 h 173.8898 v 97.385827 h -173.8898 z"
     fill-rule="evenodd"
     id="path71" />
  <path
     stroke="#000000"
     stroke-width="1"
     stroke-linejoin="round"
     stroke-linecap="butt"
     d="m 350.94356,87.345143 h 173.8898 v 97.385827 h -173.8898 z"
     fill-rule="evenodd"
     id="path73" />
  <path
     fill="#000000"
     d="m 393.31032,106.12702 q 0,-2.85937 1.53125,-4.46875 1.53125,-1.60937 3.95312,-1.60937 1.57813,0 2.84375,0.76562 1.28125,0.75 1.95313,2.10938 0.67187,1.34375 0.67187,3.0625 0,1.75 -0.70312,3.125 -0.70313,1.375 -2,2.09375 -1.28125,0.70312 -2.78125,0.70312 -1.60938,0 -2.89063,-0.78125 -1.26562,-0.79687 -1.92187,-2.14062 -0.65625,-1.35938 -0.65625,-2.85938 z m 1.5625,0.0156 q 0,2.07812 1.10937,3.26562 1.10938,1.1875 2.79688,1.1875 1.70312,0 2.8125,-1.20312 1.10937,-1.20313 1.10937,-3.40625 0,-1.40625 -0.48437,-2.4375 -0.46875,-1.04688 -1.375,-1.625 -0.90625,-0.57813 -2.04688,-0.57813 -1.60937,0 -2.76562,1.10938 -1.15625,1.10937 -1.15625,3.6875 z m 11.14844,5.5625 v -8.29688 h 1.26562 v 1.25 q 0.48438,-0.875 0.89063,-1.15625 0.40625,-0.28125 0.90625,-0.28125 0.70312,0 1.4375,0.45313 l -0.48438,1.29687 q -0.51562,-0.29687 -1.03125,-0.29687 -0.45312,0 -0.82812,0.28125 -0.35938,0.26562 -0.51563,0.76562 -0.23437,0.75 -0.23437,1.64063 v 4.34375 z m 5.07812,0.6875 1.375,0.20312 q 0.0781,0.64063 0.46875,0.92188 0.53125,0.39062 1.4375,0.39062 0.96875,0 1.5,-0.39062 0.53125,-0.39063 0.71875,-1.09375 0.10938,-0.42188 0.10938,-1.8125 -0.92188,1.09375 -2.29688,1.09375 -1.71875,0 -2.65625,-1.23438 -0.9375,-1.23437 -0.9375,-2.96875 0,-1.1875 0.42188,-2.1875 0.4375,-1 1.25,-1.54687 0.82812,-0.54688 1.92187,-0.54688 1.46875,0 2.42188,1.1875 v -1 h 1.29687 v 7.17188 q 0,1.9375 -0.39062,2.75 -0.39063,0.8125 -1.25,1.28125 -0.85938,0.46875 -2.10938,0.46875 -1.48437,0 -2.40625,-0.67188 -0.90625,-0.67187 -0.875,-2.01562 z m 1.17188,-4.98438 q 0,1.625 0.64062,2.375 0.65625,0.75 1.625,0.75 0.96875,0 1.625,-0.73437 0.65625,-0.75 0.65625,-2.34375 0,-1.53125 -0.67187,-2.29688 -0.67188,-0.78125 -1.625,-0.78125 -0.9375,0 -1.59375,0.76563 -0.65625,0.76562 -0.65625,2.26562 z m 13.39843,3.26563 q -0.78125,0.67187 -1.5,0.95312 -0.71875,0.26563 -1.54687,0.26563 -1.375,0 -2.10938,-0.67188 -0.73437,-0.67187 -0.73437,-1.70312 0,-0.60938 0.28125,-1.10938 0.28125,-0.51562 0.71875,-0.8125 0.45312,-0.3125 1.01562,-0.46875 0.42188,-0.10937 1.25,-0.20312 1.70313,-0.20313 2.51563,-0.48438 0,-0.29687 0,-0.375 0,-0.85937 -0.39063,-1.20312 -0.54687,-0.48438 -1.60937,-0.48438 -0.98438,0 -1.46875,0.35938 -0.46875,0.34375 -0.6875,1.21875 l -1.375,-0.1875 q 0.1875,-0.875 0.60937,-1.42188 0.4375,-0.54687 1.25,-0.82812 0.8125,-0.29688 1.875,-0.29688 1.0625,0 1.71875,0.25 0.67188,0.25 0.98438,0.625 0.3125,0.375 0.4375,0.95313 0.0781,0.35937 0.0781,1.29687 v 1.875 q 0,1.96875 0.0781,2.48438 0.0937,0.51562 0.35937,1 h -1.46875 q -0.21875,-0.4375 -0.28125,-1.03125 z m -0.10937,-3.14063 q -0.76563,0.3125 -2.29688,0.53125 -0.875,0.125 -1.23437,0.28125 -0.35938,0.15625 -0.5625,0.46875 -0.1875,0.29688 -0.1875,0.65625 0,0.5625 0.42187,0.9375 0.4375,0.375 1.25,0.375 0.8125,0 1.4375,-0.34375 0.64063,-0.35937 0.9375,-0.98437 0.23438,-0.46875 0.23438,-1.40625 z m 3.60156,4.17188 v -8.29688 h 1.26563 v 1.17188 q 0.90625,-1.35938 2.64062,-1.35938 0.75,0 1.375,0.26563 0.625,0.26562 0.9375,0.70312 0.3125,0.4375 0.4375,1.04688 0.0781,0.39062 0.0781,1.35937 v 5.10938 h -1.40625 v -5.04688 q 0,-0.85937 -0.17188,-1.28125 -0.15625,-0.4375 -0.57812,-0.6875 -0.40625,-0.25 -0.96875,-0.25 -0.90625,0 -1.5625,0.57813 -0.64063,0.5625 -0.64063,2.15625 v 4.53125 z m 8.89844,-9.84375 v -1.60938 h 1.40625 v 1.60938 z m 0,9.84375 v -8.29688 h 1.40625 v 8.29688 z m 2.80469,0 v -1.14063 l 5.28125,-6.0625 q -0.89063,0.0469 -1.57813,0.0469 h -3.39062 v -1.14063 h 6.78125 v 0.92188 l -4.48438,5.26562 -0.875,0.96875 q 0.95313,-0.0781 1.78125,-0.0781 h 3.82813 v 1.21875 z m 14.15625,-1.03125 q -0.78125,0.67187 -1.5,0.95312 -0.71875,0.26563 -1.54688,0.26563 -1.375,0 -2.10937,-0.67188 -0.73438,-0.67187 -0.73438,-1.70312 0,-0.60938 0.28125,-1.10938 0.28125,-0.51562 0.71875,-0.8125 0.45313,-0.3125 1.01563,-0.46875 0.42187,-0.10937 1.25,-0.20312 1.70312,-0.20313 2.51562,-0.48438 0,-0.29687 0,-0.375 0,-0.85937 -0.39062,-1.20312 -0.54688,-0.48438 -1.60938,-0.48438 -0.98437,0 -1.46875,0.35938 -0.46875,0.34375 -0.6875,1.21875 l -1.375,-0.1875 q 0.1875,-0.875 0.60938,-1.42188 0.4375,-0.54687 1.25,-0.82812 0.8125,-0.29688 1.875,-0.29688 1.0625,0 1.71875,0.25 0.67187,0.25 0.98437,0.625 0.3125,0.375 0.4375,0.95313 0.0781,0.35937 0.0781,1.29687 v 1.875 q 0,1.96875 0.0781,2.48438 0.0937,0.51562 0.35938,1 h -1.46875 q -0.21875,-0.4375 -0.28125,-1.03125 z m -0.10938,-3.14063 q -0.76562,0.3125 -2.29687,0.53125 -0.875,0.125 -1.23438,0.28125 -0.35937,0.15625 -0.5625,0.46875 -0.1875,0.29688 -0.1875,0.65625 0,0.5625 0.42188,0.9375 0.4375,0.375 1.25,0.375 0.8125,0 1.4375,-0.34375 0.64062,-0.35937 0.9375,-0.98437 0.23437,-0.46875 0.23437,-1.40625 z m 6.66406,2.90625 0.20313,1.25 q -0.59375,0.125 -1.0625,0.125 -0.76563,0 -1.1875,-0.23437 -0.42188,-0.25 -0.59375,-0.64063 -0.17188,-0.40625 -0.17188,-1.67187 v -4.76563 h -1.03125 v -1.09375 h 1.03125 v -2.0625 l 1.40625,-0.84375 v 2.90625 h 1.40625 v 1.09375 h -1.40625 v 4.84375 q 0,0.60938 0.0625,0.78125 0.0781,0.17188 0.25,0.28125 0.17188,0.0937 0.48438,0.0937 0.23437,0 0.60937,-0.0625 z m 1.38282,-8.57812 v -1.60938 h 1.40625 v 1.60938 z m 0,9.84375 v -8.29688 h 1.40625 v 8.29688 z m 3.02343,-4.15625 q 0,-2.29688 1.28125,-3.40625 1.07813,-0.92188 2.60938,-0.92188 1.71875,0 2.79687,1.125 1.09375,1.10938 1.09375,3.09375 0,1.59375 -0.48437,2.51563 -0.48438,0.92187 -1.40625,1.4375 -0.90625,0.5 -2,0.5 -1.73438,0 -2.8125,-1.10938 -1.07813,-1.125 -1.07813,-3.23437 z m 1.45313,0 q 0,1.59375 0.6875,2.39062 0.70312,0.79688 1.75,0.79688 1.04687,0 1.73437,-0.79688 0.70313,-0.79687 0.70313,-2.4375 0,-1.53125 -0.70313,-2.32812 -0.6875,-0.79688 -1.73437,-0.79688 -1.04688,0 -1.75,0.79688 -0.6875,0.78125 -0.6875,2.375 z m 7.97656,4.15625 v -8.29688 h 1.26563 v 1.17188 q 0.90625,-1.35938 2.64062,-1.35938 0.75,0 1.375,0.26563 0.625,0.26562 0.9375,0.70312 0.3125,0.4375 0.4375,1.04688 0.0781,0.39062 0.0781,1.35937 v 5.10938 h -1.40625 v -5.04688 q 0,-0.85937 -0.17188,-1.28125 -0.15625,-0.4375 -0.57812,-0.6875 -0.40625,-0.25 -0.96875,-0.25 -0.90625,0 -1.5625,0.57813 -0.64063,0.5625 -0.64063,2.15625 v 4.53125 z"
     fill-rule="nonzero"
     id="path75" />
  <path
     fill="#cfe2f3"
     d="M 370.56519,123.39239 H 505.21085 V 171.3609 H 370.56519 Z"
     fill-rule="evenodd"
     id="path77" />
  <path
     stroke="#000000"
     stroke-width="1"
     stroke-linejoin="round"
     stroke-linecap="butt"
     d="M 370.56519,123.39239 H 505.21085 V 171.3609 H 370.56519 Z"
     fill-rule="evenodd"
     id="path79" />
  <path
     fill="#000000"
     d="m 393.30989,138.15852 q 0,-2.85938 1.53125,-4.46875 1.53125,-1.60938 3.95312,-1.60938 1.57813,0 2.84375,0.76563 1.28125,0.75 1.95313,2.10937 0.67187,1.34375 0.67187,3.0625 0,1.75 -0.70312,3.125 -0.70313,1.375 -2,2.09375 -1.28125,0.70313 -2.78125,0.70313 -1.60938,0 -2.89063,-0.78125 -1.26562,-0.79688 -1.92187,-2.14063 -0.65625,-1.35937 -0.65625,-2.85937 z m 1.5625,0.0156 q 0,2.07813 1.10937,3.26563 1.10938,1.1875 2.79688,1.1875 1.70312,0 2.8125,-1.20313 1.10937,-1.20312 1.10937,-3.40625 0,-1.40625 -0.48437,-2.4375 -0.46875,-1.04687 -1.375,-1.625 -0.90625,-0.57812 -2.04688,-0.57812 -1.60937,0 -2.76562,1.10937 -1.15625,1.10938 -1.15625,3.6875 z m 11.14844,5.5625 v -8.29687 h 1.26562 v 1.25 q 0.48438,-0.875 0.89063,-1.15625 0.40625,-0.28125 0.90625,-0.28125 0.70312,0 1.4375,0.45312 l -0.48438,1.29688 q -0.51562,-0.29688 -1.03125,-0.29688 -0.45312,0 -0.82812,0.28125 -0.35938,0.26563 -0.51563,0.76563 -0.23437,0.75 -0.23437,1.64062 v 4.34375 z m 5.07812,0.6875 1.375,0.20313 q 0.0781,0.64062 0.46875,0.92187 0.53125,0.39063 1.4375,0.39063 0.96875,0 1.5,-0.39063 0.53125,-0.39062 0.71875,-1.09375 0.10938,-0.42187 0.10938,-1.8125 -0.92188,1.09375 -2.29688,1.09375 -1.71875,0 -2.65625,-1.23437 -0.9375,-1.23438 -0.9375,-2.96875 0,-1.1875 0.42188,-2.1875 0.4375,-1 1.25,-1.54688 0.82812,-0.54687 1.92187,-0.54687 1.46875,0 2.42188,1.1875 v -1 h 1.29687 v 7.17187 q 0,1.9375 -0.39062,2.75 -0.39063,0.8125 -1.25,1.28125 -0.85938,0.46875 -2.10938,0.46875 -1.48437,0 -2.40625,-0.67187 -0.90625,-0.67188 -0.875,-2.01563 z m 1.17188,-4.98437 q 0,1.625 0.64062,2.375 0.65625,0.75 1.625,0.75 0.96875,0 1.625,-0.73438 0.65625,-0.75 0.65625,-2.34375 0,-1.53125 -0.67187,-2.29687 -0.67188,-0.78125 -1.625,-0.78125 -0.9375,0 -1.59375,0.76562 -0.65625,0.76563 -0.65625,2.26563 z m 13.39843,3.26562 q -0.78125,0.67188 -1.5,0.95313 -0.71875,0.26562 -1.54687,0.26562 -1.375,0 -2.10938,-0.67187 -0.73437,-0.67188 -0.73437,-1.70313 0,-0.60937 0.28125,-1.10937 0.28125,-0.51563 0.71875,-0.8125 0.45312,-0.3125 1.01562,-0.46875 0.42188,-0.10938 1.25,-0.20313 1.70313,-0.20312 2.51563,-0.48437 0,-0.29688 0,-0.375 0,-0.85938 -0.39063,-1.20313 -0.54687,-0.48437 -1.60937,-0.48437 -0.98438,0 -1.46875,0.35937 -0.46875,0.34375 -0.6875,1.21875 l -1.375,-0.1875 q 0.1875,-0.875 0.60937,-1.42187 0.4375,-0.54688 1.25,-0.82813 0.8125,-0.29687 1.875,-0.29687 1.0625,0 1.71875,0.25 0.67188,0.25 0.98438,0.625 0.3125,0.375 0.4375,0.95312 0.0781,0.35938 0.0781,1.29688 v 1.875 q 0,1.96875 0.0781,2.48437 0.0937,0.51563 0.35937,1 h -1.46875 q -0.21875,-0.4375 -0.28125,-1.03125 z m -0.10937,-3.14062 q -0.76563,0.3125 -2.29688,0.53125 -0.875,0.125 -1.23437,0.28125 -0.35938,0.15625 -0.5625,0.46875 -0.1875,0.29687 -0.1875,0.65625 0,0.5625 0.42187,0.9375 0.4375,0.375 1.25,0.375 0.8125,0 1.4375,-0.34375 0.64063,-0.35938 0.9375,-0.98438 0.23438,-0.46875 0.23438,-1.40625 z m 3.60156,4.17187 v -8.29687 h 1.26563 v 1.17187 q 0.90625,-1.35937 2.64062,-1.35937 0.75,0 1.375,0.26562 0.625,0.26563 0.9375,0.70313 0.3125,0.4375 0.4375,1.04687 0.0781,0.39063 0.0781,1.35938 v 5.10937 h -1.40625 v -5.04687 q 0,-0.85938 -0.17188,-1.28125 -0.15625,-0.4375 -0.57812,-0.6875 -0.40625,-0.25 -0.96875,-0.25 -0.90625,0 -1.5625,0.57812 -0.64063,0.5625 -0.64063,2.15625 v 4.53125 z m 8.89844,-9.84375 v -1.60937 h 1.40625 v 1.60937 z m 0,9.84375 v -8.29687 h 1.40625 v 8.29687 z m 2.80469,0 V 142.596 l 5.28125,-6.0625 q -0.89063,0.0469 -1.57813,0.0469 h -3.39062 v -1.14062 h 6.78125 v 0.92187 l -4.48438,5.26563 -0.875,0.96875 q 0.95313,-0.0781 1.78125,-0.0781 h 3.82813 v 1.21875 z m 14.15625,-1.03125 q -0.78125,0.67188 -1.5,0.95313 -0.71875,0.26562 -1.54688,0.26562 -1.375,0 -2.10937,-0.67187 -0.73438,-0.67188 -0.73438,-1.70313 0,-0.60937 0.28125,-1.10937 0.28125,-0.51563 0.71875,-0.8125 0.45313,-0.3125 1.01563,-0.46875 0.42187,-0.10938 1.25,-0.20313 1.70312,-0.20312 2.51562,-0.48437 0,-0.29688 0,-0.375 0,-0.85938 -0.39062,-1.20313 -0.54688,-0.48437 -1.60938,-0.48437 -0.98437,0 -1.46875,0.35937 -0.46875,0.34375 -0.6875,1.21875 l -1.375,-0.1875 q 0.1875,-0.875 0.60938,-1.42187 0.4375,-0.54688 1.25,-0.82813 0.8125,-0.29687 1.875,-0.29687 1.0625,0 1.71875,0.25 0.67187,0.25 0.98437,0.625 0.3125,0.375 0.4375,0.95312 0.0781,0.35938 0.0781,1.29688 v 1.875 q 0,1.96875 0.0781,2.48437 0.0937,0.51563 0.35938,1 h -1.46875 q -0.21875,-0.4375 -0.28125,-1.03125 z m -0.10938,-3.14062 q -0.76562,0.3125 -2.29687,0.53125 -0.875,0.125 -1.23438,0.28125 -0.35937,0.15625 -0.5625,0.46875 -0.1875,0.29687 -0.1875,0.65625 0,0.5625 0.42188,0.9375 0.4375,0.375 1.25,0.375 0.8125,0 1.4375,-0.34375 0.64062,-0.35938 0.9375,-0.98438 0.23437,-0.46875 0.23437,-1.40625 z m 6.66406,2.90625 0.20313,1.25 q -0.59375,0.125 -1.0625,0.125 -0.76563,0 -1.1875,-0.23438 -0.42188,-0.25 -0.59375,-0.64062 -0.17188,-0.40625 -0.17188,-1.67188 v -4.76562 h -1.03125 v -1.09375 h 1.03125 v -2.0625 l 1.40625,-0.84375 v 2.90625 h 1.40625 v 1.09375 h -1.40625 v 4.84375 q 0,0.60937 0.0625,0.78125 0.0781,0.17187 0.25,0.28125 0.17188,0.0937 0.48438,0.0937 0.23437,0 0.60937,-0.0625 z m 1.38282,-8.57813 v -1.60937 h 1.40625 v 1.60937 z m 0,9.84375 v -8.29687 h 1.40625 v 8.29687 z m 3.02343,-4.15625 q 0,-2.29687 1.28125,-3.40625 1.07813,-0.92187 2.60938,-0.92187 1.71875,0 2.79687,1.125 1.09375,1.10937 1.09375,3.09375 0,1.59375 -0.48437,2.51562 -0.48438,0.92188 -1.40625,1.4375 -0.90625,0.5 -2,0.5 -1.73438,0 -2.8125,-1.10937 -1.07813,-1.125 -1.07813,-3.23438 z m 1.45313,0 q 0,1.59375 0.6875,2.39063 0.70312,0.79687 1.75,0.79687 1.04687,0 1.73437,-0.79687 0.70313,-0.79688 0.70313,-2.4375 0,-1.53125 -0.70313,-2.32813 -0.6875,-0.79687 -1.73437,-0.79687 -1.04688,0 -1.75,0.79687 -0.6875,0.78125 -0.6875,2.375 z m 7.97656,4.15625 v -8.29687 h 1.26563 v 1.17187 q 0.90625,-1.35937 2.64062,-1.35937 0.75,0 1.375,0.26562 0.625,0.26563 0.9375,0.70313 0.3125,0.4375 0.4375,1.04687 0.0781,0.39063 0.0781,1.35938 v 5.10937 h -1.40625 v -5.04687 q 0,-0.85938 -0.17188,-1.28125 -0.15625,-0.4375 -0.57812,-0.6875 -0.40625,-0.25 -0.96875,-0.25 -0.90625,0 -1.5625,0.57812 -0.64063,0.5625 -0.64063,2.15625 v 4.53125 z"
     fill-rule="nonzero"
     id="path81" />
  <path
     fill="#000000"
     d="m 408.71223,152.89289 v -1.60938 h 1.40625 v 1.60938 z m 0,9.84375 v -8.29688 h 1.40625 v 8.29688 z m 8.92969,0 v -1.04688 q -0.78125,1.23438 -2.3125,1.23438 -1,0 -1.82813,-0.54688 -0.82812,-0.54687 -1.29687,-1.53125 -0.45313,-0.98437 -0.45313,-2.25 0,-1.25 0.40625,-2.25 0.42188,-1.01562 1.25,-1.54687 0.82813,-0.54688 1.85938,-0.54688 0.75,0 1.32812,0.3125 0.59375,0.3125 0.95313,0.82813 v -4.10938 h 1.40625 v 11.45313 z m -4.4375,-4.14063 q 0,1.59375 0.67187,2.39063 0.67188,0.78125 1.57813,0.78125 0.92187,0 1.5625,-0.75 0.65625,-0.76563 0.65625,-2.3125 0,-1.70313 -0.65625,-2.5 -0.65625,-0.79688 -1.625,-0.79688 -0.9375,0 -1.5625,0.76563 -0.625,0.76562 -0.625,2.42187 z m 13.63281,1.46875 1.45312,0.17188 q -0.34375,1.28125 -1.28125,1.98437 -0.92187,0.70313 -2.35937,0.70313 -1.82813,0 -2.89063,-1.125 -1.0625,-1.125 -1.0625,-3.14063 0,-2.09375 1.07813,-3.25 1.07812,-1.15625 2.79687,-1.15625 1.65625,0 2.70313,1.14063 1.0625,1.125 1.0625,3.17187 0,0.125 0,0.375 h -6.1875 q 0.0781,1.375 0.76562,2.10938 0.70313,0.71875 1.73438,0.71875 0.78125,0 1.32812,-0.40625 0.54688,-0.40625 0.85938,-1.29688 z m -4.60938,-2.28125 h 4.625 q -0.0937,-1.04687 -0.53125,-1.5625 -0.67187,-0.8125 -1.73437,-0.8125 -0.96875,0 -1.64063,0.65625 -0.65625,0.64063 -0.71875,1.71875 z m 7.83594,4.95313 v -8.29688 h 1.26563 v 1.17188 q 0.90625,-1.35938 2.64062,-1.35938 0.75,0 1.375,0.26563 0.625,0.26562 0.9375,0.70312 0.3125,0.4375 0.4375,1.04688 0.0781,0.39062 0.0781,1.35937 v 5.10938 h -1.40625 v -5.04688 q 0,-0.85937 -0.17188,-1.28125 -0.15625,-0.4375 -0.57812,-0.6875 -0.40625,-0.25 -0.96875,-0.25 -0.90625,0 -1.5625,0.57813 -0.64063,0.5625 -0.64063,2.15625 v 4.53125 z m 11.96094,-1.26563 0.20312,1.25 q -0.59375,0.125 -1.0625,0.125 -0.76562,0 -1.1875,-0.23437 -0.42187,-0.25 -0.59375,-0.64063 -0.17187,-0.40625 -0.17187,-1.67187 v -4.76563 h -1.03125 v -1.09375 h 1.03125 v -2.0625 l 1.40625,-0.84375 v 2.90625 h 1.40625 v 1.09375 h -1.40625 v 4.84375 q 0,0.60938 0.0625,0.78125 0.0781,0.17188 0.25,0.28125 0.17187,0.0937 0.48437,0.0937 0.23438,0 0.60938,-0.0625 z m 1.38281,-8.57812 v -1.60938 h 1.40625 v 1.60938 z m 0,9.84375 v -8.29688 h 1.40625 v 8.29688 z m 3.88281,0 v -7.20313 h -1.23437 v -1.09375 h 1.23437 v -0.89062 q 0,-0.82813 0.15625,-1.23438 0.20313,-0.54687 0.70313,-0.89062 0.51562,-0.34375 1.4375,-0.34375 0.59375,0 1.3125,0.14062 l -0.20313,1.23438 q -0.4375,-0.0781 -0.82812,-0.0781 -0.64063,0 -0.90625,0.28125 -0.26563,0.26563 -0.26563,1.01563 v 0.76562 h 1.60938 v 1.09375 h -1.60938 v 7.20313 z m 4.11719,-9.84375 v -1.60938 h 1.40625 v 1.60938 z m 0,9.84375 v -8.29688 h 1.40625 v 8.29688 z m 9.22656,-2.67188 1.45313,0.17188 q -0.34375,1.28125 -1.28125,1.98437 -0.92188,0.70313 -2.35938,0.70313 -1.82812,0 -2.89062,-1.125 -1.0625,-1.125 -1.0625,-3.14063 0,-2.09375 1.07812,-3.25 1.07813,-1.15625 2.79688,-1.15625 1.65625,0 2.70312,1.14063 1.0625,1.125 1.0625,3.17187 0,0.125 0,0.375 h -6.1875 q 0.0781,1.375 0.76563,2.10938 0.70312,0.71875 1.73437,0.71875 0.78125,0 1.32813,-0.40625 0.54687,-0.40625 0.85937,-1.29688 z m -4.60937,-2.28125 h 4.625 q -0.0937,-1.04687 -0.53125,-1.5625 -0.67188,-0.8125 -1.73438,-0.8125 -0.96875,0 -1.64062,0.65625 -0.65625,0.64063 -0.71875,1.71875 z m 7.82031,4.95313 v -8.29688 h 1.26563 v 1.25 q 0.48437,-0.875 0.89062,-1.15625 0.40625,-0.28125 0.90625,-0.28125 0.70313,0 1.4375,0.45313 l -0.48437,1.29687 q -0.51563,-0.29687 -1.03125,-0.29687 -0.45313,0 -0.82813,0.28125 -0.35937,0.26562 -0.51562,0.76562 -0.23438,0.75 -0.23438,1.64063 v 4.34375 z"
     fill-rule="nonzero"
     id="path83" />
  <path
     fill="#000000"
     fill-opacity="0"
     d="M 164.61244,194.58923 370.5652,147.37664"
     fill-rule="evenodd"
     id="path85" />
  <path
     stroke="#000000"
     stroke-width="1"
     stroke-linejoin="round"
     stroke-linecap="butt"
     d="M 164.61243,194.58923 364.71691,148.7173"
     fill-rule="evenodd"
     id="path87" />
  <path
     fill="#000000"
     stroke="#000000"
     stroke-width="1"
     stroke-linecap="butt"
     d="m 365.08599,150.32727 4.05429,-2.62398 -4.79242,-0.59596 z"
     fill-rule="evenodd"
     id="path89" />
  <path
     fill="#000000"
     fill-opacity="0"
     d="M 164.61542,194.59187 370.56816,284.6706"
     fill-rule="evenodd"
     id="path91" />
  <path
     stroke="#000000"
     stroke-width="1"
     stroke-linejoin="round"
     stroke-linecap="butt"
     d="m 164.61543,194.59187 200.4555,87.67438"
     fill-rule="evenodd"
     id="path93" />
  <path
     fill="#000000"
     stroke="#000000"
     stroke-width="1"
     stroke-linecap="butt"
     d="m 364.40907,283.77958 4.8197,0.30521 -3.49591,-3.33185 z"
     fill-rule="evenodd"
     id="path95" />
</svg>
